<?xml version="1.0" encoding="UTF-8" standalone="no"?>
<svg
   xmlns:dc="http://purl.org/dc/elements/1.1/"
   xmlns:cc="http://creativecommons.org/ns#"
   xmlns:rdf="http://www.w3.org/1999/02/22-rdf-syntax-ns#"
   xmlns:svg="http://www.w3.org/2000/svg"
   xmlns="http://www.w3.org/2000/svg"
   xmlns:sodipodi="http://sodipodi.sourceforge.net/DTD/sodipodi-0.dtd"
   xmlns:inkscape="http://www.inkscape.org/namespaces/inkscape"
   inkscape:version="1.0rc1 (09960d6, 2020-04-09)"
   inkscape:export-ydpi="42.598438"
   inkscape:export-xdpi="42.598438"
   inkscape:export-filename="/Users/rporott/Documents/logo_new3.png"
   sodipodi:docname="logo_new3.svg"
   viewBox="0 0 2397.8345 449.44598"
   height="449.44598"
   width="2397.8345"
   xml:space="preserve"
   id="svg10"
   version="1.1"><metadata
     id="metadata16"><rdf:RDF><cc:Work
         rdf:about=""><dc:format>image/svg+xml</dc:format><dc:type
           rdf:resource="http://purl.org/dc/dcmitype/StillImage" /><dc:title></dc:title></cc:Work></rdf:RDF></metadata><defs
     id="defs14"><clipPath
       id="clipPath28"
       clipPathUnits="userSpaceOnUse"><path
         inkscape:connector-curvature="0"
         id="path26"
         d="M 0,0 H 1920 V 1080 H 0 Z" /></clipPath><clipPath
       id="clipPath40"
       clipPathUnits="userSpaceOnUse"><path
         inkscape:connector-curvature="0"
         id="path38"
         d="M 47.95009,311.1504 H 1872.0501 v 409.5 H 47.95009 Z" /></clipPath></defs><sodipodi:namedview
     inkscape:current-layer="g18"
     inkscape:window-maximized="0"
     inkscape:window-y="23"
     inkscape:window-x="0"
     inkscape:cy="595.9671"
     inkscape:cx="1720.838"
     inkscape:zoom="0.15533058"
     fit-margin-bottom="0"
     fit-margin-right="0"
     fit-margin-left="0"
     fit-margin-top="0"
     showgrid="false"
     id="namedview12"
     inkscape:window-height="778"
     inkscape:window-width="1505"
     inkscape:pageshadow="2"
     inkscape:pageopacity="0"
     guidetolerance="10"
     gridtolerance="10"
     objecttolerance="10"
     borderopacity="1"
     bordercolor="#666666"
     pagecolor="#ffffff" /><g
     transform="matrix(1.3333333,0,0,-1.3333333,-82.302868,944.54651)"
     inkscape:label="Untitled"
     inkscape:groupmode="layer"
     id="g18"><g
       id="g20" /><path
       inkscape:export-ydpi="42.211681"
       inkscape:export-xdpi="42.211681"
       inkscape:connector-curvature="0"
       id="path32"
       style="fill:#435180;fill-opacity:1;fill-rule:nonzero;stroke:none"
       d="m 1860.103,595.4157 c -0.261,-3.4445 -0.493,-7.2894 -0.464,-13.1517 -0.349,2.4232 -0.726,4.4103 -1.336,3.8245 0.378,5.1075 0.581,11.8488 0.436,21.8087 0.435,-0.2415 0.348,-5.2921 0.435,-8.6049 0.029,-4.1722 0.581,-3.1518 0.929,-3.8766 0,0 0,0 0,0 z M 967.0257,374.4609 c 7.8497,0.1452 -0.7387,-1.3064 -3.7342,-1.3645 -0.3754,0.2903 -0.7505,0.5516 -3.7446,0.4645 -0.75,-1.1323 5.9974,-1.4226 11.2503,-1.8 21.3554,0.6097 5.5747,2.7871 -3.7715,2.7 0,0 0,0 0,0 z M 63.96138,503.6466 c -0.11613,17.4094 1.39355,-0.3398 1.8,-2.8013 0.40645,8.3397 2.5258,3.0487 2.7,13.4838 -0.66774,1.542 -1.13226,5.1244 -1.8,6.686 -0.05807,-4.6507 0.08709,-11.1117 -0.43549,-12.1822 -0.08709,6.1184 0.1742,14.7383 -0.43548,15.5741 -0.34839,-13.707 -1.36452,-3.042 -2.26452,-1.1881 0.20323,-11.9381 -1.07419,-16.559 0.43549,-19.5723 0,0 0,0 0,0 z M 748.6154,701.9391 c -4.8223,-0.0581 -8.9058,-0.1162 -8.0897,-0.9 5.1564,-0.0291 8.5657,0.2032 11.6067,0.4354 0.5403,-0.5225 -1.2104,-1.2483 3.1835,-1.3354 5.5989,1.1322 3.6693,2.8451 1.3702,3.6 -0.8114,-1.1613 -17.6105,-0.6387 -8.0707,-1.8 0,0 0,0 0,0 z m 426.5936,-2.2646 c 14.801,0.6678 -0.502,-2.0032 14.284,-1.3354 0.377,1.1903 3.501,2.6419 -6.059,2.7 -1.136,-0.6387 -6.742,-0.7549 -8.225,-1.3646 0,0 0,0 0,0 z M 380.2515,385.7254 c -0.5891,-0.9 -10.725,-0.5806 -8.9476,-1.8 5.1796,0 9.9891,0 15.1687,0 1.7653,1.0162 0.3496,1.6839 -6.2211,1.8 0,0 0,0 0,0 z M 77.02589,625.8976 c -1.53871,17.2581 0.58065,36.1294 -0.66774,30.4331 -1.50968,6.59 -4.00645,-12.8766 -2.49677,-11.9084 1.56774,-1.649 3.04838,-32.3166 3.16451,-18.5247 0,0 0,0 0,0 z M 880.9011,397.8609 c -17.9662,-1.1032 -13.9076,2.7581 -25.7471,0.9 3.9949,-0.0581 5.7645,-0.4935 7.175,-0.9 -2.9233,-0.0871 -7.2832,0 -7.3355,-0.4355 8.3574,-0.2032 18.5124,-0.6968 25.9076,0.4355 0,0 0,0 0,0 z m 817.8209,307.6782 c -2.881,0.0871 -4.097,0.3774 -3.252,0.9 -12.083,-0.2613 -10.717,0.8419 -18.881,0 -1.986,-1.8 8.55,-1.1904 18.063,-0.9 0.133,-0.2613 2.855,-0.5226 4.07,0 0,0 0,0 0,0 z m -337.723,-4.9646 c 1.188,1.1323 8.414,1.4226 -2.372,1.8291 -13.677,-1.5678 -3.504,-2.8162 8.813,-3.6291 -0.423,-0.5806 -0.866,-1.1903 -1.309,-1.8 -5.134,0.0291 -8.616,-0.2032 -11.729,-0.4354 -0.706,2.0903 -11.921,-1.742 -30.495,-0.4355 8.543,-0.9291 -2.553,-2.5839 10.132,-1.8 -4.214,-1.2774 4.32,-1.1613 2.064,-2.2645 -4.626,0.7258 -17.586,0.5806 -13.462,2.2645 -6.598,0.029 -11.847,-0.1162 -15.398,-0.4645 -5.784,-1.4517 11.906,-0.3194 6.093,-1.8 -3.672,0 -4.649,-0.3484 -7.647,-0.4355 -0.351,0.5516 1.623,1.2774 -2.726,1.3645 -12.503,-0.5516 1.036,-1.6839 -16.295,-1.8 -0.526,0.8419 4.715,0.9871 4.906,1.8 -7.181,0.7839 -7.586,-0.3484 -14.769,0.4355 -2.001,-0.7839 4.722,-1.1613 -0.925,-1.3645 -3.382,2.0613 -16.625,-1.2484 -26.131,0.4645 9.282,2.9032 -2.202,-0.5516 -9.92,2.2355 -2.72,-0.7839 3.04,-2.642 -5.444,-2.7 5.261,3.5419 -29.219,2.5548 -0.15,5.4 -14.403,-0.0581 -17.385,2.758 -5.685,3.1645 -25.571,-0.7549 -16.27,1.1032 -25.723,1.3355 -9.674,-0.1162 4.671,-0.7839 -1.139,-1.8 10.366,0.058 7.266,-0.7549 15.125,0 -0.391,-0.6097 1.21,-0.9871 3.179,-1.3646 -9.71,0.9581 -23.145,-1.0451 -16.809,-2.6709 5.319,0.2613 1.456,1.7129 8.493,1.7709 -3.838,-1.9741 7.612,0.3775 7.158,-0.9 -5.941,-1.8 7.793,-3.3096 -6.36,-3.6 0.484,0.7549 0.969,1.5097 1.434,2.2355 -3.68,0 -7.359,0 -11.039,0 -4.175,-1.3645 -2.173,-2.2645 -5.756,-2.7 -6.264,-0.029 -9.334,0.3484 -10.825,0.9 7.902,0.2904 17.868,1.5097 5.175,1.8 3.078,-2.7 -18.425,-0.6387 -9.123,-2.2355 -14.502,-0.8709 -20.147,1.3065 -22.701,-0.4645 -7.313,0.0581 -1.651,1.5097 -10.564,1.3645 -14.717,-1.2483 -10.981,0.6968 -30.406,-0.4354 -0.911,2.2064 -2.11,-0.4646 -7.99,-0.4646 0.44,0.7549 0.881,1.5097 1.322,2.2646 -7.331,-1.2194 -22.755,-1.8291 -37.794,-0.4646 -4.274,-0.4064 -2.033,-1.6548 -12.146,-1.3354 -9.975,1.9161 -24.387,-0.2323 -36.532,1.8 -1.662,-1.0452 -10.856,-1.0452 -15.331,-0.4646 -2.542,-0.6387 3.187,-2.3225 -5.218,-2.2354 -4.83,1.3064 5.28,1.6548 -6.186,2.2354 0.3786,-1.3935 -10.4398,1.1613 -11.6273,-0.4354 3.4534,-0.4355 7.2575,-0.9 10.692,-1.3646 -5.1449,0 -4.0806,-0.7838 -8.1811,-0.9 1.7078,1.8871 -8.2998,0.2904 -11.3864,0 0.7663,0.7839 -0.0262,1.3936 -2.761,1.8 -6.6328,-0.029 -11.7222,0.0871 -14.8579,0.4355 -8.7739,-0.6387 4.2284,-1.1032 -4.3402,-1.3355 -2.3078,3.5129 -12.6935,-0.4064 -29.2722,1.8 -4.5448,-1.0451 -12.1859,-1.6548 -23.6468,-1.8 -0.616,1.0452 11.2579,0.4936 12.0234,1.3355 -16.6976,-0.3193 3.3689,0.9 -7.3019,0.9 -23.8794,-0.7258 -39.3144,-0.6967 -64.8021,-1.8 0.8066,1.0162 -18.3198,1.8871 -18.172,1.3645 5.064,-0.2032 -11.3793,-1.7129 -19.5003,-1.8 -1.2898,2.2355 -12.9478,4.3549 -13.2646,5.4 -3.3789,-1.0741 -2.6886,-1.1903 -4.9513,-3.1645 -14.2669,-0.7258 -20.8013,1.3936 -30.517,-0.9 1.1693,1.1323 -5.3447,1.4226 -10.7237,1.8 1.0785,-1.0451 4.0818,-1.858 6.7034,-2.7 -7.3079,0.1162 -8.6399,-0.4935 -15.2329,-0.4355 -5.2034,3.8323 -17.9865,-0.958 -21.8149,2.7 -10.6531,0.0581 -9.3165,-1.3645 -19.2464,-1.3645 0.6412,0.7839 -0.2504,1.3936 -3.0541,1.8 6.4945,-0.3774 10.8798,-1.5096 15.094,0 -14.585,0.4065 29.0204,3.8033 5.6095,5.4 -0.9766,-0.6677 0.8849,-1.6548 -4.3316,-1.8 -13.4375,0.6097 -4.8389,1.9742 0.6389,1.8 -8.9982,0.6678 -18.7828,0.1452 -10.8201,1.8 -20.9135,0.4645 -8.0023,-0.6967 -15.6095,-1.3355 -37.3147,1.1323 -84.4884,1.5968 -136.2969,0 -1.3677,1.8291 -29.1372,0.1742 -38.2624,-0.9 -14.0727,1.3936 -29.1296,1.8 -33.9646,0 -2.2251,1.6259 -17.9427,-1.0451 -19.1053,0.4355 6.2526,-0.1161 10.4722,0.6097 4.2545,0.9 -21.2175,-0.7838 -52.6879,-1.2193 -64.6554,0 -7.7009,-1.8 -21.2802,-1.3355 -30.3654,-0.4355 -1.6025,-0.7838 5.7198,-1.1612 -0.2188,-1.3645 -1.7067,0.871 -21.1272,1.8871 -26.074,0.9 5.9386,0.2033 12.2983,-1.6838 3.4271,-1.8 0.1328,0.9 -10.2468,0.5807 -7.4891,1.8 -12.654,-0.7258 -19.9061,0.2613 -30.3351,-0.4355 8.4645,-0.2032 13.5547,-0.7838 14.894,-1.8 -7.2814,0.7259 -12.7492,1.2484 -18.8091,0 1.7326,2.0613 -10.2339,0.7839 -22.2968,1.8 -3.3957,-0.6677 -6.0605,-1.4225 -15.6455,-1.3645 -4.6826,1.1323 15.2828,1.4226 4.2466,1.8 -0.0731,-0.6967 -10.4862,-1.4806 -7.7547,0 -12.9922,-0.7258 -19.907,0.3774 -30.3553,-0.9 13.3318,0.4936 3.193,-1.5096 -0.1501,-1.8 -2.9426,0.0871 -7.3719,0.0291 -7.3374,0.4645 0.046,0.5807 6.6722,0.4065 7.4512,0.9 -9.2725,-0.6096 -11.672,1.771 -15.0962,0.4355 4.0599,0 4.7373,-0.7838 -0.0673,-0.9 -0.943,2.2065 -28.0019,0.5807 -18.8436,-0.4645 0.0392,0.6097 10.3671,0.5807 11.4328,0 -2.9984,-0.6968 -18.433,0.1161 -15.2037,-1.3355 8.8309,-0.2032 8.1617,0.8129 18.8263,0.4355 1.0398,-0.9 7.2806,-1.1903 11.2844,-1.8 -16.9349,0.0581 -20.5115,1.6258 -22.8307,0 -7.3539,0.1742 -2.8334,1.7419 -15.0189,1.3645 -17.3428,-0.4645 -3.0491,-1.8 -7.4902,-2.2355 -15.4245,0.7549 -10.5467,2.671 -3.8417,4.0355 -12.1775,-0.0871 -15.8294,0.7839 -30.2336,0.4645 0.7088,-0.8419 2.5291,-1.5096 7.6794,-1.8 0.3821,0.3484 12.5953,1.3646 11.4468,0.4355 -1.1951,-2.0032 -11.1727,-2.8742 -26.6412,-3.1355 3.743,1.9452 4.074,0.7839 -11.3885,0.9 2.6271,1.9742 -7.3721,-0.3774 -7.7158,0.9 0.7471,0.5226 6.2745,0.4936 11.4325,0.4355 -0.3471,0.842 -2.1743,1.5097 -7.3318,1.8 -3.3331,-0.6677 -5.8997,0.1452 -15.1304,-0.4355 -0.7517,-1.1322 5.8783,-1.3935 7.3379,-2.2354 -5.1555,0.0871 -6.2519,0.7258 -11.4089,0.9 -4.43274,-1.2775 -4.07972,-3.1065 -3.72772,-4.9646 5.87472,-0.4354 15.06022,-0.4064 7.70012,-1.3354 22.0276,-0.2033 -1.0781,1.9161 7.3824,2.2354 9.15,-1.8871 4.0563,0.6097 18.7638,0.4355 4.4106,-0.0871 5.869,-0.4935 7.6943,-0.9 -1.111,-0.2613 -9.6036,-1.7419 -0.0578,-1.8 2.2343,0.9291 7.4,1.5387 15.1287,1.8 -0.0271,-0.6677 -15.8511,-1.4226 -0.0543,-1.3355 7.7187,0.1162 0.8157,1.9742 11.4699,1.771 -0.0205,-0.4355 2.9159,-0.5226 3.6325,-0.9 -15.4262,0.2032 2.8823,-1.1322 -7.4308,-1.8 13.1794,-0.6968 2.2739,1.5387 11.0833,1.3645 0.3226,-0.8709 14.7426,0.7839 15.0094,-0.9 -5.4686,0.6968 -16.4995,0.4936 -15.1032,-0.929 9.9276,0.3194 55.7139,-0.871 37.9018,1.3645 6.5425,-0.9 39.7722,-2.7581 37.2952,-1.8 -9.9197,-0.1451 -9.4577,0.929 -10.8497,1.8 18.5723,-1.6258 28.2398,-0.4064 48.5926,-2.2355 -22.4067,-0.2903 -5.7896,-2.5548 -19.0859,-3.6 -5.8515,0.0581 -13.9281,-0.1742 -15.3337,0.4355 2.6992,1.3936 11.7951,0.7549 15.3793,0 0.1279,1.2194 0.2527,2.4097 0.3775,3.6 -24.7106,-1.3935 -37.7883,0.0581 -49.2013,-0.4355 9.8877,-0.2032 -18.8336,-1.8871 -7.5014,-2.2645 4.8328,0.929 16.5697,1.0161 26.4977,1.3645 -0.0382,-0.4355 -0.079,-0.9 -0.1197,-1.3645 4.3911,-0.0581 10.6326,0.0871 10.9499,-0.4355 -13.5245,0.3194 -20.968,-1.1032 -30.0342,0 -0.0223,-0.2903 -0.0469,-0.6096 -0.0692,-0.9 -2.1987,-0.029 -4.3973,-0.058 -3.6934,-0.4355 4.3852,-0.0871 10.6184,0.0581 11.308,-0.4645 -9.9033,-0.3193 -11.83,-1.6258 -22.8086,-1.8 2.4451,-1.6258 -12.2763,-3.4838 3.7356,-4.0355 2.6595,1.4807 11.455,1.9452 11.148,2.7 4.7921,0.5517 14.2592,0.1742 18.9518,-0.4645 -4.8283,-0.958 -14.3447,-1.3064 -15.1848,-2.7 7.6368,-0.2322 13.7858,-0.7838 18.6354,0.4645 -15.9896,0.6968 8.8624,1.1613 15.2175,2.7 -1.8912,-0.6677 -5.5893,-1.1612 -7.8393,-1.8 12.3966,-0.0871 18.3524,1.0452 18.8787,-0.9 14.8794,-0.6387 11.7765,0.9581 22.3512,0.9 -7.1436,-1.858 6.8301,-0.8419 -0.3174,-2.7 17.4421,-0.3483 5.3066,1.7129 11.5166,1.8 5.4554,-0.1161 6.1032,-0.7548 11.1838,-0.929 8.152,0.9871 24.2026,1.0161 26.64,2.729 6.9186,-0.1161 8.1052,0.4936 15.0342,0.4355 1.7447,-0.5226 3.8578,-1.0161 7.0871,-1.3645 1.1729,0.4936 6.381,1.1032 7.7375,0.4645 -19.6594,-2.0903 -14.2096,-2.2064 -34.4565,-3.6 -1.3658,0.6387 -4.2642,0.7549 0.1913,1.3355 -13.8033,0.3484 -17.9293,-0.5226 -29.9427,-0.4355 -1.5958,-1.1032 -4.3893,-3.0774 -15.1518,-1.8 2.3823,-1.3935 -0.582,-1.858 3.7363,-2.2355 5.9134,0.7839 13.982,1.3065 22.4154,1.8 0.6545,-0.5516 -0.8967,-1.2774 3.4555,-1.3645 4.0995,0.7258 10.3289,1.0452 15.3355,0.4355 0.0916,0.6387 -1.674,1.0161 -3.8085,1.3645 18.631,0.4355 11.8021,-1.4226 26.1414,-0.4355 -2.3275,-0.929 -11.4165,-0.9 -3.9166,-1.8 12.6635,-0.3774 15.7132,0.4936 22.3268,0.9 1.0329,-0.3483 0.2135,-0.9 3.849,-0.9 9.2558,0.9581 -19.5654,2.7291 -3.2487,4.5 0.8554,-1.4225 16.6079,-0.9 18.9535,0 -4.9101,1.1033 -14.2987,-0.4935 -14.8705,0.4355 28.4643,0.1452 1.0883,2.1194 30.3983,2.7 -0.1081,-0.5806 -0.2216,-1.1903 -0.3296,-1.7709 -11.6364,0.2032 -12.2146,-0.9871 -11.715,-2.2646 -10.2206,-0.1161 -14.5315,-1.8871 -22.7368,-0.9 2.8364,-2.6129 8.3497,-0.1451 18.934,0 -0.601,-1.3354 -10.0907,-1.5096 -11.7497,-2.7 24.2092,1.1613 28.9371,-0.7838 52.2565,1.3355 -5.7734,-1.5967 12.6797,-0.2613 11.0018,-1.3355 -19.9443,0.2613 -12.3505,-3.5709 -15.7139,-4.0645 -13.0186,0.2033 -6.7229,2.7291 -14.1859,3.6 -3.9023,-1.4226 -2.2184,-2.1193 -0.7679,-4.0355 11.7008,0.4936 9.8304,0.2033 18.7625,-0.4645 7.8515,1.1613 14.9098,3.6871 4.5456,4.5291 2.1273,-0.2613 17.2233,-1.0452 18.5366,0 -14.5564,-0.0871 1.5972,0.6677 -6.9892,1.3354 11.4767,0.9291 31.0966,-0.8129 44.8494,0.4646 -1.296,-0.871 3.7607,-1.0162 3.211,-1.8 -13.5051,1.3354 -16.7464,-1.7129 -30.2005,-1.8 5.7834,-0.1162 2.3227,-0.9871 -0.3006,-1.3646 13.2262,0.7259 20.2092,-0.4645 29.9635,0.9 -0.1034,-0.4354 -0.2137,-0.9 -0.324,-1.3645 16.2311,1.1033 13.9395,0.6387 26.0049,-0.4355 4.914,0.7839 -1.0176,3.1646 -2.4924,4.5291 5.6623,-0.6097 27.182,-0.3194 14.44,-1.8 12.6959,-0.0581 9.9262,1.829 22.6431,1.8 -0.0232,-1.4226 -11.98,-1.3065 -8.1175,-3.1645 11.896,-0.2904 5.5201,1.6258 14.9991,0.4354 0.6837,1.1613 1.3679,2.3226 11.5288,2.2646 -7.5599,-1.0452 0.9425,-0.5226 3.6098,-1.3646 -4.7786,-0.2032 -8.8542,-0.4935 -11.5087,-0.9 18.613,0.3484 22.2352,0.3194 37.0249,0 -4.9977,1.5097 3.4982,1.9742 -6.4629,2.7 9.1557,-0.9871 21.3448,0.842 26.1759,0 -5.9772,-0.5225 -15.4355,-0.5516 -19.3045,-1.3354 29.6507,-0.4355 44.7292,-2.0904 70.8385,0 -4.3397,0.058 -10.564,-0.0871 -11.1163,0.4354 2.9362,0.0871 7.6307,0 7.7778,0.4355 -9.1057,-0.058 -17.8283,-0.058 -22.3833,0.4645 -8.2121,-0.6677 4.3647,-1.1032 -4.0761,-1.3645 -1.1726,0.871 -17.0554,0.0581 -10.6918,1.8 13.7676,-1.2774 27.6948,0.1742 34.5696,2.2355 12.2508,-2.4968 -0.0625,-2.3516 13.229,-4.9355 -0.0933,0.7839 3.2964,1.1323 7.727,1.3355 -5.0434,-1.9742 12.7399,-0.9581 14.5764,-0.9 -6.2294,0.871 -30.5928,1.8871 -17.2746,3.6 -7.0181,-3.4839 29.0764,0.9 21.5528,-1.8 15.8891,-0.2903 10.7833,1.6549 18.9044,0 0.5678,0.5516 -0.255,1.2774 4.1432,1.3645 4.3333,-0.0871 5.636,-0.4935 7.3016,-0.9 -22.4674,-0.7838 -16.5862,-2.5838 -31.1625,-2.729 2.5311,-0.029 4.699,-0.0581 3.8364,-0.4355 -0.1049,-0.2903 0.1635,-0.5516 3.4716,-0.4355 1.7335,1.771 11.4836,-0.3484 15.2134,0.9 -4.3355,0.0581 -8.6713,0.1162 -6.9305,0.9 18.3839,-0.3774 15.7822,1.3936 41.5607,2.2355 -7.9754,-0.871 2.0787,-1.1903 10.7447,-1.3355 12.428,0.1742 8.5897,2.3807 23.4522,2.2355 -2.8953,-3.5129 15.7826,0.3194 32.7072,-1.8 -1.0211,1.8581 22.5274,2.4387 26.5757,0.9 1.0247,0.6678 9.2893,0.4355 15.1237,0.4645 1.8113,0.7839 -4.9477,1.1323 0.6054,1.3355 4.9783,-0.2613 -0.4128,-1.7129 6.4587,-1.8 8.19,0.4065 7.4311,1.9161 19.3931,1.8 -0.207,-1.2193 -6.608,-0.9 -0.8427,-1.8 10.8099,0.5516 20.2421,0.4936 10.8486,-0.9 15.5202,-0.2322 9.125,2.3516 23.6298,2.2355 -4.6779,-0.6387 -4.5394,-1.1032 2.9863,-1.3355 5.9996,1.1032 6.6212,1.6258 8.7427,2.2355 3.7794,-1.1903 2.2229,-1.3936 14.48,-0.9 -0.3064,-0.6097 -0.6128,-1.2194 -0.9046,-1.8 5.4986,0.0871 13.3657,-0.1742 15.1317,0.4355 -10.3311,-0.2903 -6.8036,0.929 -10.587,1.3645 10.3109,0.2323 30.6973,1.6258 14.9245,0 13.8484,-0.6677 7.9261,1.2484 19.0361,0.9 -7.7046,-1.5097 -0.4706,-0.2032 11.0592,-0.4355 -2.061,-1.829 7.522,-0.2322 14.694,-0.4355 -1.655,-1.0451 -0.196,-1.7129 6.303,-1.8 0.062,0.7839 4.57,1.0452 11.767,0.9 -0.366,-0.6677 -16.413,-1.4226 -0.749,-1.3645 7.624,0.6387 8.46,2.1484 20.173,2.2645 3.315,1.3645 -10.09,0.842 -6.402,2.2355 8.727,-1.3355 12.229,-0.2903 26.243,0 -6.918,-2.5548 25.742,-3.3387 8.701,-4.5 4.76,0.0581 10.185,-1.8581 14.633,-0.4645 -4.902,0.3194 4.886,1.5097 4.693,1.8 6.394,-0.2613 22.161,0.5516 21.932,-0.4355 -13.979,0.3484 -14.754,-0.9581 -19.613,-1.8 20.24,-0.7839 38.755,-0.2032 38.261,1.3645 -0.284,-0.4645 2.571,-0.5516 3.066,-0.929 -7.127,0.2323 -13.244,-2.0613 -5.002,-2.2355 -0.946,1.4226 5.479,1.829 12.271,2.2355 -0.462,-1.3355 28.027,0.6387 21.692,-1.3355 -10.188,1.1323 -20.223,-0.9871 -12.382,-1.8 7.659,1.2194 23.025,1.9742 20.493,3.1355 3.72,-0.4355 7.076,-0.871 10.41,-1.3355 2.447,-1.2774 -5.825,-1.1613 -5.079,-2.2645 5.496,0.0871 13.67,-0.1742 15.172,0.4645 -14.782,0.1452 8.13,0.7839 -6.461,1.8 9.386,-0.0871 12.075,0.6968 19.474,0.9 -0.304,-0.4645 2.545,-0.5516 3.043,-0.9 -6.007,0.8129 -13.037,0.0581 -12.145,-1.3645 13.255,-0.2613 12.164,1.3935 23.403,1.3645 2.612,-0.9871 16.606,-2.8451 24.928,-1.8 -14.933,-0.0871 1.542,0.6678 -6.719,1.3355 -14.033,-0.9 -16.698,0.5516 -20.958,1.8 6.316,0.7548 17.958,1.3064 18.243,-0.4355 -7.364,-0.1451 -6.86,0.6097 -10.665,0.9 -0.197,-0.8419 1.538,-1.5097 6.429,-1.8 6.838,0.9871 19.916,-0.0871 12.112,1.8 8.878,-0.8419 20.394,0.5807 29.509,-0.4355 -11.023,-0.1742 -19.375,-0.6967 -23.395,-1.8 8.679,-0.5806 18.836,0.9871 18.517,0 -1.93,-1.2193 -16.166,-0.8129 -19.741,-1.8 10.65,-1.3935 31.099,2.4678 14.551,-0.4645 6.708,0.2613 15.754,0.2323 19.123,0.9 -7.881,0.1452 2.106,1.9742 5.579,2.2645 6.861,-0.058 12.125,-0.3193 14.255,-0.9 -10.141,0.5516 -19.431,-1.3064 -12.216,-1.3645 2.367,0.7839 3.848,-0.2032 6.928,-0.4645 1.321,0.8419 12.902,0.2903 15.536,0.929 -1.204,-0.6677 -6.728,-0.7838 -8.23,-1.3645 6.578,-0.4355 15.303,-2.4097 21.783,-0.4645 -4.288,0.0871 -10.555,-0.0581 -10.542,0.4645 20.659,1.9742 28.043,3.629 51.585,4.5 -2.844,0.0871 -4.082,0.3774 -2.966,0.9 14.659,0.1452 24.645,0.8419 23.55,1.8 8.926,-0.2322 13.037,-1.0451 17.188,-1.8 -10.032,-0.7548 -12.333,0.5226 -18.88,-0.4355 3.417,-0.2903 -9.305,-2.7 -13.974,-3.6 -14.956,1.3645 -17.765,-0.958 -33.386,0 3.652,-1.4516 -12.228,-0.3484 -8.567,-1.8 16.764,2.0904 30.094,0.4936 52.873,1.3645 -2.047,1.1323 -3.888,2.0613 5.677,2.7 14.684,0.6678 6.315,-1.2483 18.203,-0.9 5.595,1.1323 -1.109,1.3936 5.021,1.8 3.549,-0.5806 14.565,-0.4354 19.245,0.9 -15.434,-0.2032 3.798,1.1323 -5.874,1.8 5.075,-0.029 8.17,0.2033 11.63,0.4355 -16.195,-1.6258 13.389,-1.9451 1.174,-3.1355 20.143,-0.7258 4.153,3.4259 21.042,3.1355 -9.136,-0.958 1.274,-1.5967 13.856,-1.3355 4.425,1.4226 17.362,1.6549 28.038,2.2355 -6.32,-1.0451 -10.303,-1.0161 -1.477,-1.8 -5.572,-0.5806 -14.305,-0.5806 -18.565,0 -0.495,-0.6096 -2.619,-0.9871 -5.107,-1.3645 12.154,-0.2613 6.52,-0.929 10.188,-1.3355 4.132,0.6097 13.198,0.5807 16.001,1.3355 -0.359,-0.4355 2.842,-0.5226 2.894,-0.9 -15.751,-0.1451 0.985,-1.8871 -9.106,-2.2355 -6.851,0.0581 -1.328,1.4807 -10.168,1.3355 -9.768,-1.7419 5.454,-1.771 8.69,-3.1355 -8.155,-1.1032 -15.346,0.7549 -19.227,-0.9 8.122,-1.5967 24.22,-0.5226 36.976,0 -2.293,-1.8871 21.031,0.4355 20.932,-1.829 2.277,0.5516 4.868,1.0452 8.401,1.3645 2.364,-1.4806 8.032,0.4936 11.632,0.4645 -0.333,-0.8129 -1.941,-1.4226 -5.186,-1.829 15.861,0.7548 19.459,0.7258 36.938,0 3.661,0.871 7.61,1.6548 10.003,2.729 -4.174,0.2033 -7.936,0.4645 -10.458,0.9 24.805,0.1452 5.525,-3.629 24.917,-1.3645 -1.369,-0.7258 -14.735,-2.3226 -6.016,-2.7 17.1,1.7129 37.758,0.1161 40.587,4.0355 14.931,1.2484 22.023,-1.3065 30.186,0.4645 4.275,-0.0871 5.323,-0.5226 6.76,-0.929 -5.106,-0.8129 -11.188,-1.5097 -16.93,-2.2355 -7.722,0.6677 -12.513,-0.6097 -2.734,1.3645 -12.17,0.1742 -16.304,-0.7839 -23.353,-1.3645 16.1,-1.0161 32.85,0.2613 31.671,-1.8 6.545,0.8129 11.781,1.771 17.357,2.7 0.892,-0.9871 19.655,-1.4516 22.476,0 -13.459,-0.4355 -25.276,1.2774 -12.742,2.2645 30.944,-1.0451 51.185,1.5097 78.041,0 1.382,0.6678 0.171,1.6549 5.372,1.771 -0.771,-0.7839 -0.253,-1.3645 2.251,-1.771 8.636,0.1416 14.204,0.6697 25.346,0.4535 0,-0.2676 -0.011,-0.5394 -0.017,-0.8156 1.306,1.964 2.293,1.2742 2.7,-4.3761 -1.365,-4.6127 -4.094,-17.8719 -3.6,-23.6771 0.058,6.5929 1.771,-0.5958 1.8,-5.2172 -1.917,2.5105 1.509,-29.7494 -0.436,-20.8191 -0.029,-13.8996 0.697,-19.5349 1.365,-19.5797 -0.262,-5.113 -0.668,-8.9287 -0.929,-13.9998 2.003,-2.3722 0.493,-27.138 1.364,-30.3809 -0.697,8.2649 1.51,10.3156 1.365,3.5203 -1.046,-4.8322 -2.178,-26.9161 -1.8,-30.9527 0.522,1.2863 1.829,2.8547 2.235,13.6878 0.261,-18.3736 -1.858,-18.0819 -3.164,-23.8727 1.916,0.3233 0.319,-7.7057 0,-10.2827 0.929,-5.9195 0.58,0.1823 1.8,-0.4675 0.203,-6.4499 0.987,-9.0612 0.929,-17.5049 -1.51,2.9272 -0.726,-6.7897 -0.465,-10.2779 -0.987,-0.8814 -1.597,-5.2594 -1.8,-12.8117 2.381,9.1543 2.555,-45.546 0.9,-31.3389 -1.248,-9.6303 1.597,-12.1209 1.365,-25.4577 -0.261,-0.583 -0.391,-1.778 -0.477,-2.9082 -0.192,-2.7475 -0.167,-5.1405 -0.888,0.8878 0,0 0,0 0,0 -11.865,0.3193 -3.133,-1.5678 -17.86,-0.9291 4.454,1.7129 -13.702,-0.4064 -12.607,1.8291 -3.681,-2.5549 -18.382,0.7548 -28.296,-1.3646 -0.406,0.4355 -3.735,0.5226 -4.807,0.9 -2.395,0.6387 13.39,1.1033 2.724,1.3355 -11.675,-1.0161 -4.42,-1.4516 -5.501,-2.2355 -34.538,0.6678 -75.118,0 -110.887,-0.4354 3.826,0.6387 3.093,1.1032 -4.668,1.3354 -8.361,-2.7 -51.677,-1.3645 -58.852,-0.4354 -2.7,-1.771 -25.608,-0.0291 -28.979,-0.9 4.235,0.1451 13.564,-1.3065 4.557,-1.3646 -7.004,1.771 -13.783,0.5807 -23.275,1.8 -3.162,-1.7709 -30.771,0.1162 -17.038,-2.7 -5.072,0 -7.841,-0.2032 -10.575,-0.4645 -1.426,1.6839 -6.707,1.4516 2.183,2.2645 -23.515,-1.1613 -30.163,0.2613 -47.921,-0.9 -3.726,0.8129 10.323,1.5097 -1.028,1.771 0.169,-0.2903 0.337,-0.5806 0.523,-0.9 -3.96,-0.029 -5.807,0.6677 -7.231,0 1.139,-0.7258 7.189,-0.5516 8.529,-2.2355 -9.393,0.5807 -14.472,-1.3355 -18.486,0 12.57,0.2032 2.448,2.7291 -4.382,1.3645 7.317,-0.7838 -29.344,0.0581 -41.352,0.9 -4.969,-1.6258 12.805,-0.2903 11.918,-1.3645 -21.883,0.3194 -19.755,-0.3193 -23.125,1.3645 -11.359,-0.4354 -15.256,-1.3645 -29.43,-0.4645 -7.669,-0.6387 5.217,-1.1032 -3.007,-1.3355 -5.268,0.4355 -7.793,1.2194 -15.441,1.3355 -18.647,-2.9903 -67.198,1.771 -88.071,-2.7 8.688,1.1032 -3.552,1.9452 -15.452,1.8 -0.558,-0.5226 1.134,-1.2774 -3.19,-1.3645 0.413,0.9871 -3.717,1.4516 -11.656,1.3645 -0.566,-0.5226 1.112,-1.2774 -3.213,-1.3645 -3.761,1.6839 -13.072,0.0581 -19.116,0.929 -2.114,-1.5387 13.988,-0.7548 15.383,-1.8 -18.971,-0.9871 -22.671,0.6097 -37.028,0 7.661,-0.1451 -5.103,-1.3935 -7.186,-1.8 2.873,1.6258 -8.875,2.1775 -0.762,3.1355 -5.423,-0.058 -13.813,0.1742 -14.763,-0.4355 2.922,-0.0871 7.623,-0.029 7.725,-0.4645 -6.96,0.2903 -15.319,-1.3064 -18.868,0 4.673,0.2032 7.491,0.5807 7.317,1.3645 -1.932,0.5517 -4.205,1.0162 -7.898,1.3646 11.273,-3.4839 -19.897,-1.8871 -21.889,-0.9291 -2.496,-2.1774 -4.311,-2.1774 -3.046,-3.1355 -13.053,-0.1742 -11.498,1.3646 -19.188,1.8 2.438,-1.5967 5.185,-2.8161 -6.701,-3.6 2.263,1.8291 -12.231,1.5387 -8.167,3.6 -30.885,0.5517 -37.199,-1.5096 -55.738,-1.3645 -0.405,0.5226 5.388,0.6968 -0.072,0.9 -8.678,-0.4355 -16.267,-0.9871 -22.036,-1.7709 -4.781,1.1032 1.738,1.3935 -3.726,1.7709 -13.7412,-1.3355 -10.41,-2.9032 -22.3954,-4.0355 -14.9541,1.1033 -9.4817,0.2904 -18.5972,1.8 4.0007,0.0871 9.084,0.7258 3.6306,0.9 -9.0882,-1.2774 -12.738,-2.8451 -14.9285,-3.1645 6.5648,-0.029 11.6704,0.1162 14.9497,0.4645 2.1967,-0.929 11.3188,-0.9 3.6668,-1.8 9.4884,0.3775 20.0697,0.5807 33.948,0.4355 -4.6802,-1.4516 12.071,-0.3484 7.408,-1.8 -15.3794,0.3484 -18.9984,-0.6677 -33.6479,-0.4355 3.2557,1.5678 -12.084,0.7549 -15.0085,0.4355 -0.003,0.9 -10.2389,0.5807 -7.6735,1.8 -11.312,0.3194 -10.9665,-0.7838 -22.2838,-0.4355 -0.7478,-0.5516 0.6926,-1.2774 -3.7,-1.3645 -3.965,1.5097 -7.7041,-0.4935 -11.3618,-0.4355 2.6296,1.5097 -13.8628,0.7258 -14.8905,1.8 4.3868,0.0581 10.5883,-0.0871 11.346,0.4355 -18.265,-0.1451 -3.581,1.2484 0.1173,2.2645 -0.7604,-0.6096 5.7137,-2.4967 7.2236,-1.3645 -15.249,1.1323 21.562,2.3226 7.7215,1.8 -11.6622,-0.3193 -10.882,0.7839 -22.5395,0.4355 -14.0122,-2.4677 2.3274,-3.8032 -11.7059,-5.8355 -8.3265,1.1613 -14.1991,0.9291 -14.8124,2.2355 -1.8775,-0.5516 -4.1176,-1.0452 -7.4406,-1.3645 -3.5718,0.8419 11.106,1.5097 0.178,1.8 -5.8754,-0.3194 0.5138,-2.2065 -11.5195,-1.8 -4.9887,1.1322 14.7695,1.4226 3.8523,1.8 -11.9396,-2.1194 2.6257,0.6677 -10.8449,0.9 -1.1365,-0.3484 -3.3473,-0.5226 -7.7154,-0.4355 -0.8165,-0.6677 0.8835,-1.6548 -3.8886,-1.8 -2.2398,2.3516 -5.2523,-0.9581 -15.0618,-0.4645 -5.2198,1.7129 10.3645,0.871 7.6382,2.2645 -11.5682,-1.6548 -17.8381,0.2613 -22.2594,0 8.936,-1.1903 -14.4072,-0.9581 -15.3787,-2.2645 2.8559,1.6258 -2.3979,0.871 -14.9087,2.2645 -1.2535,-2.5839 -15.4981,-0.7839 -19.2127,-2.7 -1.6864,0.6387 -5.2308,1.1323 -6.9041,1.8 4.3966,0.0581 8.7925,0.1161 7.5065,0.9 -3.6491,0 -7.2982,0 -11.3122,0 -6.4716,-1.1032 8.965,-3.9484 -15.8725,-3.6 3.3882,1.829 -7.1624,2.0323 -13.9279,2.7 1.1523,1.5677 9.8552,-0.029 11.1901,0.9 -8.114,1.0452 -17.207,-0.2032 -22.5139,-0.9 -14.4114,0.6677 -31.8352,-0.1742 -52.4516,0.4355 -5.1304,-1.1032 17.1782,-1.0742 3.0416,-1.8 -5.8336,0.0581 -2.5298,1.1613 -10.6494,0.929 5.2693,-5.9516 -56.7639,-1.1613 -61.8133,-3.6 -2.0655,1.1903 -20.3314,0.4936 -17.7291,2.2355 11.5207,-1.3064 20.7162,0.5226 26.9154,1.3645 11.0173,-0.7838 -10.8222,-1.3935 -0.74,-1.8 1.4675,0.9 16.5139,0.0871 15.541,1.3355 -16.0411,0.1161 8.9236,1.3355 -2.5698,2.729 -15.078,-0.3193 -43.911,1.2484 -37.7506,-0.4645 0.2049,0.4645 6.804,0.5516 7.2943,0 -17.0787,-0.6677 -26.4225,0.4355 -32.9109,1.3645 -8.1626,-1.0742 -37.0593,0.871 -29.86,0 -3.1687,-1.2193 17.9981,0.3194 14.4906,-0.9 -31.258,-0.5225 -31.4088,0.5807 -52.381,-0.4645 7.4434,1.6258 -20.1387,2.4097 -17.94,1.8 -0.7772,-1.3645 -7.5769,-2.4097 -19.0939,-0.9 0.9842,-1.4226 -5.8443,-1.858 -12.6442,-2.2355 -2.1643,1.2484 6.1729,1.1613 5.3574,2.2355 -6.1938,0 -12.7519,0 -18.9457,0 -0.707,-0.5516 -0.0633,-1.2774 -4.4962,-1.3645 -6.4004,0.8419 -30.7096,2.1194 -29.023,1.3645 9.4011,-1.8 -18.1487,-1.5097 -1.7798,-2.7 -4.7703,-0.029 -5.5026,-0.5806 -11.6416,-0.4645 0.4098,0.6097 0.8195,1.2194 1.2098,1.8 -13.7467,0.1742 -8.3942,-2.1484 -20.1603,-2.2355 -0.6539,0.6387 -5.6906,0.7549 -6.7247,1.3645 4.7283,-0.029 4.7096,-0.5806 11.0033,-0.4645 -5.3854,2.2355 13.2489,1.2194 13.1554,2.7 -12.9557,0.2323 -13.899,-1.1322 -19.8369,-1.8 -15.7428,0.9581 -8.4541,0.4355 -26.2865,0 0.4225,0.5807 5.2074,0.6387 4.638,1.3645 -21.4895,-0.4645 -21.3777,-3.2516 -35.2388,-2.2354 3.179,-0.1452 15.5395,-1.2194 6.2811,-1.3646 -9.3943,0.6387 -11.2278,2.0613 -24.2373,2.2355 -1.1397,-0.5226 -0.6118,-1.2484 -5.0677,-1.3355 -5.0699,0.5226 -4.513,1.6839 -9.1809,2.2355 -1.6525,-0.6968 -8.6235,-0.2903 -11.3061,0 -5.668,-1.1322 0.6935,-1.3935 -5.4836,-1.8 -10.9157,0.0581 -14.1634,3.1645 -23.6606,2.7 -1.1598,-1.8 -10.859,-1.1903 -19.7276,-0.9 -2.9753,-1.7419 -22.0327,-1.3935 -35.1868,-1.8 4.1833,1.3936 -9.4327,0.871 -5.236,2.2645 6.1705,-0.029 9.7665,0.3194 11.7484,0.9 -14.4324,0.1452 -21.4592,-2.729 -30.2954,-0.4645 -6.3964,-0.9871 -14.1,-1.8 -24.3767,-2.2355 -0.3402,0.7839 18.8467,1.3936 9.0232,1.8 -1.2559,-0.5516 -4.2881,-0.2903 -7.2904,0 0.007,-1.5096 -8.4203,-1.9161 -13.9342,-2.7 -7.68821,1.1033 -27.90746,-0.8419 -17.75084,0.9 -1.02597,0.022 -1.93629,0.0283 -2.7472,0.0213 -0.08573,9.7152 -2.17621,0.6108 -2.25673,10.3524 1.94516,-3.5967 2.06129,14.7043 3.13548,6.6252 0.40645,14.4984 -2.00323,11.2445 -2.7,4.7651 -0.37742,12.8379 0.84193,16.8225 0,22.6784 1.39355,-5.0148 2.17742,15.6309 1.36452,4.7903 -1.48065,-4.5222 -0.63871,11.5108 -1.36452,13.8645 1.04516,-3.9241 1.01613,2.9786 1.8,-5.8687 0.37742,10.1062 0.55161,24.7544 -0.9,32.8252 0.87097,12.9618 0.92903,24.6314 -0.46452,18.3071 0.31936,11.8746 0.31936,7.4966 0,18.9924 0.46452,0.2605 0.55162,-2.9717 0.92904,-3.4839 0.02903,16.0346 -0.9,12.265 -0.92904,33.4334 -1.74193,-3.3707 -1.65484,10.2601 -2.7,13.8745 0.14516,-8.783 0.55162,-15.5956 0.9,-22.4171 -0.75484,-1.8396 -1.13225,4.9845 -1.33548,-0.6474 0.49355,-0.4978 0.69677,-3.7133 0.9,-6.9242 -1.33548,12.9978 -2.38065,-19.021 -0.9,-8.2108 -0.29032,-0.1556 -0.55161,0.4441 -0.46452,3.4483 1.39355,-1.8465 0.87097,-2.1246 2.26452,1.1853 -0.43548,-7.2094 1.33548,-11.7191 0,-15.043 -0.60968,0.0174 -0.43548,6.7313 -0.9,7.2114 -0.84194,-17.8081 1.77097,-4.1503 1.33548,-17.952 -1.53871,-3.8878 -1.88709,2.9011 -2.7,5.7423 -0.14516,-12.662 -0.05806,-23.3313 0.9,-26.0111 -0.52258,-11.8005 -1.13225,-0.0262 -1.8,-8.635 0.60968,-3.6432 1.68387,-2.506 1.8,-10.1638 -0.63871,-8.969 -1.10322,3.9931 -1.33548,-4.6913 0.87097,-8.5739 1.91613,7.6963 2.23548,-6.0344 -2.11935,1.6804 0.29033,-12.2559 -0.9,-12.1277 0.23226,8.2928 -1.77096,6.71 -0.46451,3.6813 1.88709,-16.8247 -3.19355,-34.2858 0,-49.4704 -0.43549,-0.4228 -0.52258,-3.466 -0.9,-4.5768 -0.95807,12.8034 -1.04516,33.1601 -3.16452,35.0616 0.46452,11.6078 1.77097,11.1893 2.26452,13.453 -1.68387,11.6967 -2.00323,10.3278 -4.06452,0.8186 -0.31935,-22.4932 0.8129,-30.8867 1.36452,-45.0024 -1.04516,-8.8983 -0.52258,0.2507 -1.36452,2.4589 0.25697,-7.3586 0.35523,-12.6282 0.3424,-16.3816 18.26853,-0.064 -5.90922,-2.8923 7.6412,-2.5779 0.37594,0.7548 4.07975,1.1323 8.71972,1.3355 -0.59759,-0.6097 6.26429,-0.4065 6.8953,-0.9 -3.04773,-0.0871 -4.81277,-0.3774 -4.58157,-0.9 10.67449,-0.4645 7.62869,0.9871 9.15559,1.8 -8.65128,-0.1452 -13.97355,0.0871 -14.28322,0.9 10.43921,-0.6678 20.17572,0.6097 25.75262,-0.9 12.2204,1.9742 -1.7849,3.9193 5.1533,5.4 -0.8112,1.0742 3.7447,-3.4258 11.2675,-4.0645 13.7757,0.1161 12.7808,-1.3645 25.3606,-1.3645 4.6414,1.4516 -11.9913,0.6387 -9.7868,1.829 3.6657,-0.029 4.7496,0.3484 8.1507,0.4355 8.7263,-0.1452 6.8618,-1.3936 13.5212,-1.8 4.9126,1.3645 6.4322,0.5806 11.094,0 9.0624,0.6387 -3.8286,1.1032 5.2647,1.3645 9.5075,0.3193 14.5547,-1.5387 17.6627,-1.3645 1.2113,0.5516 0.3549,1.2774 4.8603,1.3645 9.8788,-0.9871 12.4177,-1.0452 -1.5579,-1.829 12.0344,0.2322 16.7053,-0.3775 13.6672,-1.8 -17.9445,-0.1742 -22.1696,0.0871 -31.9396,-1.771 -2.0259,1.5097 -8.2125,0.3774 -15.2307,0 6.1845,2.3806 -7.7231,0.0871 -10.3154,1.3355 4.6587,0.2322 9.3408,0.4935 12.3217,0.929 -19.0291,-0.1452 -18.8954,-0.4064 -32.4524,1.771 -0.5636,-0.6097 -2.7635,-0.9871 -4.938,-1.3355 4.2251,-0.6387 18.3333,-0.2032 17.6502,-1.3645 -12.2781,-1.6549 -13.6081,0.929 -27.55,-0.9 -4.2125,1.0451 11.5843,1.6838 1.687,1.8 -5.6929,-0.9291 -12.7157,-1.6839 -21.0406,-2.2355 -7.91977,0.2613 -11.35564,0.929 -17.60865,1.3645 -1.28273,-0.5516 -2.53788,-1.0742 -8.7075,-0.929 0.91634,0.5516 7.70869,1.0451 1.34883,1.3645 -3.90857,-0.3131 -7.58811,-0.6102 -11.107,-0.8826 -1.24337,14.0346 -1.97208,25.6818 -1.3529,43.1945 0.40645,-6.913 1.91613,-21.9376 1.8,-14.0574 -0.9,8.341 0.84193,22.3856 -0.43549,30.8426 -0.49355,2.6557 0.49355,-11.0131 -1.82903,-9.5179 0.14516,9.3135 -0.05806,14.9002 -0.43548,19.2105 0.9,0.6898 0.58064,11.1701 1.8,9.3915 0.14516,-7.5193 -1.50968,-11.086 -0.9,-12.5281 3.83226,9.4086 -1.24839,27.8424 -1.36452,42.3678 0.60968,9.9786 1.36452,-6.3995 1.8,4.9695 0.60968,7.2455 -2.6129,9.1553 -3.13548,-1.9616 0.66774,-6.9005 -1.10323,-11.1495 0.43548,-11.6769 -0.11613,-3.162 0,-7.7093 -0.43548,-8.0094 -0.11613,5.3261 -0.9871,3.5793 -1.36452,6.8138 0.23226,-7.5941 -2.46774,-10.6272 -0.9,-16.5398 0.0871,4.7269 0.49355,6.5645 0.9,8.7856 -0.43548,-21.6538 0.75484,-27.3269 1.36452,-38.8182 -0.9,5.8454 -0.58065,-0.8615 -1.8,-1.4716 0.34838,9.5924 -0.52258,26.4069 -0.92904,15.2062 1.77097,-5.6123 -2.6129,-14.9605 -0.9,-20.6068 0.11613,5.5618 0.9871,5.4909 1.36452,8.9091 0.14516,-8.0447 1.21936,-6.7645 1.36452,-14.7737 -1.20443,-16.2454 -0.44628,-28.6188 -0.20437,-44.8869 11.47838,0.172 24.37904,0.0829 39.79299,-1.1602 13.8554,0.029 -12.11636,0.6097 -9.8446,1.8 4.10279,0 5.18384,0.3484 8.25,0.4355 -1.157,-1.5968 7.1384,0.058 10.294,-1.3355 0.5996,1.4226 18.0286,0.1161 28.1044,1.3355 -0.1055,-0.5226 -1.9162,-1.2774 2.5108,-1.3355 29.6371,1.8581 78.2523,-0.6387 100.4062,0.9 -1.6528,-1.1323 7.7065,-1.1032 9.7718,-1.8 13.6786,0.2903 8.5153,1.3355 26.9087,0 9.5002,-0.2903 -1.1188,0.9871 -2.7201,1.3355 28.6419,-0.6387 54.9719,0.6967 72.1567,-0.9 9.0081,-0.4936 0.6914,1.0161 19.9505,1.3645 -0.9658,-2.0323 30.8107,0.9581 33.4672,-1.3645 11.4035,-0.2903 33.8904,2.3806 23.4364,0.4645 15.5972,-0.1452 6.2533,1.7419 12.6049,1.771 10.7066,-0.1742 -5.3434,-3.3968 5.4036,-3.571 -0.2543,1.5097 8.7385,0.9 16.5827,2.2355 -8.6488,-0.1162 -14.1308,0.0871 -14.7838,0.9 6.98,-0.842 7.231,0.2613 19.0128,0 8.4904,-0.842 33.6413,-2.0033 42.1263,0 0.0503,-0.6387 -2.3649,-0.9871 -4.4232,-1.3645 7.3655,-0.2033 17.1127,1.3935 15.0936,-0.4355 17.1559,-0.0581 25.3562,1.5097 34.3666,0 7.2252,-0.5516 -1.9647,1.4226 20.0146,1.3645 -0.1913,-1.3065 38.7117,-1.1613 49.6065,0 -0.3376,-1.8871 2.5783,-0.0871 7.4596,0 0.5431,-0.5516 -0.8443,-1.2774 3.6061,-1.3645 0.9475,0.5516 4.2134,0.2903 7.471,0 -1.8132,2.2355 13.9877,-0.6097 15.6203,0.9 -3.3089,0.1451 -2.9411,1.2193 0.462,1.3645 0.5792,-1.5968 17.3995,0.8129 15.1368,-0.4355 -3.5156,-0.4935 -14.2149,-0.1452 -11.6393,-1.3645 14.75,-0.5807 9.3838,1.3064 19.4679,1.3645 -0.9186,-0.5516 -7.0449,-1.0452 -0.4268,-1.3645 10.5414,0.2903 0.8192,0.2322 7.8825,1.3645 5.4966,-0.3193 15.2739,-1.3355 18.9992,-1.3645 -1.1201,0 2.4761,0.8419 3.9842,0.9 19.917,0.5806 64.316,-1.0161 84.0871,0.9 1.3788,-0.6097 5.4388,-0.8419 3.7796,-1.771 11.7096,0.8129 10.8855,0.3484 22.9132,0.9 -0.0943,-0.6097 -0.1887,-1.2193 -0.2785,-1.8 15.2226,-0.7258 1.7926,1.9452 11.8406,1.8 0.6781,-3.1355 6.097,0.9581 15.4039,0.9 1.0425,-0.6097 5.4858,-0.8709 3.8823,-1.8 14.5635,0.0291 14.0387,2.1484 26.6284,1.3355 -2.9987,-0.1742 -5.65,-4.471 -4.2806,-5.8355 2.3102,0.6387 6.1006,1.1032 11.741,1.3355 -6.6195,1.3936 -2.4362,6.5903 15.6825,4.9645 -10.0402,0.2613 -13.8,-0.1742 -11.6564,-1.3645 13.7998,-0.1161 18.706,0.8419 30.6385,0.9 1.8051,-1.4226 -6.7901,-1.5677 -3.8772,-3.1355 2.9889,-0.0871 4.473,-0.3774 3.7018,-0.9 12.7397,0.2613 13.1442,1.3065 26.9677,0.4355 0.0113,0.8419 -2.9782,0.9581 -7.8504,0.4355 0.7724,1.1322 0.7953,2.2064 -7.413,2.2645 -1.1453,-0.8129 3.672,-2.2645 -7.9071,-1.8 0.0296,0.7548 0.0593,1.5097 0.0878,2.2355 8.5811,0.0871 28.7274,1.1032 30.5867,0.4355 -4.1059,-0.5226 -10.8252,-0.8129 -7.4861,-2.2355 14.5745,0.3774 18.6718,2.0032 30.59,2.7 20.8838,-0.4065 57.7611,-0.0871 53.4621,-2.2355 12.646,0.5807 8.161,0.6387 19.332,0.9 -3.215,-1.4516 12.759,-0.6097 11.775,-1.8 -13.875,0.4065 -9.727,0.0581 -23.224,0.4645 0.449,-0.8419 2.755,-1.5097 8.025,-1.8 0.671,0.7839 6.259,1.0162 15.249,0.9 -1.463,-0.2903 -9.545,-1.7419 0.207,-1.8 0.71,0.3484 2.937,0.5226 7.444,0.4355 -0.094,0.7548 -0.187,1.5097 -0.28,2.2645 -5.283,0.4355 -11.665,0.7258 -15.464,1.3355 3.732,0 4.436,0.3774 7.786,0.4355 2.33,-0.7839 17.896,0.0581 19.145,-0.9 -6.366,0.1452 -10.378,-0.6097 -3.615,-0.9 1.09,0.2322 11.485,0.6968 15.323,0 -13.361,-0.6968 -8.112,-0.7839 -15.028,-2.2355 15.414,-0.3484 12.901,1.4516 30.573,0.9 0.191,1.1032 0.012,2.1774 -4.553,2.7 10.729,2.671 37.286,0.1452 45.8,0.4645 -5.926,-0.2032 -13.01,1.6549 -4.106,1.8 0.127,-0.6097 6.794,-0.4355 8.019,-0.929 3.551,-2.5839 -4.013,-3.9194 -10.446,-5.4 7.098,0.1161 8.727,-0.4936 15.466,-0.4355 2.042,0.929 -5.516,2.9613 3.035,3.1645 2.365,-2.1774 16.127,-0.2322 19.505,-1.8 -6.02,0.1162 -9.967,-0.6097 -3.526,-0.9 -1.37,1.0162 11.119,0.4936 11.278,1.3355 -10.262,0.6387 -13.175,1.8581 -19.511,1.8 7.809,0.1452 -6.254,1.2194 7.139,1.3645 6.2,-0.929 9.525,-2.2645 23.725,-2.2355 5.163,0.2613 -0.095,1.742 6.98,1.8 -1.483,-1.3935 13.925,-1.6838 4.235,-0.4645 5.227,0 8.155,0.2032 11.064,0.4645 -7.098,-1.2774 29.746,-3.1064 24.436,-4.0645 -0.613,1.9162 0.724,3.571 2.431,4.0645 7.62,-1.5967 15.418,-0.3483 34.871,-0.4645 -0.116,-1.7419 3.04,-0.1451 11.364,-0.4355 1.79,-0.7838 -5.174,-1.1613 0.512,-1.3645 9.095,0.6678 9.458,0.6968 11.067,1.3645 6.735,-0.029 11.918,0.0871 15.138,0.4355 0.621,-0.6097 -1.468,-0.9871 -3.197,-1.3355 25.125,1.5678 39.376,-0.2613 61.32,0 -9.028,-0.6967 -11.908,1.5097 -4.361,1.3355 4.576,-0.2032 8.807,-0.4645 11.63,-0.9 -4.615,-1.3064 -2.741,-0.5226 8.061,-0.4355 10.01,-0.5806 -2.674,-2.2064 4.85,-2.2645 7.855,0.7839 2.685,1.3936 6.973,1.8 3.741,0 7.856,0 11.597,0 -6.713,-0.7838 1.448,-1.3645 8.419,-1.8 -5.696,1.5968 -2.868,1.9162 10.892,1.3645 1.077,0.7839 -6.227,1.1613 -0.729,1.3646 2.896,0.1741 14.426,-1.771 23.056,-0.4646 -3.055,0.1162 -4.696,0.3775 -4.238,0.9 10.66,-1.0161 17.394,0.9291 26.095,1.3646 -8.3,-1.1323 -2.821,-2.2065 -6.025,-3.1355 8.251,1.2484 20.027,-0.3194 26.137,1.3355 -12.856,-0.3775 -2.027,2.729 6.187,2.7 2.723,-1.3936 -11.311,-1.0162 -6.187,-2.7 5.159,-1.1033 13.996,0.929 19.333,-0.4355 -0.22,-0.842 -6.145,0.2613 -7.19,-0.4645 7.162,-0.0871 -1.797,-0.7259 4.302,-0.9 2.797,1.5096 8.176,-0.4936 11.885,-0.4355 4.628,0.3774 13.431,2.3806 18.228,1.3355 0.382,-0.5807 -6.469,-0.4065 -6.897,-0.9 21.556,-0.871 26.526,1.1903 46.364,-0.4355 1.798,0.6387 5.213,1.1032 10.66,1.3355 0.185,-0.7839 3.805,-1.1323 8.446,-1.3355 7.754,0.6677 15.453,1.3935 25.621,1.8 -2.719,1.1322 -8.027,1.7419 6.109,1.8 1.144,-0.5226 -4.698,-0.6968 0.684,-0.9 -0.176,0.2322 2.985,0.4935 4.109,0 0.244,-0.3194 0.466,-0.6097 0.688,-0.9 -4.113,0 -7.851,0 -11.59,0 0.985,-0.8129 0.32,-1.4226 -2.371,-1.8291 17.282,-0.5516 14.069,2.1775 25.878,0.9291 0.219,2.1193 3.52,2.6709 -6.863,4.0355 9.937,-0.3194 17.244,-1.0742 20.777,-2.2355 -11.715,0.1742 -6.68,-1.4807 -9.457,-2.2355 7.397,0.1161 7.971,-0.6097 11.948,-0.9 7.828,0.9871 -10.931,2.4677 5.703,2.7 -11.354,-1.7129 11.623,-1.4226 19.8,-0.9 -0.97,-0.6387 -3.87,-0.7549 1.125,-1.3645 23.569,-0.842 17.706,3.8613 33.29,1.3645 -1.898,0.9 4.455,0.9 6.666,1.3645 -11.554,0.4065 -14.764,0.6677 -19.814,0.9 0.326,0.4936 3.509,0.6968 6.69,0.9 0.723,-0.8419 3.808,-0.9581 8.205,-0.4355 4.09,-0.8419 4.738,-2.8742 14.765,-4.0645 0.263,0.5516 -1.498,1.2774 2.914,1.3645 5.147,-1.1613 -5.412,2.3226 13.713,1.8 -2.89,-0.5226 -4.134,-1.2193 -1.727,-2.2355 9.509,-0.5806 7.058,0.0581 19.513,-0.4645 2.348,2.3226 -10.666,2.671 -15.289,4.0645 8.546,-0.3774 16.624,-1.858 23.949,-0.9 -5.699,-0.6967 1.785,-1.9161 9.591,-2.2645 6.458,0.2903 -2.393,2.1484 5.706,2.2645 6.732,-0.4064 11.234,-1.5967 5.889,-2.2645 13.737,0.4936 11.913,-1.1032 23.698,-0.9 -0.449,0.842 -3.929,0.9581 -7.939,0.4645 0.241,0.5226 -1.958,1.2484 2.442,1.3355 6.035,-0.797 15.786,-1.0994 24.668,-1.4998 0.197,4.4498 0.419,8.6247 0.735,11.7682 -2.612,20.8803 0.552,40.4704 -0.435,60.2653 -1.452,-7.0077 -0.261,25.0515 -1.8,34.7397 0.435,5.6148 3.368,22.6994 2.235,16.2796 -2.003,2.1675 -1.277,13.1538 -1.8,21.9076 0.465,-0.0604 0.9,-0.1171 1.365,-0.1775 0.232,19.1191 -1.132,23.2691 -2.265,29.4094 0.988,23.1477 -1.074,47.6142 0.465,76.0982 -1.597,6.1121 -1.248,12.4255 -2.235,28.0715 1.393,0.5488 1.335,13.5964 1.335,25.8658 1.248,-1.8367 0.9,9.3912 1.8,10.1938 0.058,-11.1157 1.684,-5.5986 2.235,-10.9966 -1.263,12.5493 0.912,22.0157 0.288,31.4722 -0.974,-0.0638 -2.001,-0.1573 -3.096,-0.287 0.934,-0.053 1.81,-0.1122 2.631,-0.1773 -0.79,-12.8975 -2.445,-18.4506 -4.323,-22.0307 0.162,7.4855 0.153,13.3215 -10e-4,17.7071 -5.694,-0.2058 -9.539,-0.6705 -11.89,-1.3346 -0.098,1.0162 2.442,1.713 6.29,2.2355 -5.177,0 -10.354,0 -15.162,0 -2.253,-0.7838 4.396,-1.1613 -1.348,-1.3645 -3.237,0.4645 -6.846,0.929 -10.116,1.3645 -5.802,-1.3935 4.83,-1.1032 5.622,-1.8 -20.913,-0.6096 -9.292,2.2065 -19.909,2.7 -3.919,-0.9871 -4.59,-2.4387 -14.079,-2.7 -2.799,0.9291 -2.733,2.1484 -13.006,2.2355 -6.908,-0.2613 -1.661,-2.1193 -9.53,-2.2355 -0.583,0.5516 -4.158,0.2904 -7.759,0 1.114,0.7839 -1.855,1.1613 -6.099,1.3645 -1.767,-0.6967 -8.804,-0.3193 -11.461,0 -1.421,-0.7258 -14.789,-2.3806 -16.428,-1.3645 0.54,0.5807 7.029,0.4065 8.229,0.9 -8.636,-0.1451 -14.334,0.0871 -18.422,0.4645 -5.479,-3.1354 -17.248,-0.6677 -36.062,-2.2645 -9.77,1.0452 4.319,2.3226 -8.606,3.1645 -8.994,-0.958 0.701,-1.2774 -2.424,-2.7 -2.346,-0.1451 -15.781,-1.1322 -15.144,0 0.517,0.5807 7.012,0.4065 8.192,0.9 -8.895,1.2194 -9.944,-0.3774 -15.948,-0.9 1.716,1.1033 -4.681,1.3936 -5.418,2.2355 -26.638,0.842 -28.379,-1.5967 -40.411,-2.7 0.499,0.5807 -6.299,0.4065 -6.616,0.9 7.31,-0.5225 18.706,0.6968 8.163,0.9 1.223,-0.7258 -13.997,0.0581 -14.785,0.4355 2.467,0.7258 12.18,0.4065 9.304,1.8 -14.04,0.4645 -10.389,-2.2064 -20.005,-0.9 -1.844,-0.871 4.416,-0.9 6.635,-1.3355 -4.51,-0.0871 -10.671,0.0581 -11.85,-0.4645 5.224,-0.3774 4.316,-1.4516 5.867,-2.2355 -6.403,1.1613 -20.643,0.0291 -9.928,1.8 -15.485,-0.4064 -29.149,0.4936 -17.718,1.8 -11.965,0.2904 -6.521,-1.6258 -15.52,-0.4355 0.19,-1.5677 2.452,-2.4096 -6.645,-3.6 -0.787,0.842 -7.196,1.1323 -5.559,2.2355 -18.079,0.0291 -24.461,-1.4806 -32.816,-2.7 8.338,2.1194 -1.89,0.4065 -9.642,1.8 -5.997,-0.5806 -2.252,-2.3806 -16.548,-1.8 17.378,1.9162 -18.085,0.4645 -9.34,2.7 -19.642,-1.0451 -19.25,-1.0161 -39.082,-1.3645 1.1,-0.9871 5.434,-1.5968 13.762,-1.8 -4.93,1.2774 17.559,1.2484 15.478,0.4645 -0.246,-0.3193 -0.47,-0.6096 -0.694,-0.9 -14.224,0.2033 -24.075,-0.1451 -30.934,-0.929 -2.205,0.9871 -8.428,1.5387 -4.995,3.1645 -14.996,-1.8 -27.566,0.6678 -34.99,-0.9 4.754,-0.058 9.118,-0.1451 7.087,-0.9 -5.234,0.4065 -11.684,0.6678 -10.12,1.8 11.373,0.4065 13.717,0.5807 18.505,-0.4355 -3.985,1.1033 12.457,1.8581 1.653,2.2355 -1.198,-2.1193 -21.782,1.0452 -15.491,-0.4645 11.571,-0.8419 -14.488,-1.1323 -16.309,-2.1194 0,0 0,0 0,0 z M 64.86138,424.8148 c 0.66774,12.5385 2.00322,-1.0023 1.8,-10.0279 -0.40645,2.3396 -1.01613,2.9662 -1.8,2.2853 0.26129,3.7082 0.55161,7.4351 0,7.7426 0,0 0,0 0,0 z m 93.72282,-28.7539 c 2.1674,-1.6258 -15.5298,-0.6097 -23.4716,-0.9 2.5734,0.4065 5.5096,0.8129 0.8473,0.9 9.1647,1.2194 9.8416,-1.1903 22.6243,0 0,0 0,0 0,0 z m 413.0886,-4.9355 c -2.8067,0.2903 -9.9595,0.6968 -11.009,0 -4.3769,0.0581 -2.9308,0.8129 -3.4246,1.3355 -8.6987,0.2032 1.2722,-2.0323 -11.9879,-1.3355 -3.8912,2.6129 24.8923,3.1645 26.4215,0 0,0 0,0 0,0 z m 916.9662,289.2137 c -6.17,-0.871 5.747,-1.9162 1.097,-3.1646 -19.971,0.9871 -2.588,2.671 -31.74,2.2355 2.12,0.3774 4.606,0.7549 4.722,1.3645 12.991,-0.6387 13.322,-1.5967 12.027,0.9 6.183,-0.029 5.321,-2.9322 13.894,-1.3354 0,0 0,0 0,0 z m -273.381,-5.8646 c 2.408,0.3484 4.473,0.7259 4.87,1.3355 8.312,-0.6387 6.303,-0.929 18.267,-0.4355 -2.8,-2.0322 -13.93,-1.829 -23.137,-0.9 0,0 0,0 0,0 z m -708.9656,-3.1354 c -2.5403,0 -5.0806,0 -7.6209,0 2.017,0.8419 -4.4419,2.7 8.166,2.2354 0.6346,-0.3774 -1.5593,-0.4354 -3.7389,-0.4354 2.0667,-0.4646 8.2408,-0.4646 6.9299,-1.3646 -3.2457,0.0871 -3.6724,-0.1741 -3.7361,-0.4354 0,0 0,0 0,0 z m -297.0238,12.6 c 14.5009,-1.4807 -21.4823,-4.6452 0,0 0,0 0,0 0,0 z m 31.7555,15.7354 c 0.416,0.5226 3.7121,0.2613 3.6881,0 12.5826,0.4355 0.4653,1.0452 7.5494,1.8 9.8584,-1.0741 -5.3908,-2.3806 7.4371,-3.1354 -2.6632,-0.842 -11.3012,1.3064 -18.6746,1.3354 0,0 0,0 0,0 z M 1718.222,374.8964 c -10.827,0.4355 -14.901,1.7419 -17.945,3.1645 7.027,0.0581 12.79,0.2903 14.508,0.9 14.068,-0.7839 -8.104,-0.9871 -10.024,-1.3645 2.46,-1.1613 12.307,-1.3355 13.461,-2.7 0,0 0,0 0,0 z m -34.758,0.4645 c -5.018,0.6677 -12.083,1.1032 -13.356,2.2355 6.847,-0.1742 7.173,0.3484 7.102,0.9 6.567,-0.7548 -0.186,-1.6258 6.254,-3.1355 0,0 0,0 0,0 z m 63.795,1.3645 c -4.95,0.1162 -3.951,1.1032 -5.306,1.8 7.149,-0.0871 7.726,0.5226 14.872,0.4355 0.389,-0.4355 0.804,-0.9 1.218,-1.3645 -5.858,-0.1161 -6.72,0.4355 -11.934,0.4355 0.384,-0.4355 0.767,-0.871 1.15,-1.3065 0,0 0,0 0,0 z m -99.545,0.4355 c -20,-0.1742 -30.681,2.1774 -45.059,4.0645 14.666,-0.2613 29.778,-3.0774 39.56,-2.2355 13.011,-0.4645 -3.386,-0.929 -2.66,-1.3935 0.704,-0.4355 5.11,-0.3484 8.159,-0.4355 0,0 0,0 0,0 z m -175.955,0 c -3.524,-1.0161 -12.271,1.2774 -23.605,0.9 2.027,0.3774 3.697,0.7258 3.345,1.3645 16.113,0.4355 7.941,-2.2355 20.26,-2.2645 0,0 0,0 0,0 z m -95.853,0.9 c -10.108,0.1161 4.844,0.7839 -0.838,1.8 11.15,0 23.015,0.0581 23.341,-1.3645 -12.355,0.929 -14.958,0.929 -22.503,-0.4355 0,0 0,0 0,0 z m -68.896,0 c -11.424,0.6677 4.155,1.7419 -1.229,3.1645 4.476,-0.058 3.67,-0.8419 4.246,-1.3645 3.242,0.2613 6.133,0.4645 11.333,0.4645 -3.353,-0.9 -16.435,-0.7258 -14.35,-2.2645 0,0 0,0 0,0 z m 545.429,153.0242 c -0.407,-7.1842 -1.829,-5.0575 -1.365,-20.2216 -0.145,23.0885 -4.239,10.8464 -3.571,40.338 0.523,-4.6471 1.132,-1.4864 0.436,0.0312 0.958,11.4529 0.783,-10.531 2.235,0.1604 -0.116,-8.3127 -1.655,-3.6432 -1.8,-11.8667 1.394,-8.6882 2.09,-13.8825 4.065,-8.4413 0,0 0,0 0,0 z m -6.3,20.0185 c -0.407,8.0488 2.293,8.3839 0.9,12.0902 0,3.8792 0.551,3.1966 0.9,4.0358 -0.058,-3.1303 0.174,-3.4851 0.464,-3.8325 -0.435,-7.0892 -0.842,-14.1376 -2.264,-12.2935 0,0 0,0 0,0 z m 0,-75.2078 c 0.667,13.2805 -0.32,17.4522 0.9,23.6785 -2.033,5.1221 0.842,8.7518 -0.9,16.0467 0.406,13.0835 1.016,3.3338 1.8,-0.2836 0.551,12.8339 -1.452,3.3211 -0.9,16.0466 1.596,2.2631 1.103,-14.1253 2.7,-12.3837 0.058,-9.8776 -1.017,-9.6682 -1.365,-15.8604 0.087,-4.7181 0.842,-3.3445 1.365,-4.2669 -0.378,-11.3197 0.638,-10.8645 0.435,-20.2958 -1.161,-1.9078 -1.626,2.1957 -1.335,12.6813 -0.61,-10.7561 -1.597,-15.0428 -0.929,-27.7992 1.422,8.3581 1.858,-32.4867 -0.436,-27.7956 -0.29,11.066 0.929,7.2054 1.365,11.2525 -1.278,14.7674 -0.987,23.2007 -2.7,28.9796 0,0 0,0 0,0 z m -98.758,-94.6704 c -3.109,-0.2613 -5.875,-0.4935 -11.099,-0.4645 0.691,-1.2193 7.103,-0.9 1.544,-1.771 -8.009,-0.2032 -10.295,0.2904 -15.625,0.4355 2.377,0.6968 18.246,2.0903 8.814,2.7 2.065,0.6097 7.418,0.842 14.404,0.9 -6.471,-1.9161 11.585,-0.1161 19.258,0 1.151,-2.0903 12.931,0.4355 19.721,-0.9 -3.324,-1.2193 -20.018,0 -26.691,0 3.545,-0.2322 -16.237,-3.0484 -10.326,-0.9 0,0 0,0 0,0 z m 99.658,201.7525 c 0.406,2.4459 0.667,11.4824 0.9,4.5404 0.522,3.6818 -0.291,10.8163 1.8,8.4394 0,4.3412 0,8.2878 0,12.2343 -0.697,-1.8718 -0.378,-12.7614 -1.8,-8.9687 0.754,8.5186 -0.058,5.0483 0,15.9968 -1.307,-6.4314 -1.394,-0.2829 -3.165,-5.3434 0.726,3.4034 0.697,12.99 1.8,12.8098 -0.261,14.9193 -1.858,-5.1935 -1.8,14.7143 -1.132,-1.0985 -1.045,-15.0913 -0.435,-19.7174 -1.336,-3.3234 -0.494,24.067 -0.9,38.1958 1.103,-12.1369 2.38,-0.8797 3.6,6.6231 -0.436,4.2993 -1.017,-0.7998 -1.8,6.6354 -0.087,6.4416 0.754,10.6519 0,11.8866 0.145,5.5062 1.132,4.128 1.8,5.5293 -0.11,6.9208 -1.279,3.5283 -1.695,7.391 -1.462,-0.1351 -3.5,-0.1909 -6.567,-0.1055 11.49,1.9451 0.87,2.3516 -16.973,1.8 1.677,0.5806 7.313,0.6967 8.681,1.3354 -1.602,0.9871 -13.348,-0.8419 -16.408,-1.3354 -5.972,0.2903 -1.212,1.0161 4.564,0.9 -3.225,0.4645 -6.481,0.9 -10.108,1.3354 10.576,0.0811 24.457,0.0173 41.03,0.2892 0.215,-13.5879 0.64,-28.6215 1.511,-44.4246 -1.132,6.3064 -1.393,-2.1762 -0.9,-12.909 0.784,-1.0929 0.871,3.7364 0.9,8.9292 1.684,-12.1144 -1.916,-13.5065 -0.9,-33.0692 0.407,-10.9128 1.016,12.8372 1.8,0.8694 -0.406,-7.7814 -1.51,-13.416 0,-16.4093 -0.639,-13.3981 -2.352,-17.4588 -2.235,-37.5541 -0.726,11.2844 -3.891,15.5885 -3.165,27.3756 0.436,0.1431 0.378,-4.9162 0.465,-7.9938 0,0 0,0 0,0 z M 1676.464,379.4254 c -6.601,-0.1161 -10.638,0.7549 -11.527,0 -11.866,0.4355 0.292,1.5097 2.288,1.8 5.451,-0.3193 7.843,-0.9871 9.239,-1.8 0,0 0,0 0,0 z m -1159.4078,0 c -14.6954,-0.3774 -10.8614,1.3065 -22.3565,1.3355 9.5051,0.4355 12.353,1.6548 27.4045,1.3645 0.1848,-1.1322 -0.3289,-2.1774 -5.048,-2.7 0,0 0,0 0,0 z m 1196.5748,0.9 c 10.579,-1.5097 -12.571,1.7129 -11.507,0.4355 -11.53,0.929 9.363,0.7839 -1.863,2.2355 9.969,-0.8419 14.494,0.3774 26.671,-0.4355 0.481,-0.9871 -8.793,-0.9871 -18.14,-0.9 -0.503,-0.7258 4.372,-0.7839 4.839,-1.3355 0,0 0,0 0,0 z m -1046.65,2.7 c 9.6571,-1.0742 -10.1081,-2.4968 -16.2819,-3.1645 0.2737,1.8581 3.1609,1.6258 16.2819,3.1645 0,0 0,0 0,0 z m -247.848,-1.3645 c -4.5117,1.7129 17.1132,0.0871 12.5692,1.8 6.7652,0.1742 7.1988,-0.3484 7.2458,-0.9 3.6054,0.4645 14.1632,0.1452 11.8823,1.3355 2.4805,1.1032 -17.1568,-0.2323 -10.2995,1.3645 -6.1939,0.1452 -6.8907,-0.4064 -11.7127,-0.4355 11.1389,0.0871 5.0879,-1.3935 -8.8556,-1.8 0.7412,1.2194 6.8365,0.9 1.0942,1.8 -1.1103,-0.6097 -8.7819,-1.6548 -9.6103,-3.6 -11.8201,0.0871 -3.3082,2.4387 -17.4821,2.2645 1.683,0.9 10.5394,0.871 16.0046,1.3355 -0.5392,1.5097 -15.542,-1.1903 -10.8874,0.9 -3.6746,-1.1322 -12.1827,-1.7129 -13.472,-3.1355 10.3954,-0.5516 16.8398,-1.5096 25.2823,-2.2645 -8.717,-0.8709 -18.5758,2.3226 -33.5669,0.9291 2.1856,1.0741 -6.4159,0.958 -2.6084,2.2354 -11.3189,-0.3193 -7.2948,-2.0613 -5.1843,-2.2354 -3.5687,-0.9 -24.6719,-0.2613 -22.3868,0.9 -2.2851,-1.1613 -28.0384,-0.842 -25.6732,0.9 -8.6007,-1.1323 -18.8532,1.0451 -23.6307,-0.9 -4.0567,0.5225 -12.9705,0.4935 -22.6482,0.4354 -1.4261,1.5097 14.6496,0.7549 16.5476,1.8 3.8728,1.2194 -17.9961,-0.3193 -14.4673,0.9 0.2237,0.2904 0.4697,0.6097 0.6934,0.9 7.4178,-0.4354 14.8432,-0.8709 21.885,-1.3354 5.6724,0.1741 -1.0666,0.5516 0.9945,1.3354 4.5657,-0.8129 27.684,-2.5838 30.2599,0 15.7548,-0.6967 27.4993,-0.2613 33.4222,-1.3354 9.6666,0.0871 -5.032,0.7548 1.209,1.8 27.1929,-1.8871 63.279,0.3483 85.6423,-1.8 5.2401,0.1161 3.955,1.1032 5.0898,1.8 31.9624,-0.9291 3.191,-2.8452 29.0327,-2.2646 0.6367,1.1904 -11.6609,0.9871 -10.2224,2.2646 8.8519,0 10.6453,-0.7839 22.625,-0.4646 -0.3183,-0.6096 -0.6214,-1.1903 -0.9396,-1.8 9.6438,0.0581 6.7841,1.6839 12.247,2.2646 11.9411,-0.4646 8.5687,-1.3065 15.3364,0.4354 11.094,-0.6967 21.9588,-1.1322 34.0868,-0.4354 7.3062,-0.9871 -8.4282,-3.0775 -20.6834,-3.1646 0.5613,-0.3774 3.8667,-0.4354 3.648,-0.9 14.6082,1.1613 18.0105,3.7742 39.5216,4.0355 -16.9033,-1.5097 8.2038,-0.6677 11.627,0.4645 8.8005,-0.1161 1.3849,-2.0032 -4.4416,-1.8 0.8411,-0.6387 6.6253,-0.058 7.579,0.4646 0.2508,-2.0904 -20.9137,-3.1065 -42.3877,-2.2646 8.9439,-2.3516 -15.4635,0.1742 -5.3201,-2.7 -17.5971,0.4646 -1.6128,2.1194 -21.7697,1.8 2.177,0.6678 6.1032,1.1323 8.2736,1.8 -15.0166,0.2904 -11.5655,-1.7129 -27.319,-1.3645 -1.9675,1.2194 8.2279,0.9 8.6786,1.8 -18.0355,-1.2774 -23.8473,-1.7709 -36.0638,-3.1355 -1.769,0.842 1.9304,2.2065 -18.1669,1.3355 -0.1628,-0.2903 -0.3419,-0.6097 -0.5047,-0.9 9.4277,0.2903 10.2198,-2.3226 -12.7748,-2.2355 -0.952,0.9291 6.0525,0.842 12.0259,0.9 -2.108,0.871 -9.3435,1.1904 -18.1577,1.3355 -4.5509,-0.1742 -10.1034,-0.7838 -4.2348,-0.9 -4.448,-1.2484 -6.3435,1.1903 -19.0321,0.4355 0,0 0,0 0,0 z m 1069.76,-1.3355 c -3.109,0.2323 -6.217,0.4645 -11.769,0.4355 -3.303,1.2194 7.267,0.9 6.736,1.8 8.1,0.0871 2.797,-1.5968 5.033,-2.2355 0,0 0,0 0,0 z m 105.969,0.9 c 0.085,-1.1613 -6.739,0.6097 -15.215,0 -3.443,1.2194 7.159,0.9 6.524,1.8 10.141,0.3194 -1.084,-2.1484 8.691,-1.8 0,0 0,0 0,0 z m -45.644,0 c -3.224,-1.3064 -4.521,0.6678 3.791,0.4355 -1.302,0.8419 -3.598,1.5097 -8.973,1.8 4.57,1.4807 9.875,-0.929 19.174,-0.4355 -2.784,-0.8129 -7.585,-1.3935 -13.992,-1.8 0,0 0,0 0,0 z m -15.215,0 c -6.178,0.9581 -9.075,-0.3193 -19.197,0.4355 1.625,0.9581 23.084,0.4355 26.705,0 4.025,-1.0452 -18.627,-1.0452 -7.508,-0.4355 0,0 0,0 0,0 z m -714.8954,3.6 c -3.696,0 -2.8673,0.5516 -3.5492,0.9 -12.1786,-2.0613 -28.3771,-1.6258 -15.7865,-3.6 -11.9916,1.2484 -23.8341,-0.5226 -34.3027,-0.9 -8.9394,-0.1451 -4.1611,1.3065 -11.1881,1.3645 -11.1795,-0.2613 5.7718,-0.6967 3.3951,-1.3645 -2.4734,-1.0742 -5.2545,1.3355 -18.8175,0.4355 4.3051,2.4387 -11.5438,-0.1742 -6.844,2.2355 -7.6229,-0.8419 -9.6272,-0.029 -19.2389,0 1.3676,0.929 10.5996,0.9 11.9552,1.829 5.1625,1.3936 4.8296,-1.3064 -3.935,-0.9 4.7988,-1.4226 18.6314,0.6097 22.4316,-0.4645 5.1541,1.4516 -12.113,0.3484 -6.9408,1.8 3.2707,-0.2032 6.543,-0.4064 7.1608,-0.9 5.6034,0.2613 9.3983,0.6968 11.7675,1.3645 -3.3059,0.0581 -3.7363,-0.2032 -3.7978,-0.4645 -7.0117,0 7.5273,2.2645 -7.1964,2.2645 2.6818,0.4355 8.9431,0.4645 8.0446,1.3355 4.618,0.9 -0.8893,-3.7742 14.5804,-2.2355 9.6598,-1.3935 -23.9236,-1.3935 -16.0648,-4.0645 21.1853,0.4065 9.7967,2.4097 26.8377,2.7 -0.1316,-0.6387 -0.6328,-1.2774 3.7904,-1.3355 -0.8508,-0.5516 -7.1074,-0.4064 -11.557,-0.4645 0.628,-0.5226 6.948,-0.3774 11.3698,-0.4645 -0.8104,-0.3484 -4.1535,-0.4065 -4.2492,-0.871 14.548,0.5516 13.6011,3.3387 0.8314,4.0355 0.6253,1.2484 18.2637,1.0742 22.9354,0.4355 -4.9842,-1.0452 0.2171,-0.8419 -4.0969,-2.2355 -3.6886,0.029 -2.8517,0.5516 -3.8935,0.9 -6.7053,-0.3193 -0.5229,-0.8129 -0.2523,-1.3355 7.8033,0.2323 7.6383,1.3645 15.2281,0.4355 -1.7864,0.3484 -3.5663,0.7258 -3.4539,1.3645 3.6884,0 7.7457,0 11.4341,0 -0.5018,-0.8129 4.2746,-0.958 3.4024,-1.8 0,0 0,0 0,0 z m -198.3647,-3.6 c -12.7434,-0.3193 -5.5885,0.9 0.343,0.9 -2.439,0.4065 -6.7839,0.6678 -11.1376,0.9 3.8958,0.4936 7.0925,0.1452 19.0606,0.4645 -9.6722,1.8 1.9593,4.2678 20.6646,4.0355 4.6259,-2.6129 -11.4019,-2.9903 -5.6537,-4.5 -13.3687,0.9 -21.1426,-0.0871 -23.2769,-1.8 0,0 0,0 0,0 z m 1046.1361,0.4355 c -7.418,0 -15.207,0 -22.625,0 -0.264,1.3065 22.745,2.1774 22.625,0 0,0 0,0 0,0 z m 125.202,314.4427 c -3.257,0.058 -3.877,-0.2032 -4.498,-0.4645 -10.648,0.4064 6.249,1.1322 2.16,2.2354 4.053,0 7.737,0 11.422,0 0.172,-0.5806 -16.762,-1.3354 -5.404,-1.7709 -1.243,-0.5226 -3.933,-0.2613 -3.68,0 0,0 0,0 0,0 z M 1495.609,382.1254 c -7.354,0.5226 -4.004,2.3516 -20.305,1.771 5.306,1.0452 9.207,0.6968 18.959,0.4645 0.454,-0.7548 0.909,-1.5097 1.346,-2.2355 0,0 0,0 0,0 z m -619.7987,0.4355 c -9.7811,-1.3935 -12.0325,1.8 -30.268,0.9 9.4708,1.829 19.5782,-0.3774 30.268,-0.9 0,0 0,0 0,0 z m -629.2012,2.2645 c 5.8916,0.4355 -0.8931,0.7258 8.8244,1.3355 4.8224,-0.4355 6.4204,-1.2193 14.0904,-1.3355 -11.8663,-1.4516 -29.9134,0.0291 -39.5584,-2.2645 -9.0461,0.2613 -7.099,1.7129 -9.2099,2.729 4.3606,-0.0871 6.7212,0.0871 7.7477,0.4355 3.9438,-1.9451 13.2216,1.2774 18.1058,-0.9 0,0 0,0 0,0 z m 424.2172,-1.3645 c 7.2821,0.7839 -4.3796,1.3065 -6.6469,2.2645 -5.2282,-0.1742 -3.7152,-1.1613 -4.6807,-1.829 -6.6194,0.1161 -8.2366,0.7839 -6.765,1.829 12.679,0.3774 28.1978,0.4355 19.5581,2.2355 12.2802,0.4065 5.0513,-1.4806 10.8539,-1.8 6.9351,0.9581 0.7771,1.3065 0.8444,2.7 2.8534,-0.2903 11.5768,-1.8871 11.4052,0 17.5166,-1.829 8.7523,-4.0935 -5.5942,-6.3 -11.7573,1.4807 2.4574,2.0032 -18.9748,0.9 0,0 0,0 0,0 z m 482.0227,1.3645 c -1.002,-0.4935 -7.694,-0.3193 -7.573,-0.9 -8.389,1.2484 -15.681,2.671 -23.308,4.0355 1.242,1.2484 11.779,0.029 7.538,-0.9 3.137,0.929 10.396,1.4516 14.649,2.2355 7.671,0.2322 10.878,-2.6419 11.496,-0.4355 7.545,-0.8129 3.126,-0.8129 15.188,-0.4355 -18.832,-1.4226 6.819,-0.7838 8.29,-2.2645 -11.05,-0.0871 -20.653,-0.0581 -19.498,1.3645 -7.986,-0.5516 -16.745,-0.9871 -18.334,-2.2355 0.852,-0.5516 7.105,-0.4064 11.552,-0.4645 0,0 0,0 0,0 z m -46.13,4.0355 c 2.982,-0.2323 5.967,-0.4645 11.115,-0.4355 -2.874,-0.4064 -3.872,-1.0161 -3.367,-1.8 -9.599,0.0581 -11.943,0.871 -15.054,-0.4355 -8.826,-0.2032 1.889,2.0323 -11.633,1.3355 1.034,0.4936 7.689,0.3194 7.596,0.9291 1.257,-0.9871 6.821,-1.2194 11.343,0.4064 0,0 0,0 0,0 z m -116.9048,-2.7 c -9.9665,0.1161 5.1355,0.7839 -0.0606,1.8 2.5854,-0.2032 21.3484,0.2032 18.7074,1.3645 5.404,1.8291 24.794,-1.8871 22.763,0.4355 4.416,-0.0581 3.009,-0.8129 3.789,-1.3355 -13.277,0.3774 -13.2,-0.7258 -3.606,-0.929 -1.425,-0.6097 -9.556,-0.3484 -15.08,-0.4355 -0.788,0.8129 4.359,0.9581 3.565,1.8 -11.365,-0.7258 -19.784,-1.829 -30.0778,-2.7 0,0 0,0 0,0 z m 388.7668,307.2136 c 8.927,0.1452 14.289,-0.058 18.417,-0.4354 -3.156,-0.7839 -7.024,-0.0581 -11.389,0 -1.682,-0.7839 2.315,-0.842 7.045,-0.9 -5.311,-1.2194 -20.218,-0.0291 -14.073,1.3354 0,0 0,0 0,0 z m 75.336,0 c 8.566,0.1452 13.896,-0.0871 14.359,-0.9 -3.967,-0.8419 -1.816,0.4936 -7.373,0.4355 -3.556,-0.3193 -6.144,-0.8129 -8.387,-1.3355 -3.671,0 -2.509,0.5517 -3.34,0.9 -2.894,0.0581 -3.441,-0.1741 -4.01,-0.4354 -9.301,1.2774 11.982,-0.1742 8.751,1.3354 0,0 0,0 0,0 z M 1053.931,387.0609 c 3.244,0.6677 5.738,1.4226 14.947,1.3645 -1.725,-0.958 5.634,-0.8709 11.533,-0.9 -8.704,-1.1032 -13.198,-0.5516 -26.48,-0.4645 0,0 0,0 0,0 z m 789.943,222.4058 c 1.219,-11.3198 -1.074,-11.0555 0,-27.3626 -0.435,-0.1203 -0.9,-0.2486 -1.335,-0.3688 1.103,10.55 0.29,14.8 1.335,27.7314 0,0 0,0 0,0 z M 368.1979,692.4745 c 0.936,-1.0161 -10.7291,-0.4935 -11.595,-1.3354 -1.8649,2.1774 -8.3121,-1.5678 -30.2213,-0.9 -0.4394,-0.5226 0.987,-0.8129 3.9039,-0.9291 -18.0151,-0.3774 5.355,1.5387 7.73,2.7291 13.9051,-0.3194 16.2742,0.7548 30.1824,0.4354 0,0 0,0 0,0 z m -5.0253,-303.6136 c 0.4809,-0.3774 -1.7472,-0.4064 -3.9754,-0.4355 -2.5767,0 -5.1533,0 -7.3618,0 1.9944,1.8291 15.0117,2.6129 6.7616,4.5 3.3552,0.0871 3.5436,-0.1742 3.3658,-0.4355 15.6773,-4.0064 34.2903,2.6129 56.4252,0 3.6462,-0.029 2.5931,-0.5516 3.1131,-0.9 -2.8985,0.0581 -3.4261,-0.2032 -3.954,-0.4645 -1.7665,1.8871 -24.7363,-0.2322 -15.6156,-0.9 -1.0661,-0.5226 -3.8215,-0.2322 -3.6734,0 -2.5714,0 -5.1428,0 -7.7142,0 1.8437,0.5807 7.0758,0.7258 8.5841,1.3645 -12.4628,-0.5516 -27.4531,-1.0161 -20.852,-2.7 -7.2804,0.1162 -9.3298,0.9 -14.1806,1.3355 -4.8546,-0.1161 -5.7056,-1.3645 -0.9228,-1.3645 0,0 0,0 0,0 z m -97.4984,0.4645 c -12.0458,-0.3484 -6.3844,1.2194 -18.3933,0.9 8.2532,1.1323 16.0945,-0.5516 26.7877,0.4355 -1.9218,-0.5806 -7.1568,-0.6968 -8.3944,-1.3355 0,0 0,0 0,0 z m 219.3946,1.8 c -1.3205,1.6258 9.0125,1.771 20.0144,1.8 1.3445,-1.6548 -8.6231,-1.7709 -20.0144,-1.8 0,0 0,0 0,0 z m -48.8064,0 c -10.6916,0.5226 14.1632,0.3774 8.7614,1.8 5.0934,-0.058 10.5703,-0.0871 11.2363,0.4355 3.8612,-0.2903 3.4481,-1.0161 10.8424,-0.9 -0.8389,-0.8419 -12.6248,-0.2903 -12.1249,-1.3355 -7.9322,0.871 -9.3986,0.871 -18.7152,0 0,0 0,0 0,0 z m -7.3394,0 c -7.0729,0.4355 3.4756,2.7291 12.6042,2.7 -3.8622,-0.958 -6.6837,-2.0032 -12.6042,-2.7 0,0 0,0 0,0 z m 880.179,0.4355 c -5.181,0.1161 -1.64,1.3645 -7.866,1.3645 -0.26,0.6678 22.075,0.6387 3.309,0.9 6.299,1.6258 10.926,-0.7838 19.204,-0.4355 -2.395,-0.4064 -4.426,-0.8129 0.385,-0.929 3.073,-1.2193 -18.08,0.3194 -15.032,-0.9 0,0 0,0 0,0 z m -22.374,0 c -4.434,0.0871 -2.372,0.4645 -0.173,0.4645 -0.927,0.5226 -7.102,0.3774 -11.52,0.4355 -0.138,-0.6387 7.314,2.0323 6.543,3.1355 19.381,-1.0161 5.332,-2.5548 5.15,-4.0355 0,0 0,0 0,0 z m -19.021,0.9 c -12.049,-1.2193 -29.395,-0.9 -37.883,0.4645 8.181,1.9162 31.412,1.3065 37.883,-0.4645 0,0 0,0 0,0 z m 123.618,0.4645 c -21.542,-1.7129 -66.892,0.5807 -27.197,1.8 -1.009,-0.9871 25.647,-1.6258 38.096,-0.9 0.688,-0.6387 15.556,-1.7709 15.468,-0.9 10.491,-1.1322 -30.903,-1.2193 -26.367,0 0,0 0,0 0,0 z m -177.299,2.7 c 6.405,-0.6677 -0.939,-3.0774 8.335,-2.2355 5.552,-0.2032 -1.292,-0.5806 0.407,-1.3645 -11.747,0.0581 -35.956,1.5387 -37.758,0 -5.996,0.5226 -8.065,1.4807 -19.017,1.3645 -0.522,0.6678 40.254,-1.2774 48.294,1.3355 -0.907,0.6097 -15.579,0.842 -0.261,0.9 0,0 0,0 0,0 z m 621.748,210.151 c 1.161,1.6173 0.348,-14.27 1.8,-10.4743 -1.626,-8.9016 -0.639,-16.5651 -1.8,-26.2302 0.407,-2.805 2.41,-1.344 2.7,-14.486 -1.219,-0.4844 -0.9,6.1045 -1.8,-0.1785 -0.203,-11.9524 1.394,-8.6353 0.9,-22.4994 -2.235,2.2763 -0.406,-29.0432 -2.7,-25.5981 0.174,7.1199 1.278,6.5551 0.9,18.5008 -0.116,3.9673 -0.9,2.2403 -0.9,7.2467 -1.277,-3.4734 0.668,-9.7372 -0.464,-14.5885 -0.9,1.2044 -0.871,10.0569 -1.771,11.192 0.174,5.273 0.551,-1.4579 1.335,-0.1072 0.29,14.22 -3.106,-0.7935 -2.7,14.5106 1.307,-3.1384 1.394,-3.1384 2.7,0.0592 -0.61,6.0019 0.261,24.9265 -1.335,14.404 -0.958,0.9301 0.464,12.4193 1.335,11.182 0.174,6.0836 -0.348,6.6652 -0.9,6.8811 0.581,15.7467 1.742,18.3106 3.165,15.5962 1.306,3.74 -1.046,5.0066 -0.465,14.5896 0,0 0,0 0,0 z M 1511.17,393.3609 c 9.433,-1.0161 -10.115,0.3774 -18.668,0 10.472,0.2323 6.018,2.1194 17.265,2.2355 -3.691,-0.5226 -2.724,-0.9 4.585,-0.9 2.233,-0.6387 -13.958,-1.0742 -3.182,-1.3355 0,0 0,0 0,0 z m -367.864,0 c -3.819,-1.0161 -23.394,-0.1742 -33.601,-0.4355 1.471,2.0903 26.92,-0.929 29.757,1.3355 5.881,-0.1452 -3.134,-0.7839 3.844,-0.9 0,0 0,0 0,0 z m 694.268,71.1453 c -0.087,-3.9603 -0.435,-1.5913 -0.435,0.2249 -0.61,-0.7703 -0.378,-8.8628 -0.465,-14.6058 -0.929,8.8496 -1.277,-1.0043 -2.7,1.6704 0.058,-4.302 -0.087,-6.3387 -0.435,-6.8161 2.525,-2.0491 -1.452,-21.8224 -1.8,1.2033 1.393,-5.1708 1.277,-3.3248 1.8,5.8822 -1.075,10.8609 0.174,18.3371 -1.365,22.5984 0.174,6.594 0.958,8.7401 0.9,17.5913 -1.103,2.474 -1.684,10.6862 -3.6,4.6546 0,15.4866 3.252,4.269 3.6,17.2387 -0.842,12.4393 -1.568,-5.9997 -2.7,-2.9712 0,3.1175 -0.552,2.5295 -0.9,3.6281 0.116,4.4564 1.336,4.2735 1.365,-0.249 0.464,1.31 1.567,13.7721 0,10.4264 0.667,7.2615 4.209,-11.9106 2.7,-21.9016 -0.204,-5.9613 2.467,-6.7682 2.235,-0.5807 1.19,-2.486 -1.858,-13.726 0.9,-11.4586 0,-5.0692 0,-9.7764 0,-14.8457 -0.348,0.8755 -0.435,3.8013 -0.9,3.9938 0,-4.678 0,-9.7159 0,-14.7538 0.668,3.9933 1.132,3.7673 1.8,-0.9296 0,0 0,0 0,0 z m -645.342,-70.6808 c -9.497,-0.058 -11.882,0.6968 -19.243,0.9 2.674,1.0162 23.273,0.4355 19.243,-0.9 0,0 0,0 0,0 z m 639.507,271.3255 c 0.464,-0.6386 0.29,-7.1018 0.9,-6.5901 0.493,11.7187 1.161,-0.4448 3.6,10.6031 -1.191,-15.7411 -4.384,-23.1637 -5.4,-4.8156 0.232,14.1321 0.667,-13.7221 0.9,0.8026 0,0 0,0 0,0 z m 0.9,-42.8494 c -0.697,-9.1634 -1.307,12.4922 -1.829,17.0028 -0.436,-0.3102 -0.9,-0.6411 -1.336,-0.9513 2.061,13.6932 2.729,-2.2674 5.4,10.9986 0.668,-13.8618 1.132,-19.6813 0.436,-32.6675 -0.523,0.4363 -0.233,3.4574 0,3.5869 -0.175,9.2175 -2.062,1.6787 -1.336,-7.8521 -0.668,2.4904 -0.668,11.3328 -0.9,17.5518 0.348,-1.5487 0.726,-3.4432 1.336,-2.7163 0.261,8.0155 -0.871,4.4284 -0.9,10.077 -0.61,-0.4176 -1.742,-15.1876 -0.871,-15.0299 0,0 0,0 0,0 z m -675.116,61.173 c 7.53,-0.2322 -9.26,-2.0032 -9.768,-4.0354 -8.144,-0.2033 -9.669,0.2903 -14.687,0.4354 3.095,0.9 11.922,1.0162 16.049,1.8 -0.382,1.771 -11.874,-0.3193 -14.426,0.9 -3.533,2.0323 18.513,-0.7838 22.832,0.9 0,0 0,0 0,0 z m 572.722,-287.4136 c -4.09,0.0871 -2.232,0.4645 -0.409,0.4645 -1.214,0.5516 -7.699,0.4645 -7.294,0 -5.961,0.1452 2.596,0.7839 -4.428,0.9 -2.236,0.9 10.643,-0.0871 11.313,-0.4355 8.462,-0.0871 0.415,1.5968 2.033,2.2355 7.272,0 5.812,-1.2193 15.718,-0.9 -5.486,-0.7838 -10.228,-1.5968 -16.933,-2.2645 0,0 0,0 0,0 z m 94.118,286.9782 c -0.622,0.4084 2.912,-0.821 8.924,-1.1514 -0.139,-2.7259 -0.119,-5.5658 0.252,-8.0461 -0.058,-12.8034 -1.51,6.2898 -1.365,-4.7936 -0.099,3.4946 -0.01,7.4674 0.144,11.8704 -6.997,0.2532 -14.825,0.684 -24.279,0.7561 -2.822,0.842 21.463,0.2904 8.192,0.9 1.248,0.5226 4.277,0.2613 4.018,0 2.835,-0.0871 3.46,0.1742 4.114,0.4646 0,0 0,0 0,0 z m 6.911,-7.8435 c -0.522,0.1896 -0.261,3.5753 0,3.835 -0.01,0.2956 -0.017,0.566 -0.032,0.8119 -3.763,-0.2002 -4.714,-1.1529 -1.288,-1.2876 -0.01,-0.2691 -0.015,-0.5533 -0.015,-0.8518 -0.08,0.2139 -0.149,0.4231 -0.207,0.629 -6.417,-1.1118 -4.148,1.4423 -17.065,0.6424 6.592,1.1323 9.925,1.9162 -2.755,0.9 -6.653,1.0603 12.498,0.9924 21.81,0.4481 -0.126,-2.3178 -0.278,-4.1738 -0.448,-5.127 0,0 0,0 0,0 z m -554.504,7.3789 c -1.512,-0.6096 -9.387,-0.3774 -15.269,-0.4354 6.516,-1.1613 37.288,-0.4646 41.566,0.4354 3.084,-0.2903 6.188,-0.5516 7.67,0 -0.65,-0.4064 7.277,-1.0741 2.713,-1.3354 0.382,-0.4936 7.073,-0.3194 6.642,-0.9291 11.536,0.3194 -2.607,0.9581 1.274,1.8 12.596,-1.2774 10.444,-0.2032 26.29,0 -3.498,-1.3064 -20.702,-0.8709 -20.545,-2.7 -11.331,1.5097 -25.521,0.5226 -34.165,-0.9 13.123,2.0904 -29.991,3.0774 -50.683,2.7 0.152,-0.8709 -6.99,-0.6387 -15.856,-1.3645 -6.704,-1.3355 -2.933,1.6549 7.905,0.929 0.285,0.9871 -15.576,0.1742 -21.976,0.4355 8.174,0.7839 4.188,1.3936 8.451,1.771 14.67,0.0871 1.234,-0.3484 3.147,-1.3355 3.651,0 7.301,0 11.317,0 -18.303,2.1774 28.669,0.2903 11.26,0.4645 15.238,-0.1451 16.601,1.3355 30.259,0.4645 0,0 0,0 0,0 z m 352.502,0.4646 c 2.429,-0.1452 13.605,-1.1323 14.979,0 14.377,-1.0742 -0.194,-2.2646 16.954,-2.2646 -1.539,-0.4935 -7.922,-0.2903 -8.47,-0.9 -6.175,0.4355 -12.379,0.842 -9.286,2.2646 -7.849,-0.2033 -9.602,0.2903 -14.587,0.4354 1.339,-0.5516 3.926,-0.929 10.522,-0.9 0.062,-1.1612 -3.188,-1.9451 -12.906,-1.8 -3.353,1.1613 0.488,2.2065 2.794,3.1646 0,0 0,0 0,0 z m 36.002,-1.8 c 2.14,0.3483 4.673,0.7258 4.86,1.3354 6.799,1.4517 0.584,-1.7709 6.031,-1.8 4.458,0.0871 3.661,0.8129 4.894,1.3646 6.28,-0.3194 11.205,-0.5226 14.972,0 9.551,-0.7258 -12.827,-1.2484 -16.615,-1.8 -7.295,0 -3.632,1.2193 -14.142,0.9 0,0 0,0 0,0 z m 113.702,1.3354 c 3.093,1.3065 5.167,-0.6967 10.533,-0.4354 -4.894,-1.2775 -15.139,-0.5517 -9.501,-2.2646 -11.332,-0.4064 -12.062,-0.4064 -22.61,0 -8.092,-1.2193 0.775,1.1904 11.753,0.4646 -0.9,0.5806 -5.897,0.6967 -6.014,1.3354 -9.882,-2.7 -24.802,1.5678 -15.381,-0.4354 3.589,0.3193 6.25,0.8129 8.603,1.3645 1.418,-1.1903 27.56,-0.5807 22.617,-0.0291 0,0 0,0 0,0 z m 27.47,-283.8136 c 13.853,-0.2646 15.082,-0.288 26.263,-0.0704 -0.021,1.0949 -0.045,2.2851 -0.07,3.5907 -0.552,0.8886 -0.813,0.0927 -0.929,-2.5913 -0.494,3.63 -0.291,7.9682 0,13.9887 0.522,-0.8215 0.261,-3.7389 0,-3.4972 0.987,-12.577 1.016,-2.7014 2.264,-2.0951 0.281,-3.9885 0.324,-7.6119 0.265,-10.9257 -9.896,0.1657 -18.867,1.1367 -22.43,-0.1707 -5.833,0.3775 0.443,0.6678 -5.363,1.771 0,0 0,0 0,0 z M 381.3346,681.2391 c -2.1158,0.4354 -8.3217,0.4354 -7.0762,1.3354 5.4391,-0.2322 9.3811,-0.6677 14.8169,-0.9 -10.6554,-0.4064 -9.507,-2.2354 -22.9968,-2.2354 4.4853,0.6677 3.6108,2.0032 15.2561,1.8 0,0 0,0 0,0 z m 1359.6094,0.9 c -0.97,-0.6387 -1.94,-1.2775 2.356,-1.3646 0.467,-1.0451 -11.046,-0.4935 -12.232,-1.3645 -3.902,0.1162 -1.705,0.9 -6.785,0.9291 2.479,0.6967 12.03,0.3774 9.358,1.8 -3.232,0.058 -3.843,-0.2033 -4.454,-0.4646 -7.041,0.6678 4.919,0.9581 11.757,0.4646 0,0 0,0 0,0 z m -621.486,0 c 5.008,-0.1742 -0.482,-0.8129 -4.548,-0.9 10.101,-1.4226 -7.846,-2.1775 -9.408,-3.6 5.418,1.1613 19.944,0.4645 22.755,0.9 4.181,-0.3194 -1.632,-1.5097 10.208,-1.8 -2.141,-1.1323 -14.596,-0.0581 -10.746,0.9 -4.266,-1.6549 -15.855,0.2903 -15.738,-1.3646 -16.943,-0.3483 -20.291,0.7839 -20.909,2.2355 16.04,-0.6096 9.047,1.771 23.033,1.3645 0.257,0.4355 -4.171,0.3484 -7.021,0.4646 1.622,0.9 7.997,1.1903 12.374,1.8 0,0 0,0 0,0 z m 389.25,0 c 8.351,-0.0581 7.082,-1.1613 5.814,-2.2646 -2.998,0.3484 -7.986,0.4936 -14.575,0.4646 2.024,0.6967 11.981,0.3774 8.761,1.8 0,0 0,0 0,0 z m -330.493,-1.8 c 1.039,0.4935 3.793,0.2322 3.647,0 9.429,-0.0871 12.098,0.6677 15.807,1.3354 5.018,-0.1451 2.562,-1.1322 2.5,-1.8 -8.052,1.1033 -7.353,-0.6677 -18.872,-0.4354 1.058,0.5225 -0.237,0.7838 -3.082,0.9 0,0 0,0 0,0 z m 251.293,0.9 c 4.312,-0.0871 1.832,-0.4646 -0.357,-0.4646 3.919,-1.5387 20.273,-0.2032 25.564,-0.9 -0.137,-1.1032 -18.931,-0.9 2.573,-1.3645 -4.806,-1.0161 -23.821,-0.1742 -33.859,-0.4355 1.248,-1.2193 14.786,-1.1322 12.841,-2.7 -10.992,0.842 -23.176,1.5678 -23.449,3.6 16.878,0.1452 11.982,1.3646 16.687,2.2646 0,0 0,0 0,0 z m -19.296,-0.9 c 1.966,0.6677 4.587,-0.2033 10.943,0 -10.377,-1.6549 -15.36,-1.0162 -34.577,-1.3646 0.216,0.2904 0.454,0.6097 0.671,0.9 -3.647,0 -7.658,0 -11.305,0 17.542,1.5097 20.771,0.4646 37.562,0 1.017,0.3775 -1.128,0.4355 -3.294,0.4646 0,0 0,0 0,0 z m 421.527,-76.4013 c -0.755,4.5268 -1.568,8.2787 -1.8,16.7904 1.248,0.0306 1.916,-4.8348 1.8,-16.7904 0,0 0,0 0,0 z m -669.036,75.5013 c -9.711,0.8129 9.862,0.029 2.799,-1.3646 -8.354,-0.5516 -17.36,-0.9871 -19.941,-2.2354 -13.836,1.8 17.868,1.829 17.142,3.6 0,0 0,0 0,0 z m 65.007,-3.1646 c 4.482,0.1742 5.802,2.1775 0.59,0.9 -10.559,0 9.91,1.2194 -6.695,0.9 7.303,0.5807 23.437,1.2775 30.165,0.4355 -1.122,-1.1322 -14.998,-0.6387 -16.13,-1.8 -0.977,-0.3774 1.187,-0.4064 3.352,-0.4355 -1.898,-0.6677 -4.617,0.1742 -11.282,0 0,0 0,0 0,0 z m 57.604,2.2646 c -6.712,-0.7549 -14.432,-1.3936 -27.156,-1.3646 8.985,0.9 14.611,2.2065 27.156,1.3646 0,0 0,0 0,0 z m -706.7199,-1.8 c 9.0838,-0.0581 0.6534,-1.5387 -0.5121,-1.8 -9.148,-0.2033 -8.1365,0.8129 -18.7906,0.4354 3.7137,1.5968 13.0457,-0.1741 19.3027,1.3646 0,0 0,0 0,0 z M 544.8573,675.81 c -1.3374,-0.929 -14.2939,-0.4064 -15.26,-1.3355 -6.9531,2.7 -19.6607,-1.5967 -18.7976,0.4355 -2.9659,-0.2322 -5.931,-0.4645 -11.3773,-0.4355 11.1205,2.3517 34.2013,1.5097 45.4349,1.3355 0,0 0,0 0,0 z m 802.2477,0 c 10.057,0.3194 -4.443,-2.1193 5.965,-1.8 0.282,-0.6096 -19.547,-0.9 -8.238,-1.3355 -15.96,-0.9871 3.049,2.7 2.273,3.1355 0,0 0,0 0,0 z m 181.536,-1.3355 c 0.091,0.9871 13.258,0.2033 18.907,0.4355 -0.366,-0.4355 -4.656,-0.3484 -7.637,-0.4355 1.114,-0.4064 2.591,-0.8129 6.515,-0.9 -3.784,-1.0451 -12.429,0.7839 -17.785,0.9 0,0 0,0 0,0 z m -183.724,24.7646 c -7.176,-1.2775 -16.061,-2.3807 -19.111,-0.4355 -7.448,-1.1613 3.317,-1.5678 -5.274,-2.2645 -10.212,0.6677 -6.05,-0.7549 -22.826,0 2.111,-1.742 -10.295,-1.5968 -13.254,-2.7 6.805,-0.2613 16.729,1.3354 19.115,0 -5.862,0.029 -3.477,-1.3065 -0.302,-0.4355 11.941,0.7838 -12.772,1.7419 1.871,2.7 2.716,-1.9162 25.276,1.3935 38.516,1.3645 -4.454,0.9871 11.137,1.6548 1.265,1.771 0,0 0,0 0,0 z m -69.668,-2.7 c -9.184,0.029 -15.871,-2.8162 -13.22,-2.7 0.389,0.5806 10.685,0.5806 11.395,0 -2.592,-0.0291 -4.837,-0.0871 -4.356,-0.4646 17.024,0.1742 11.952,1.3646 16.612,2.2646 -8.806,0.5806 -11.932,-0.2323 -14.794,0.4354 2.228,0.0291 4.476,0.0871 4.363,0.4646 0,0 0,0 0,0 z M 1062.305,674.01 c 2.275,0.8129 3.899,-0.1742 7.385,-0.4355 1.863,2.0033 19.236,-0.6677 22.418,0.4355 -3.976,0.6678 -13.777,0.6968 -17.76,1.3645 5.192,0.1742 6.499,0.5517 11.276,0 -0.374,1.2484 -11.277,1.2775 -13.646,2.2355 -1.57,-0.8419 -6.045,0.2613 -7.894,-0.4355 14.118,-0.7838 -10.123,-3.1354 -1.779,-3.1645 0,0 0,0 0,0 z m 368.908,0 c 0.374,-1.3935 -18.073,-4.6161 -4.876,-6.3 4.138,1.1323 6.942,2.4097 7.138,4.0645 8.395,-0.8709 13.409,0.4355 17.805,-0.9 20.289,4.0646 -13.378,-0.4064 -20.067,3.1355 0,0 0,0 0,0 z m 58.89,-1.3355 c -2.238,1.2775 6.027,1.1613 5.444,2.2355 -8.022,-0.929 -30.224,0.4065 -22.893,-0.4355 7.285,-0.4354 6.214,-1.7709 17.449,-1.8 0,0 0,0 0,0 z M 921.9336,395.1609 c 12.0242,-1.0161 18.2983,1.5097 11.392,2.2355 2.8738,-1.5097 -15.3292,-0.5516 -11.392,-2.2355 0,0 0,0 0,0 z m 444.4644,-21.6 c -10.871,-0.8129 -17.554,-0.0871 -18.5,-1.3645 11.038,-0.3774 9.464,0.6387 18.921,0.4355 0.96,-0.4645 6.863,-1.0742 7.694,-0.4355 -5.301,0.1161 -4.574,0.9871 -8.115,1.3645 0,0 0,0 0,0 z m 380.693,331.0782 c 1.682,0.6096 6.368,0.8709 5.392,1.8 -12.019,-0.5807 -24.004,0.4645 -32.802,1.3645 -0.562,-0.6097 -1.124,-1.2194 -1.659,-1.8 18.596,0.4935 22.405,-0.5807 29.069,-1.3645 0,0 0,0 0,0 z m 25.5,2.7 c 1.215,-0.6678 -6.649,-2.3226 1.572,-2.2355 0.543,0.958 16.402,2.4387 9.985,2.7 -3.14,-0.9581 -6.843,-0.9581 -11.557,-0.4645 0,0 0,0 0,0 z m -642.47,-7.2 c -9.155,0.1161 4.766,1.1903 4.759,1.8 -6.802,-0.2613 -16.015,-0.2323 -19.359,-0.9 6.712,0.1161 10.191,-2.1194 14.6,-0.9 0,0 0,0 0,0 z m 137.689,-3.1646 c 19.398,-0.1741 12.562,2.2355 32.055,2.7 -7.129,0.9 -24.648,0.6388 -29.034,1.8 0.173,-0.8419 -4.721,-0.9871 -4.896,-1.8 6.948,-0.0871 8.466,0.5226 15.436,0.4646 -3.525,-1.3936 -3.172,-0.871 -1.535,-2.2646 -5.158,0 -8.318,0.2323 -11.11,0.4646 0.947,-0.7839 -6.304,-1.1613 -0.916,-1.3646 0,0 0,0 0,0 z m -136.14,-0.4354 c -7.492,0.4064 -15.226,-1.4807 -8.537,-1.3646 1.601,0.842 6.116,-0.2322 8.002,0.4646 -10.817,0.3774 9.231,0.6677 4.753,1.8 -6.664,-0.0581 -8.582,0.4354 -6.576,1.3354 -4.457,-0.058 -11.007,0.0871 -11.682,-0.4354 2.897,-0.0871 7.371,0 7.097,-0.4646 -2.211,0 -4.456,-0.058 -3.941,-0.4354 6.647,0.029 9.37,-0.3484 10.884,-0.9 0,0 0,0 0,0 z m 52.645,0 c -10.38,-0.1162 -12.237,-1.3355 -16.488,-2.2646 14.261,0.4646 17.611,2.2936 28.469,3.1646 -11.672,-0.4065 -21.976,1.3935 -26.253,0.4354 4.889,-0.4354 14.116,-0.4064 14.272,-1.3354 0,0 0,0 0,0 z M 74.76138,525.3658 c 0.7258,-8.5834 1.65484,-15.5112 2.26451,-25.1934 -1.45161,-4.2722 -4.09355,12.8989 -3.16451,5.5385 -0.20323,-10.6547 1.68387,-2.3529 1.8,-10.5025 -1.94516,7.0304 -1.94516,-37.7246 0,-38.1142 -0.05807,6.6828 0.43548,9.2888 1.36451,8.4852 -0.17419,17.7357 0.95807,25.5522 1.33549,39.1315 -1.77097,8.5994 -2.20645,36.6986 -0.43549,52.764 -2.6129,8.9644 0.29033,28.2831 -1.8,41.3763 0.81291,3.9598 1.50968,-11.0635 1.8,0.5294 -1.50967,7.0105 -1.97419,0.9126 -2.7,10.8064 0.66775,0.9174 1.65484,-1.0658 1.8,4.1796 -0.9,-0.9649 -0.92903,5.3711 -1.36451,7.5154 0.17419,-20.8755 -1.91613,0.7127 -2.23549,-15.9194 0.66775,-6.5823 2.32258,7.72 2.23549,-10.9847 -0.40645,-6.8598 -0.84194,-13.3733 -2.23549,-12.3554 0,-5.2704 -0.23225,-8.3686 -0.46451,-11.8484 1.7129,7.7805 -0.46452,-26.6112 1.36451,-10.7363 0,1.126 -0.08709,11.602 0.43549,19.2978 1.48064,-6.1835 0.63871,-14.7314 0,-26.9849 1.13226,-4.3474 1.42258,2.8745 1.8,-2.9202 -0.92904,-9.7698 -2.00323,2.4542 -2.7,-5.0007 -0.0871,2.967 -0.02904,7.5052 -0.43549,7.3234 1.36452,-15.504 -0.14516,-22.6631 0,-30.8693 0.84194,6.0938 1.16129,-8.7369 1.33549,4.4819 0,0 0,0 0,0 z m 1.8,138.8092 c 0,3.7255 0,7.4509 0,11.5489 -1.33549,0.6985 -1.53871,-14.2871 -2.7,-4.2359 0.23226,-16.8912 1.7129,0.835 2.7,-7.313 0,0 0,0 0,0 z m 4.96451,-74.7264 c 1.45162,-4.9871 -1.77096,-3.1671 -1.8,-8.3374 0.26129,9.3004 0.69678,17.9005 -0.9,18.5341 0.46452,-10.5686 0.46452,-15.3675 0,-26.6202 1.9742,11.4084 1.56775,-11.1669 3.13549,-13.795 0.34838,8.5553 0.95806,15.3663 0.9,26.6495 -0.63871,-2.0479 -1.10323,14.262 -1.33549,3.569 0,0 0,0 0,0 z m 1.8,30.4543 c -0.92903,1.9786 -0.14516,18.5459 -1.8,14.608 0.26129,-9.8364 -0.17419,-13.5944 -1.36451,-11.6531 -0.0871,-7.3822 0.52258,-8.3371 0.46451,-14.966 1.65484,-3.5762 1.45162,8.0681 2.23549,11.9045 0,-2.1881 0.37742,-4.2841 0.46451,0.1066 0,0 0,0 0,0 z m 211.32881,56.8362 c 3.4703,1.5677 -11.9226,0.7838 -14.8757,0.4354 4.5208,1.3065 2.3778,1.6839 -7.0381,2.2355 3.439,-1.858 -10.3314,-1.1903 -18.9028,-3.1355 -2.0479,1.3936 8.9237,1.8291 -3.7879,2.2355 -9.8834,-0.4935 -18.5667,0.2033 -33.4885,0.4645 -3.3896,-1.4516 3.1451,-1.7129 7.1058,-2.2645 -10.1685,0.3194 -7.3498,-0.9 -14.9903,-0.9 1.5087,0.7258 -4.6444,1.2194 -7.2468,0.4355 13.0637,-0.4935 -17.5668,-1.6839 -3.7878,-2.2355 0.7638,0.5516 4.018,0.2904 7.2691,0 -3.5032,1.9162 14.6369,1.2484 18.718,2.2355 7.013,-3.1064 26.3702,-2.0322 48.6673,-0.9 1.5412,0.7839 -5.3329,1.1613 0.149,1.3645 0.658,-0.6387 7.9489,-0.5226 11.1805,-0.9 -0.2767,0.7549 2.6794,1.1323 7.4366,1.3355 0.3328,-0.2613 0.6689,-0.4935 3.5916,-0.4064 0,0 0,0 0,0 z M 565.155,401.0254 c 0.3562,2.3807 23.6803,1.0742 29.9354,0.4355 -0.0375,2.4968 -42.3119,1.8 -29.9354,-0.4355 0,0 0,0 0,0 z m -144.0189,1.8 c 6.1555,0 1.0386,-1.2484 6.4066,-1.3645 1.215,1.3936 13.6766,-1.3935 14.869,0 -6.1029,1.3065 -10.5365,1.1613 -21.2756,1.3645 0,0 0,0 0,0 z m -134.3325,-0.4645 c 10.6914,-0.2323 -6.341,-0.6968 -4.663,-1.3355 9.4784,0.0581 19.2964,0.0871 19.5165,1.3355 -8.8002,-0.6097 -12.8461,1.1903 -14.8535,0 0,0 0,0 0,0 z m 201.6987,1.829 c 9.3012,0.4936 -4.5061,2.3226 -6.4932,1.3355 9.5262,-0.4064 -7.1958,-1.2484 -15.3117,-0.9 -0.5963,-1.6838 3.2536,-1.2774 -1.5366,-2.7 12.6626,-0.6968 3.0302,1.5097 11.9792,1.3355 5.6582,-0.9 -0.669,-0.5516 -1.0012,-1.8 3.6266,0 7.2532,0 10.8797,0 0.4104,0.7548 0.8208,1.5097 1.2312,2.2645 -4.3087,0.0581 -8.6168,0.1162 -6.7374,0.9 3.6134,0 4.1455,-0.3484 6.99,-0.4355 0,0 0,0 0,0 z M 100.5998,674.01 c -5.81442,0.1162 -0.71904,0.7549 3.6466,0.9291 1.0819,-0.6678 4.6766,-3.2517 11.2382,-1.8 -14.5188,1.1032 4.4025,1.9742 -3.586,2.7 -3.2951,-1.3355 -12.00392,0.2613 -18.91956,0 -2.9157,-1.0452 4.33873,-3.0484 7.62076,-1.8291 0,0 0,0 0,0 z m 26.1921,0.9 c -0.7361,-0.3484 -3.2853,-0.5226 -7.6459,-0.4355 4.6989,-1.1322 -1.8462,-1.3935 3.9564,-1.8 -0.7122,0.6097 18.9163,0.9 7.3008,1.3355 -10.1941,-0.7838 2.9317,0.8129 7.6626,0.9291 -5.0937,-0.0871 -14.1458,1.5096 -15.263,0.4354 2.5454,-0.029 4.7271,-0.058 3.9891,-0.4645 0,0 0,0 0,0 z m 241.8903,-1.8 c 1.3041,-0.9 -5.2313,-0.9 -7.4844,-1.3645 18.91,0.2032 35.2515,0.2323 44.7336,0.4645 -8.693,0.1162 -8.4984,1.1904 -3.2996,1.8 -9.5535,-0.5806 -11.5894,0.2323 -14.9832,-0.4645 7.7952,-1.1032 -7.3368,-0.4064 -18.9664,-0.4355 0,0 0,0 0,0 z" /><g
       inkscape:export-ydpi="42.211681"
       inkscape:export-xdpi="42.211681"
       id="g34"><g
         clip-path="url(#clipPath40)"
         id="g36"><g
           transform="translate(119.392,465.6292)"
           id="g42"><text
             id="text46"
             style="font-variant:normal;font-weight:normal;font-size:241px;font-family:Kollektif;-inkscape-font-specification:Kollektif;writing-mode:lr-tb;fill:#000000;fill-opacity:1;fill-rule:nonzero;stroke:none"
             transform="scale(1,-1)"><tspan
               id="tspan44"
               sodipodi:role="line"
               y="0"
               x="0 130.14 263.41299 392.10699 474.52899 607.802 740.11102 869.04602 960.14398 1087.392 1220.424 1271.0341 1374.6639 1425.274 1552.522">FantaEurovision</tspan></text></g></g></g></g></svg>
