<?xml version="1.0" standalone="no"?>
<svg xmlns="http://www.w3.org/2000/svg" viewBox="0 0 223.11200000000002 53" width="223.11200000000002" height="53"><rect fill="none" stroke="#8ba1ef" stroke-width="3" width="220.11200000000002" height="50" x="1.5" y="1.5"></rect><path fill="#3052ce" fill-rule="nonzero" d="M2.81 16.97L0.12 16.97Q0 16.97 0 16.85L0 16.85L0.05 0.36Q0.05 0.26 0.14 0.26L0.14 0.26L7.82 0.26Q7.94 0.26 7.94 0.36L7.94 0.36L7.94 3.07Q7.94 3.17 7.85 3.17L7.85 3.17L2.93 3.17L2.93 6.89L7.85 6.89Q7.94 6.89 7.94 7.01L7.94 7.01L7.97 9.72Q7.97 9.82 7.85 9.82L7.85 9.82L2.93 9.82L2.93 16.85Q2.93 16.97 2.81 16.97L2.81 16.97ZM7.87 16.85L7.87 16.85L10.85 0.36Q10.87 0.26 10.97 0.26L10.97 0.26L14.45 0.26Q14.54 0.26 14.57 0.36L14.57 0.36L17.42 16.85Q17.45 16.97 17.33 16.97L17.33 16.97L14.66 16.97Q14.57 16.97 14.54 16.85L14.54 16.85L14.28 15.10L11.02 15.10L10.75 16.85Q10.73 16.97 10.63 16.97L10.63 16.97L7.97 16.97Q7.87 16.97 7.87 16.85ZM12.58 5.78L11.50 12.53L13.80 12.53L12.82 5.78L12.67 4.90L12.58 5.78ZM21.55 16.97L19.15 16.97Q18.96 16.97 18.96 16.80L18.96 16.80L18.94 0.46Q18.94 0.26 19.13 0.26L19.13 0.26L21.29 0.26L25.34 9.72L25.22 0.46Q25.22 0.26 25.44 0.26L25.44 0.26L27.82 0.26Q27.96 0.26 27.96 0.46L27.96 0.46L27.98 16.82Q27.98 16.97 27.86 16.97L27.86 16.97L25.75 16.97L21.60 8.14L21.77 16.78Q21.77 16.97 21.55 16.97L21.55 16.97ZM35.18 16.97L32.47 16.97Q32.38 16.97 32.38 16.85L32.38 16.85L32.38 3.17L29.26 3.17Q29.14 3.17 29.14 3.05L29.14 3.05L29.16 0.36Q29.16 0.26 29.26 0.26L29.26 0.26L38.38 0.26Q38.50 0.26 38.50 0.36L38.50 0.36L38.50 3.05Q38.50 3.17 38.40 3.17L38.40 3.17L35.26 3.17L35.28 16.85Q35.28 16.97 35.18 16.97L35.18 16.97ZM37.99 16.85L37.99 16.85L40.97 0.36Q40.99 0.26 41.09 0.26L41.09 0.26L44.57 0.26Q44.66 0.26 44.69 0.36L44.69 0.36L47.54 16.85Q47.57 16.97 47.45 16.97L47.45 16.97L44.78 16.97Q44.69 16.97 44.66 16.85L44.66 16.85L44.40 15.10L41.14 15.10L40.87 16.85Q40.85 16.97 40.75 16.97L40.75 16.97L38.09 16.97Q37.99 16.97 37.99 16.85ZM42.70 5.78L41.62 12.53L43.92 12.53L42.94 5.78L42.79 4.90L42.70 5.78ZM56.90 16.97L49.15 16.97Q49.06 16.97 49.06 16.85L49.06 16.85L49.08 0.36Q49.08 0.26 49.18 0.26L49.18 0.26L56.88 0.26Q56.98 0.26 56.98 0.38L56.98 0.38L56.98 3.07Q56.98 3.17 56.88 3.17L56.88 3.17L51.96 3.17L51.96 6.91L56.88 6.91Q56.98 6.91 56.98 7.01L56.98 7.01L57 9.72Q57 9.82 56.90 9.82L56.90 9.82L51.96 9.82L51.96 14.02L56.90 14.02Q57 14.02 57 14.14L57 14.14L57 16.87Q57 16.97 56.90 16.97L56.90 16.97ZM63.55 17.21L63.55 17.21Q62.28 17.21 61.20 16.55Q60.12 15.89 59.48 14.78Q58.85 13.68 58.85 12.36L58.85 12.36L58.90 0.36Q58.90 0.26 58.99 0.26L58.99 0.26L61.68 0.26Q61.78 0.26 61.78 0.36L61.78 0.36L61.78 12.36Q61.78 13.18 62.29 13.74Q62.81 14.30 63.55 14.30L63.55 14.30Q64.32 14.30 64.84 13.74Q65.35 13.18 65.35 12.36L65.35 12.36L65.35 0.36Q65.35 0.26 65.45 0.26L65.45 0.26L68.14 0.26Q68.23 0.26 68.23 0.36L68.23 0.36L68.28 12.36Q68.28 13.70 67.64 14.81Q67.01 15.91 65.94 16.56Q64.87 17.21 63.55 17.21ZM72.98 16.97L70.27 16.97Q70.18 16.97 70.18 16.85L70.18 16.85L70.22 0.36Q70.22 0.26 70.32 0.26L70.32 0.26L75.17 0.26Q76.46 0.26 77.56 0.90Q78.65 1.54 79.30 2.60Q79.94 3.67 79.94 5.02L79.94 5.02Q79.94 5.90 79.68 6.61Q79.42 7.32 79.06 7.81Q78.70 8.30 78.41 8.54L78.41 8.54Q79.70 9.98 79.70 11.93L79.70 11.93L79.73 16.85Q79.73 16.97 79.61 16.97L79.61 16.97L76.90 16.97Q76.80 16.97 76.80 16.90L76.80 16.90L76.80 11.93Q76.80 11.06 76.19 10.43Q75.58 9.79 74.69 9.79L74.69 9.79L73.10 9.79L73.08 16.85Q73.08 16.97 72.98 16.97L72.98 16.97ZM73.10 3.14L73.10 6.91L75.17 6.91Q75.91 6.91 76.49 6.36Q77.06 5.81 77.06 5.02L77.06 5.02Q77.06 4.25 76.50 3.70Q75.94 3.14 75.17 3.14L75.17 3.14L73.10 3.14ZM86.06 17.21L86.06 17.21Q84.77 17.21 83.70 16.55Q82.63 15.89 81.98 14.80Q81.34 13.70 81.34 12.38L81.34 12.38L81.36 4.78Q81.36 3.46 82.00 2.38Q82.63 1.30 83.71 0.65Q84.79 0 86.06 0L86.06 0Q87.36 0 88.42 0.65Q89.47 1.30 90.11 2.38Q90.74 3.46 90.74 4.78L90.74 4.78L90.77 12.38Q90.77 13.70 90.13 14.80Q89.50 15.89 88.43 16.55Q87.36 17.21 86.06 17.21ZM86.06 14.30L86.06 14.30Q86.78 14.30 87.32 13.72Q87.86 13.13 87.86 12.38L87.86 12.38L87.84 4.78Q87.84 3.98 87.34 3.43Q86.83 2.88 86.06 2.88L86.06 2.88Q85.32 2.88 84.79 3.42Q84.26 3.96 84.26 4.78L84.26 4.78L84.26 12.38Q84.26 13.18 84.79 13.74Q85.32 14.30 86.06 14.30ZM97.75 16.97L94.85 16.97Q94.75 16.97 94.73 16.85L94.73 16.85L91.42 0.36Q91.39 0.26 91.51 0.26L91.51 0.26L94.22 0.26Q94.32 0.26 94.34 0.36L94.34 0.36L96.31 11.35L98.23 0.36Q98.26 0.26 98.35 0.26L98.35 0.26L101.04 0.26Q101.16 0.26 101.14 0.36L101.14 0.36L97.87 16.85Q97.85 16.97 97.75 16.97L97.75 16.97ZM105.38 16.97L102.67 16.97Q102.55 16.97 102.55 16.85L102.55 16.85L102.58 0.36Q102.58 0.26 102.67 0.26L102.67 0.26L105.36 0.26Q105.46 0.26 105.46 0.36L105.46 0.36L105.48 16.85Q105.48 16.97 105.38 16.97L105.38 16.97ZM111.67 17.21L111.67 17.21Q110.38 17.21 109.31 16.55Q108.24 15.89 107.60 14.80Q106.97 13.70 106.97 12.38L106.97 12.38L106.97 11.28Q106.97 11.16 107.09 11.16L107.09 11.16L109.78 11.16Q109.87 11.16 109.87 11.28L109.87 11.28L109.87 12.38Q109.87 13.18 110.40 13.74Q110.93 14.30 111.67 14.30L111.67 14.30Q112.42 14.30 112.94 13.73Q113.47 13.15 113.47 12.38L113.47 12.38Q113.47 11.50 112.32 10.85L112.32 10.85Q111.94 10.63 111.12 10.18Q110.30 9.72 109.58 9.31L109.58 9.31Q108.26 8.54 107.63 7.38Q106.99 6.22 106.99 4.75L106.99 4.75Q106.99 3.41 107.64 2.34Q108.29 1.27 109.36 0.65Q110.42 0.02 111.67 0.02L111.67 0.02Q112.94 0.02 114.01 0.66Q115.08 1.30 115.72 2.36Q116.35 3.43 116.35 4.75L116.35 4.75L116.35 6.72Q116.35 6.82 116.26 6.82L116.26 6.82L113.57 6.82Q113.47 6.82 113.47 6.72L113.47 6.72L113.45 4.75Q113.45 3.91 112.92 3.38Q112.39 2.86 111.67 2.86L111.67 2.86Q110.93 2.86 110.40 3.42Q109.87 3.98 109.87 4.75L109.87 4.75Q109.87 5.54 110.21 6.07Q110.54 6.60 111.43 7.08L111.43 7.08Q111.55 7.15 111.90 7.33Q112.25 7.51 112.66 7.74Q113.06 7.97 113.39 8.14Q113.71 8.30 113.78 8.35L113.78 8.35Q114.98 9.02 115.68 10.00Q116.38 10.97 116.38 12.38L116.38 12.38Q116.38 13.75 115.74 14.84Q115.10 15.94 114.04 16.57Q112.97 17.21 111.67 17.21ZM120.89 16.97L118.18 16.97Q118.06 16.97 118.06 16.85L118.06 16.85L118.08 0.36Q118.08 0.26 118.18 0.26L118.18 0.26L120.86 0.26Q120.96 0.26 120.96 0.36L120.96 0.36L120.98 16.85Q120.98 16.97 120.89 16.97L120.89 16.97ZM127.54 17.21L127.54 17.21Q126.24 17.21 125.17 16.55Q124.10 15.89 123.46 14.80Q122.81 13.70 122.81 12.38L122.81 12.38L122.83 4.78Q122.83 3.46 123.47 2.38Q124.10 1.30 125.18 0.65Q126.26 0 127.54 0L127.54 0Q128.83 0 129.89 0.65Q130.94 1.30 131.58 2.38Q132.22 3.46 132.22 4.78L132.22 4.78L132.24 12.38Q132.24 13.70 131.60 14.80Q130.97 15.89 129.90 16.55Q128.83 17.21 127.54 17.21ZM127.54 14.30L127.54 14.30Q128.26 14.30 128.80 13.72Q129.34 13.13 129.34 12.38L129.34 12.38L129.31 4.78Q129.31 3.98 128.81 3.43Q128.30 2.88 127.54 2.88L127.54 2.88Q126.79 2.88 126.26 3.42Q125.74 3.96 125.74 4.78L125.74 4.78L125.74 12.38Q125.74 13.18 126.26 13.74Q126.79 14.30 127.54 14.30ZM136.68 16.97L134.28 16.97Q134.09 16.97 134.09 16.80L134.09 16.80L134.06 0.46Q134.06 0.26 134.26 0.26L134.26 0.26L136.42 0.26L140.47 9.72L140.35 0.46Q140.35 0.26 140.57 0.26L140.57 0.26L142.94 0.26Q143.09 0.26 143.09 0.46L143.09 0.46L143.11 16.82Q143.11 16.97 142.99 16.97L142.99 16.97L140.88 16.97L136.73 8.14L136.90 16.78Q136.90 16.97 136.68 16.97L136.68 16.97Z" transform="translate(12 17.896)"></path><line x1="167.113" y1="0" x2="167.113" y2="100%" stroke="#8ba1ef" stroke-width="3"></line><g fill="#3052ce" color="#3052ce" transform="translate(180.613, 12.001) scale(0.29)"><svg width="100.0" height="100.0" x="0.0" y="0.0" viewBox="0 0 100 100"><g><polygon points="50,7.207 54.21,15.738 63.625,17.106 56.813,23.747 58.421,33.124 50,28.697 41.579,33.124 43.187,23.747    36.375,17.106 45.79,15.738  "></polygon><g><polygon points="18.625,29.92 22.836,38.451 32.251,39.819 25.438,46.46 27.046,55.837 18.625,51.41 10.204,55.837 11.813,46.46     5,39.819 14.415,38.451   "></polygon><polygon points="81.375,29.92 85.585,38.451 95,39.819 88.187,46.46 89.796,55.837 81.375,51.41 72.954,55.837 74.562,46.46     67.749,39.819 77.164,38.451   "></polygon></g><g><polygon points="69.441,66.876 73.651,75.408 83.066,76.776 76.253,83.416 77.862,92.793 69.441,88.366 61.02,92.793     62.628,83.416 55.815,76.776 65.23,75.408   "></polygon><polygon points="30.752,66.876 34.962,75.408 44.377,76.776 37.565,83.416 39.173,92.793 30.752,88.366 22.331,92.793     23.939,83.416 17.126,76.776 26.541,75.408   "></polygon></g></g></svg></g></svg>