<?xml version="1.0" encoding="UTF-8" standalone="no"?>
<svg
   xmlns:dc="http://purl.org/dc/elements/1.1/"
   xmlns:cc="http://creativecommons.org/ns#"
   xmlns:rdf="http://www.w3.org/1999/02/22-rdf-syntax-ns#"
   xmlns:svg="http://www.w3.org/2000/svg"
   xmlns="http://www.w3.org/2000/svg"
   xmlns:sodipodi="http://sodipodi.sourceforge.net/DTD/sodipodi-0.dtd"
   xmlns:inkscape="http://www.inkscape.org/namespaces/inkscape"
   inkscape:version="1.0rc1 (09960d6, 2020-04-09)"
   inkscape:export-ydpi="57.5"
   inkscape:export-xdpi="57.5"
   sodipodi:docname="logo_new4.svg"
   viewBox="0 0 924.08661 71.984871"
   height="71.984871"
   width="924.08661"
   xml:space="preserve"
   id="svg10"
   version="1.1"><metadata
     id="metadata16"><rdf:RDF><cc:Work
         rdf:about=""><dc:format>image/svg+xml</dc:format><dc:type
           rdf:resource="http://purl.org/dc/dcmitype/StillImage" /><dc:title></dc:title></cc:Work></rdf:RDF></metadata><defs
     id="defs14"><clipPath
       id="clipPath26"
       clipPathUnits="userSpaceOnUse"><path
         inkscape:connector-curvature="0"
         id="path24"
         clip-rule="evenodd"
         d="M 0,0 H 3325 V 340.625 H 0 Z" /></clipPath><clipPath
       id="clipPath40"
       clipPathUnits="userSpaceOnUse"><path
         inkscape:connector-curvature="0"
         id="path38"
         clip-rule="evenodd"
         d="M 0,0 H 3325 V 309.375 H 0 Z" /></clipPath><clipPath
       id="clipPath52"
       clipPathUnits="userSpaceOnUse"><path
         inkscape:connector-curvature="0"
         id="path50"
         clip-rule="evenodd"
         d="M 0,0 H 3325 V 309.375 H 0 Z" /></clipPath></defs><sodipodi:namedview
     inkscape:current-layer="g18"
     inkscape:window-maximized="0"
     inkscape:window-y="23"
     inkscape:window-x="0"
     inkscape:cy="32.980453"
     inkscape:cx="440.75151"
     inkscape:zoom="1.031015"
     fit-margin-bottom="0"
     fit-margin-right="0"
     fit-margin-left="0"
     fit-margin-top="0"
     showgrid="false"
     id="namedview12"
     inkscape:window-height="480"
     inkscape:window-width="1406"
     inkscape:pageshadow="2"
     inkscape:pageopacity="0"
     guidetolerance="10"
     gridtolerance="10"
     objecttolerance="10"
     borderopacity="1"
     bordercolor="#666666"
     pagecolor="#ffffff" /><g
     transform="matrix(0.31999998,0,0,0.31999998,-70.395258,-18.45938)"
     inkscape:label="FANTAEUROVISION"
     inkscape:groupmode="layer"
     id="g18"><g
       id="g20"><g
         clip-path="url(#clipPath26)"
         id="g22"><g
           transform="scale(3.125)"
           id="g28"><path
             inkscape:connector-curvature="0"
             id="path30"
             style="fill:#ffffff;fill-opacity:1;fill-rule:nonzero;stroke:none"
             d="M 0,0 H 1064 V 109 H 0 Z" /><path
             inkscape:connector-curvature="0"
             id="path32"
             style="fill:#ffffff;fill-opacity:1;fill-rule:nonzero;stroke:none"
             d="M 0,0 H 1064 V 99 H 0 Z" /></g></g></g><g
       id="g46"><g
         clip-path="url(#clipPath52)"
         id="g48"><g
           transform="matrix(3.125,0,0,3.125,158.63507,-30.731756)"
           id="g54"><g
             style="font-variant:normal;font-weight:normal;font-size:98.34px;font-family:Kollektif;-inkscape-font-specification:Kollektif;writing-mode:lr-tb;fill:#000000;fill-opacity:1;fill-rule:nonzero;stroke:none"
             id="text58"
             transform="translate(14.125,99)"
             aria-label="FANTA"><path
               id="path477"
               d="m 52.513558,-69.723057 v 9.243959 H 15.734399 v 18.97962 h 33.337259 v 9.538979 H 15.734399 V 0 H 5.5070398 v -69.723057 z" /><path
               id="path479"
               d="m 65.389683,0 h -11.21076 l 29.010299,-69.723057 h 11.3091 L 123.50862,0 H 112.3962 l -9.14562,-21.831479 H 74.436962 Z m 12.980879,-31.272119 h 20.94642 l -10.42404,-25.175039 z" /><path
               id="path481"
               d="M 190.66613,-69.723057 V 0 H 180.24209 L 141.29946,-53.496958 V 0 H 130.5804 v -69.723057 h 10.8174 l 38.94263,53.791978 v -53.791978 z" /><path
               id="path483"
               d="m 215.73423,-60.479098 h -18.88128 v -9.243959 h 48.08826 v 9.243959 H 225.96159 V 0 h -10.22736 z" /><path
               id="path485"
               d="m 259.98102,0 h -11.21076 l 29.0103,-69.723057 h 11.3091 L 318.09996,0 h -11.11242 l -9.14562,-21.831479 H 269.0283 Z m 12.98088,-31.272119 h 20.94642 l -10.42404,-25.175039 z" /></g><g
             style="font-variant:normal;font-weight:bold;font-size:98.34px;font-family:Kollektif;-inkscape-font-specification:Kollektif-Bold;writing-mode:lr-tb;fill:#000000;fill-opacity:1;fill-rule:nonzero;stroke:none"
             id="text62"
             transform="translate(333.78125,99)"
             aria-label="EUROVISION"><path
               id="path488"
               d="M 4.7203198,-69.723057 H 48.284938 v 13.570919 H 19.667999 v 12.58752 h 25.175039 v 13.570919 H 19.667999 v 16.52112 H 48.284938 V 0 H 4.7203198 Z" /><path
               id="path490"
               d="m 97.055174,-69.723057 h 14.849336 v 44.548018 q 0,5.21202 -2.16348,10.03068 -2.16348,4.818659 -5.9004,8.4572392 -3.73692,3.6385799 -8.752256,5.80205983 -4.917,2.16347997 -10.62072,2.16347997 -5.605379,0 -10.620719,-2.16347997 -5.01534,-2.16347993 -8.75226,-5.80205983 -3.63858,-3.6385802 -5.80206,-8.4572392 -2.16348,-4.81866 -2.16348,-10.03068 v -44.548018 h 14.84934 v 41.597818 q 0,2.9502 0.9834,5.60538 0.9834,2.55684 2.65518,4.62198 1.67178,1.9668 3.9336,3.14688 2.36016,1.18008 4.916999,1.18008 2.65518,0 4.917,-1.18008 2.26182,-1.18008 3.9336,-3.14688 1.77012,-2.06514 2.75352,-4.62198 0.9834,-2.65518 0.9834,-5.60538 z" /><path
               id="path492"
               d="m 170.70423,-48.973318 q 0,3.34356 -0.9834,6.3921 -0.88506,2.950199 -2.55684,5.507039 -1.67178,2.4585 -4.03194,4.4253 -2.36016,1.86846 -5.11368,3.04854 L 181.12827,0 h -17.40618 l -21.53646,-28.125239 h -6.68712 V 0 h -14.94768 v -69.723057 h 30.09204 q 4.13028,0 7.76886,1.67178 3.73692,1.573439 6.3921,4.425299 2.75352,2.75352 4.32696,6.58878 1.57344,3.73692 1.57344,8.06388 z m -21.92982,7.27716 q 2.85186,0 4.917,-2.06514 2.06514,-2.16348 2.06514,-5.21202 0,-2.9502 -2.06514,-5.01534 -2.06514,-2.16348 -4.917,-2.16348 h -13.2759 v 14.45598 z" /><path
               id="path494"
               d="m 221.04613,-70.706457 q 7.08048,0 13.37424,2.85186 6.29376,2.851859 10.91574,7.768859 4.72032,4.917 7.3755,11.40744 2.75352,6.49044 2.75352,13.865939 0,7.27716 -2.75352,13.86594 -2.65518,6.58878 -7.3755,11.5057794 -4.62198,4.9169998 -10.91574,7.8671997 -6.29376,2.8518599 -13.37424,2.8518599 -7.08048,0 -13.37424,-2.8518599 -6.29376,-2.9501999 -10.91574,-7.8671997 -4.62198,-4.9169994 -7.3755,-11.5057794 -2.65517,-6.58878 -2.65517,-13.86594 0,-7.375499 2.65517,-13.865939 2.75352,-6.49044 7.3755,-11.40744 4.62198,-4.917 10.91574,-7.768859 6.29376,-2.85186 13.37424,-2.85186 z m 0,57.135538 q 4.03194,0 7.57218,-1.67178 3.54024,-1.67178 6.19542,-4.52364 2.65518,-2.9502 4.13028,-6.78546 1.57344,-3.83526 1.57344,-8.26056 0,-4.4253 -1.57344,-8.260559 -1.4751,-3.9336 -4.13028,-6.78546 -2.65518,-2.9502 -6.19542,-4.62198 -3.54024,-1.67178 -7.57218,-1.67178 -4.03194,0 -7.57218,1.67178 -3.54024,1.67178 -6.19542,4.62198 -2.65518,2.85186 -4.22862,6.78546 -1.4751,3.835259 -1.4751,8.260559 0,4.4253 1.4751,8.26056 1.57344,3.83526 4.22862,6.78546 2.65518,2.85186 6.19542,4.52364 3.54024,1.67178 7.57218,1.67178 z" /><path
               id="path496"
               d="m 319.67206,-69.723057 h 16.2261 L 306.4945,0 H 290.07172 L 260.7664,-69.723057 h 16.2261 l 21.33978,52.120198 z" /><path
               id="path498"
               d="m 367.94743,-69.723057 v 12.587519 h -5.21202 v 44.646358 h 5.21202 V 0 h -25.37171 v -12.48918 h 5.21201 v -44.646358 h -5.21201 v -12.587519 z" /><path
               id="path500"
               d="m 421.44024,-35.894099 q 4.13028,2.4585 6.29376,6.29376 2.16348,3.83526 2.16348,8.8506 0,4.72032 -2.26182,8.850599 -2.26182,4.0319403 -6.3921,7.1788202 -3.73692,2.8518599 -8.55558,4.42529981 Q 407.96766,1.18008 402.6573,1.27842 q -5.31036,0 -10.12902,-1.47509999 -4.81866,-1.47509991 -8.55558,-4.42529981 -5.60538,-4.2286199 -7.67052,-10.2273592 l 13.7676,-6.3921 q 0,0.9834 0.68838,2.4585 0.68838,1.4751 2.16348,2.85186 1.4751,1.37676 3.83526,2.36016 2.36016,0.983399 5.80206,0.983399 2.75352,0 4.81866,-0.68838 2.16348,-0.688379 3.54024,-1.671779 1.4751,-1.08174 2.16348,-2.36016 0.78672,-1.37676 0.78672,-2.75352 0,-1.57344 -1.08174,-2.9502 -0.9834,-1.37676 -3.14688,-2.16348 -3.9336,-1.37676 -8.3589,-2.26182 -4.32696,-0.9834 -8.45724,-2.36016 -4.13028,-1.4751 -7.67052,-3.83526 -3.54024,-2.36016 -5.60538,-6.58878 -1.86846,-3.736919 -1.86846,-7.965539 0,-4.72032 2.16348,-9.14562 2.26182,-4.4253 6.09708,-7.47384 3.63858,-2.851859 8.16222,-4.326959 4.52364,-1.57344 9.53898,-1.57344 5.01534,0 9.53898,1.4751 4.62198,1.4751 8.26056,4.326959 3.54024,2.65518 5.60538,6.19542 l -11.21076,7.67052 q -2.06514,-2.85186 -5.21202,-4.52364 -3.04854,-1.77012 -6.8838,-1.77012 -5.31036,0 -8.26056,2.36016 -2.85186,2.36016 -2.85186,6.19542 0,1.77012 1.57344,3.14688 1.67178,1.37676 4.22862,2.4585 2.65518,1.08174 5.9004,1.9668 3.24522,0.78672 6.3921,1.671779 3.24522,0.78672 6.09708,1.67178 2.85186,0.88506 4.62198,1.9668 z" /><path
               id="path502"
               d="m 463.03075,-69.723057 v 12.587519 h -5.21202 v 44.646358 h 5.21202 V 0 h -25.37172 v -12.48918 h 5.21202 v -44.646358 h -5.21202 v -12.587519 z" /><path
               id="path504"
               d="m 505.11611,-70.706457 q 7.08048,0 13.37424,2.85186 6.29376,2.851859 10.91574,7.768859 4.72032,4.917 7.3755,11.40744 2.75352,6.49044 2.75352,13.865939 0,7.27716 -2.75352,13.86594 -2.65518,6.58878 -7.3755,11.5057794 -4.62198,4.9169998 -10.91574,7.8671997 -6.29376,2.8518599 -13.37424,2.8518599 -7.08048,0 -13.37424,-2.8518599 -6.29376,-2.9501999 -10.91574,-7.8671997 -4.62198,-4.9169994 -7.3755,-11.5057794 -2.65518,-6.58878 -2.65518,-13.86594 0,-7.375499 2.65518,-13.865939 2.75352,-6.49044 7.3755,-11.40744 4.62198,-4.917 10.91574,-7.768859 6.29376,-2.85186 13.37424,-2.85186 z m 0,57.135538 q 4.03194,0 7.57218,-1.67178 3.54024,-1.67178 6.19542,-4.52364 2.65518,-2.9502 4.13028,-6.78546 1.57344,-3.83526 1.57344,-8.26056 0,-4.4253 -1.57344,-8.260559 -1.4751,-3.9336 -4.13028,-6.78546 -2.65518,-2.9502 -6.19542,-4.62198 -3.54024,-1.67178 -7.57218,-1.67178 -4.03194,0 -7.57218,1.67178 -3.54024,1.67178 -6.19542,4.62198 -2.65518,2.85186 -4.22862,6.78546 -1.4751,3.835259 -1.4751,8.260559 0,4.4253 1.4751,8.26056 1.57344,3.83526 4.22862,6.78546 2.65518,2.85186 6.19542,4.52364 3.54024,1.67178 7.57218,1.67178 z" /><path
               id="path506"
               d="m 595.08812,-69.723057 h 14.84934 V 0 H 595.7765 L 562.24256,-45.531418 V 0 h -14.84934 v -69.723057 h 13.96428 l 33.73062,45.826438 z" /></g></g></g></g></g></svg>
