<?xml version="1.0" encoding="UTF-8" standalone="no"?>
<svg
   xmlns:dc="http://purl.org/dc/elements/1.1/"
   xmlns:cc="http://creativecommons.org/ns#"
   xmlns:rdf="http://www.w3.org/1999/02/22-rdf-syntax-ns#"
   xmlns:svg="http://www.w3.org/2000/svg"
   xmlns="http://www.w3.org/2000/svg"
   xmlns:sodipodi="http://sodipodi.sourceforge.net/DTD/sodipodi-0.dtd"
   xmlns:inkscape="http://www.inkscape.org/namespaces/inkscape"
   inkscape:version="1.0rc1 (09960d6, 2020-04-09)"
   sodipodi:docname="logo_new.svg"
   viewBox="0 0 2312.9148 378.62442"
   height="378.62442"
   width="2312.9148"
   xml:space="preserve"
   id="svg10"
   version="1.1"><metadata
     id="metadata16"><rdf:RDF><cc:Work
         rdf:about=""><dc:format>image/svg+xml</dc:format><dc:type
           rdf:resource="http://purl.org/dc/dcmitype/StillImage" /><dc:title></dc:title></cc:Work></rdf:RDF></metadata><defs
     id="defs14"><clipPath
       id="clipPath28"
       clipPathUnits="userSpaceOnUse"><path
         inkscape:connector-curvature="0"
         id="path26"
         d="M 0,0 H 1920 V 1080 H 0 Z" /></clipPath><clipPath
       id="clipPath38"
       clipPathUnits="userSpaceOnUse"><path
         inkscape:connector-curvature="0"
         id="path36"
         d="M 58.09971,353.9997 H 1861.9007 V 726.0002 H 58.09971 Z" /></clipPath><clipPath
       id="clipPath52"
       clipPathUnits="userSpaceOnUse"><path
         inkscape:connector-curvature="0"
         id="path50"
         d="M 90.61831,412.4515 H 1829.3813 v 287 H 90.61831 Z" /></clipPath></defs><sodipodi:namedview
     fit-margin-bottom="0"
     fit-margin-right="0"
     fit-margin-left="0"
     fit-margin-top="0"
     inkscape:snap-global="true"
     inkscape:current-layer="g18"
     inkscape:window-maximized="0"
     inkscape:window-y="23"
     inkscape:window-x="0"
     inkscape:cy="1247.4974"
     inkscape:cx="2388.6412"
     inkscape:zoom="0.11898862"
     showgrid="false"
     id="namedview12"
     inkscape:window-height="875"
     inkscape:window-width="1477"
     inkscape:pageshadow="2"
     inkscape:pageopacity="0"
     guidetolerance="10"
     gridtolerance="10"
     objecttolerance="10"
     borderopacity="1"
     bordercolor="#666666"
     pagecolor="#ffffff" /><g
     transform="matrix(1.3333333,0,0,-1.3333333,-124.32913,930.51668)"
     inkscape:label="Untitled"
     inkscape:groupmode="layer"
     id="g18"><g
       id="g20" /><g
       id="g32"><g
         clip-path="url(#clipPath38)"
         id="g34"><g
           transform="translate(120.6,470.0009)"
           id="g40"><text
             id="text44"
             style="font-variant:normal;font-weight:normal;font-size:200px;font-family:'Libre Baskerville';-inkscape-font-specification:LibreBaskerville-Regular;writing-mode:lr-tb;fill:#000000;fill-opacity:1;fill-rule:nonzero;stroke:none"
             transform="scale(1,-1)"><tspan
               id="tspan42"
               sodipodi:role="line"
               y="0"
               x="0 126.8 237.60001 375.39999 451 561.79999 707 841 934.20001 1061 1183 1251.2 1342 1410.2 1541">FantaEurovision</tspan></text></g></g></g><g
       id="g46"><g
         clip-path="url(#clipPath52)"
         id="g48"><path
           inkscape:connector-curvature="0"
           id="path54"
           style="fill:#7caded;fill-opacity:1;fill-rule:nonzero;stroke:none"
           d="m 1827.933,621.3262 c -0.169,-3.1871 -0.318,-6.7473 -0.3,-12.1765 -0.224,2.2422 -0.467,4.0822 -0.86,3.5369 0.243,4.7378 0.374,10.9871 0.28,20.2244 0.281,-0.2345 0.225,-4.9134 0.281,-7.985 0.019,-3.8667 0.374,-2.926 0.599,-3.5998 0,0 0,0 0,0 z M 979.5535,415.9399 c 7.4648,0.0935 -0.6929,-0.8419 -3.5398,-0.8794 -0.3593,0.1871 -0.7182,0.3555 -3.5639,0.2994 -0.7018,-0.7297 5.7126,-0.9168 10.7062,-1.16 20.291,0.3929 5.2858,1.7961 -3.6025,1.74 0,0 0,0 0,0 z M 94.6867,511.0432 c -0.07484,16.4411 0.89806,-0.5147 1.16,-2.8974 0.26193,7.8249 1.62774,2.5247 1.74,12.3819 -0.43033,1.5489 -0.72968,4.9996 -1.16,6.5623 -0.03742,-4.39 0.05613,-10.5191 -0.28065,-11.46 -0.05613,5.7951 0.11226,13.9099 -0.28064,14.7758 -0.22452,-12.9053 -0.87936,-2.7026 -1.45936,-0.8416 0.13097,-11.2871 -0.69226,-15.4734 0.28065,-18.521 0,0 0,0 0,0 z m 648.3394,182.5999 c -4.5984,-0.0374 -8.4913,-0.0748 -7.6185,-0.58 4.9287,-0.0187 8.1571,0.131 11.0335,0.2807 0.5795,-0.3368 -1.0049,-0.8046 3.2033,-0.8607 5.2096,0.7297 3.1571,1.8336 0.8699,2.32 -0.6334,-0.7484 -16.7367,-0.4116 -7.4882,-1.16 0,0 0,0 0,0 z m 407.8469,-1.4593 c 14.008,0.4303 -0.082,-1.291 13.916,-0.8607 0.121,0.7671 2.813,1.7026 -6.33,1.74 -0.957,-0.4116 -6.289,-0.4864 -7.586,-0.8793 0,0 0,0 0,0 z M 419.0705,423.1992 c -0.3654,-0.58 -10.1135,-0.3741 -8.1458,-1.16 4.9434,0 9.5337,0 14.4771,0 1.4656,0.6549 -0.0306,1.0852 -6.3313,1.16 0,0 0,0 0,0 z M 103.1061,625.7646 c -0.9917,16.5166 0.3741,34.4498 -0.4304,29.0451 -0.9729,6.3117 -2.5819,-12.1345 -1.609,-11.2661 1.0103,-1.6246 1.9645,-30.9272 2.0394,-17.779 0,0 0,0 0,0 z M 896.7518,431.0199 c -17.1884,-0.711 -13.4665,1.7774 -24.7482,0.58 3.8372,-0.0374 5.5559,-0.3181 6.9282,-0.58 -2.8009,-0.0561 -6.9883,0 -7.0173,-0.2807 8.0268,-0.1309 17.7888,-0.449 24.8373,0.2807 0,0 0,0 0,0 z m 752.5822,264.9432 c -2.775,0.0561 -4.02,0.2432 -3.366,0.58 -11.454,-0.1684 -10.469,0.5426 -18.016,0 -1.379,-1.16 8.502,-0.7671 17.497,-0.58 0.202,-0.1684 2.876,-0.3368 3.885,0 0,0 0,0 0,0 z m -321.162,-3.1993 c 0.872,0.7296 7.706,0.9167 -2.688,1.1787 -12.703,-1.0103 -2.698,-1.8149 9.259,-2.3387 -0.268,-0.3742 -0.549,-0.7671 -0.831,-1.16 -4.914,0.0187 -8.189,-0.131 -11.111,-0.2807 -1.157,1.3471 -10.997,-1.1226 -29.054,-0.2806 8.379,-0.5987 -1.857,-1.6652 10.097,-1.16 -3.739,-0.8233 4.398,-0.7484 2.493,-1.4594 -4.592,0.4678 -16.958,0.3742 -13.394,1.4594 -6.317,0.0187 -11.304,-0.0749 -14.623,-0.2994 -5.208,-0.9355 11.46,-0.2058 6.233,-1.16 -3.513,0 -4.37,-0.2245 -7.219,-0.2806 -0.459,0.3555 1.266,0.8232 -2.913,0.8793 -11.839,-0.3555 1.367,-1.0851 -15.192,-1.16 -0.689,0.5426 4.294,0.6362 4.296,1.16 -7.041,0.5052 -7.18,-0.2245 -14.223,0.2807 -1.743,-0.5052 4.771,-0.7484 -0.587,-0.8794 -3.684,1.3284 -15.638,-0.8045 -25.102,0.2994 8.258,1.8709 -1.989,-0.3555 -9.962,1.4406 -2.436,-0.5051 3.467,-1.7026 -4.639,-1.74 4.286,2.2826 -28.48,1.6465 -1.277,3.48 -13.755,-0.0374 -17.185,1.7774 -6.092,2.0394 -24.273,-0.4865 -15.767,0.7109 -24.843,0.8606 -9.215,-0.0748 4.621,-0.5051 -0.723,-1.16 9.892,0.0374 7.096,-0.4864 14.45,0 -0.249,-0.3929 1.359,-0.6361 3.319,-0.8793 -9.475,0.6174 -21.906,-0.6736 -15.519,-1.7213 5.032,0.1684 1.043,1.1038 7.756,1.1413 -3.264,-1.2723 7.197,0.2432 7.027,-0.58 -5.308,-1.16 8.14,-2.1329 -5.338,-2.32 0.308,0.4864 0.615,0.9729 0.911,1.4406 -3.519,0 -7.037,0 -10.555,0 -3.715,-0.8793 -1.616,-1.4593 -4.955,-1.74 -5.987,-0.0187 -8.999,0.2245 -10.538,0.58 7.5,0.1871 16.783,0.9729 4.586,1.16 3.492,-1.74 -17.49,-0.4116 -8.274,-1.4406 -13.699,-0.5613 -19.529,0.8419 -21.624,-0.2994 -7.007,0.0374 -1.875,0.9729 -10.371,0.8794 -13.836,-0.8046 -10.636,0.449 -28.998,-0.2807 -1.287,1.422 -1.931,-0.2993 -7.555,-0.2993 0.28,0.4864 0.559,0.9729 0.839,1.4593 -6.782,-0.7858 -21.421,-1.1787 -36.052,-0.2993 -4.014,-0.262 -1.646,-1.0665 -11.377,-0.8607 -9.879,1.2349 -23.284,-0.1497 -35.251,1.16 -1.41,-0.6735 -10.2018,-0.6735 -14.5799,-0.2993 -2.3234,-0.4116 3.4418,-1.4968 -4.6128,-1.4407 -4.8402,0.842 4.7706,1.0665 -6.2919,1.4407 0.595,-0.8981 -10.1746,0.7484 -11.0467,-0.2807 3.3746,-0.2806 7.0902,-0.58 10.4528,-0.8793 -4.9214,0 -3.7728,-0.5052 -7.6765,-0.58 1.3207,1.2161 -7.9883,0.1871 -10.8937,0 0.6047,0.5051 -0.253,0.898 -2.935,1.16 -6.339,-0.0187 -11.2251,0.0561 -14.2799,0.2806 -8.2892,-0.4116 4.2214,-0.711 -3.9376,-0.8606 -2.7656,2.2638 -12.0782,-0.262 -28.278,1.16 -4.1857,-0.6736 -11.4012,-1.0665 -22.3422,-1.16 -0.7457,0.6735 10.6939,0.318 11.2981,0.8606 -15.9207,-0.2058 3.0846,0.58 -7.1184,0.58 -22.7263,-0.4677 -37.4907,-0.449 -61.711,-1.16 0.6304,0.6548 -17.778,1.2161 -17.566,0.8794 4.8701,-0.131 -10.6527,-1.1039 -18.4093,-1.16 -1.5282,1.4406 -12.9489,2.8064 -13.3865,3.48 -3.0909,-0.6923 -2.4162,-0.7671 -4.3256,-2.0394 -13.5499,-0.4677 -20.0628,0.8981 -29.0683,-0.58 0.9788,0.7297 -5.2847,0.9168 -10.4729,1.16 1.1575,-0.6735 4.1282,-1.1974 6.7384,-1.74 -7.004,0.0748 -8.2043,-0.3181 -14.5179,-0.2806 -5.4315,2.4696 -17.0936,-0.6175 -21.1792,1.74 -10.1917,0.0374 -8.7521,-0.8794 -18.2481,-0.8794 0.5252,0.5052 -0.3954,0.8981 -3.1212,1.16 6.2511,-0.2432 10.5721,-0.9729 14.4297,0 -13.9883,0.2619 27.2906,2.451 4.7435,3.48 -0.8565,-0.4303 1.0347,-1.0664 -3.9322,-1.16 -12.9051,0.3929 -4.8453,1.2723 0.4056,1.16 -8.6681,0.4303 -17.9538,0.0936 -10.5341,1.16 -20.0158,0.2994 -7.5631,-0.449 -14.757,-0.8606 -35.7483,0.7296 -80.8295,1.029 -130.1536,0 -1.4593,1.1787 -27.8376,0.1122 -36.4681,-0.58 -13.5449,0.898 -27.9511,1.16 -32.4393,0 -2.2402,1.0477 -17.0658,-0.6736 -18.2767,0.2806 5.9793,-0.0748 9.9585,0.3929 4.0014,0.58 -20.2088,-0.5052 -50.237,-0.7858 -61.736,0 -7.2535,-1.16 -20.2487,-0.8606 -28.9721,-0.2806 -1.4902,-0.5052 5.5229,-0.7484 -0.1389,-0.8794 -1.6746,0.5613 -20.2697,1.2161 -24.9471,0.58 5.6617,0.131 11.8273,-1.0852 3.3579,-1.16 0.0843,0.58 -9.8155,0.3742 -7.2372,1.16 -12.0531,-0.4677 -19.0216,0.1684 -28.9528,-0.2806 8.0929,-0.131 12.9796,-0.5052 14.3028,-1.16 -6.9872,0.4677 -12.2318,0.8045 -17.9705,0 1.5728,1.3284 -9.8074,0.5051 -21.3669,1.16 -3.2198,-0.4304 -5.7392,-0.9168 -14.8981,-0.8794 -4.5097,0.7297 14.5495,0.9168 3.9964,1.16 -0.0464,-0.449 -9.9675,-0.9542 -7.4058,0 -12.386,-0.4677 -19.0222,0.2432 -28.9656,-0.58 12.7199,0.3181 3.0911,-0.9729 -0.0953,-1.16 -2.8139,0.0561 -7.0446,0.0187 -7.0227,0.2994 0.0292,0.3742 6.364,0.2619 7.0949,0.58 -8.8423,-0.3929 -11.1931,1.1413 -14.431,0.2806 3.8779,0 4.5444,-0.5052 -0.0428,-0.58 -0.9533,1.4219 -26.7622,0.3742 -17.9923,-0.2993 0.0248,0.3929 9.8918,0.3741 10.9231,0 -2.8494,-0.4491 -17.6135,0.0748 -14.4994,-0.8607 8.4437,-0.131 7.7824,0.5239 17.9814,0.2807 1.0148,-0.58 6.9867,-0.7671 10.8289,-1.16 -16.1895,0.0374 -19.6424,1.0477 -21.8241,0 -7.0331,0.1122 -2.7445,1.1225 -14.382,0.8793 -16.5667,-0.2993 -2.8815,-1.16 -7.1197,-1.4406 -14.7577,0.4864 -10.1241,1.7213 -3.7394,2.6006 -11.6323,-0.0561 -15.133,0.5052 -28.8883,0.2994 0.6865,-0.5426 2.4332,-0.9729 7.358,-1.16 0.3608,0.2245 12.0158,0.8793 10.932,0.2806 -1.1133,-1.291 -10.6398,-1.8522 -25.4254,-2.0206 3.5585,1.2535 3.8868,0.5051 -10.895,0.58 2.4954,1.2722 -7.0448,-0.2433 -7.3812,0.58 0.7108,0.3367 5.9933,0.318 10.923,0.2806 -0.3386,0.5426 -2.0897,0.9729 -7.0191,1.16 -3.1801,-0.4303 -5.6371,0.0936 -14.4528,-0.2806 -0.7137,-0.7297 5.6234,-0.8981 7.023,-1.4407 -4.9282,0.0561 -5.9789,0.4678 -10.908,0.58 -4.2328,-0.8232 -3.8905,-2.0019 -3.5488,-3.1993 5.6212,-0.2807 14.4083,-0.262 7.3711,-0.8607 21.0779,-0.1309 -1.0391,1.2349 7.0513,1.4407 8.7645,-1.2162 3.8757,0.3929 17.9417,0.2806 4.2188,-0.0561 5.6176,-0.3181 7.3675,-0.58 -1.06,-0.1684 -9.1707,-1.1226 -0.0367,-1.16 2.1278,0.5987 7.0624,0.9916 14.4518,1.16 -0.0173,-0.4303 -15.1469,-0.9168 -0.0345,-0.8606 7.3829,0.0748 0.7543,1.2722 10.9467,1.1413 -0.0131,-0.2807 2.7969,-0.3368 3.4883,-0.58 -14.7588,0.1309 2.7756,-0.7297 -7.082,-1.16 12.6231,-0.4491 2.153,0.9916 10.5831,0.8793 0.323,-0.5613 14.0883,0.5052 14.3759,-0.58 -5.2451,0.449 -15.7948,0.3181 -14.4355,-0.5987 9.4946,0.2058 53.3404,-0.5613 36.2392,0.8794 6.2816,-0.58 38.1361,-1.7775 35.736,-1.16 -9.4897,-0.0936 -9.0781,0.5987 -10.4347,1.16 17.8201,-1.0478 27.0314,-0.262 46.5731,-1.4407 -21.4367,-0.1871 -5.4489,-1.6464 -18.1463,-2.32 -5.6064,0.0374 -13.3348,-0.1122 -14.7,0.2807 2.5411,0.898 11.2713,0.4864 14.729,0 0.0812,0.7858 0.1604,1.5529 0.2396,2.32 -23.6086,-0.8981 -36.1672,0.0374 -47.0777,-0.2807 9.4693,-0.131 -17.986,-1.2161 -7.1268,-1.4593 4.6051,0.5987 15.8395,0.6548 25.3344,0.8793 -0.0243,-0.2806 -0.0502,-0.58 -0.076,-0.8793 4.2064,-0.0375 10.1787,0.0561 10.4983,-0.2807 -12.9604,0.2058 -20.0504,-0.711 -28.7617,0 -0.0142,-0.1871 -0.0298,-0.3929 -0.044,-0.58 -2.1052,-0.0187 -4.2103,-0.0374 -3.527,-0.2806 4.2026,-0.0562 10.1697,0.0374 10.8439,-0.2994 -9.4793,-0.2058 -11.2935,-1.0477 -21.8101,-1.16 2.3799,-1.0477 -11.6951,-2.2452 3.6721,-2.6006 2.5159,0.9542 10.9372,1.2535 10.6241,1.74 4.5791,0.3554 13.6633,0.1122 18.1793,-0.2994 -4.6023,-0.6174 -13.7176,-0.8419 -14.4874,-1.74 7.331,-0.1497 13.2445,-0.5052 17.8602,0.2994 -15.3529,0.449 8.4638,0.7484 14.5081,1.74 -1.7917,-0.4304 -5.3217,-0.7484 -7.4595,-1.16 11.8897,-0.0562 17.5624,0.6735 18.1329,-0.58 14.2934,-0.4116 11.2596,0.6174 21.4014,0.58 -6.7813,-1.1975 6.5825,-0.5426 -0.2015,-1.74 16.748,-0.2246 5.0241,1.1038 10.9764,1.16 5.2367,-0.0749 5.8845,-0.4865 10.765,-0.5987 7.7763,0.6361 23.168,0.6548 25.4247,1.7587 6.6386,-0.0749 7.7466,0.318 14.3918,0.2806 1.6987,-0.3368 3.7496,-0.6548 6.8637,-0.8793 1.0993,0.318 6.0609,0.7109 7.395,0.2993 -18.7468,-1.3471 -13.5136,-1.4219 -32.8698,-2.32 -1.34,0.4116 -4.1259,0.4865 0.1214,0.8607 -13.2556,0.2245 -17.1754,-0.3368 -28.7036,-0.2807 -1.486,-0.711 -4.0871,-1.9832 -14.4664,-1.16 2.34,-0.8981 -0.4878,-1.1974 3.6725,-1.4406 5.6457,0.5051 13.369,0.8419 21.4421,1.16 0.652,-0.3555 -0.8057,-0.8233 3.3761,-0.8794 3.903,0.4678 9.8676,0.6736 14.7012,0.2807 0.0581,0.4116 -1.6539,0.6548 -3.7183,0.8793 17.8574,0.2807 11.394,-0.9168 25.1081,-0.2806 -2.187,-0.5987 -10.9128,-0.58 -3.6687,-1.16 12.1773,-0.2433 15.0593,0.318 21.386,0.58 1.0104,-0.2246 0.2537,-0.58 3.744,-0.58 8.8317,0.6174 -18.9235,1.7587 -3.3629,2.9 0.8977,-0.9168 15.9819,-0.58 18.1804,0 -4.7724,0.7109 -13.6884,-0.3181 -14.2878,0.2806 27.2922,0.0936 0.9273,1.3658 28.9929,1.74 -0.0687,-0.3742 -0.1407,-0.7671 -0.2093,-1.1413 -11.1706,0.131 -11.6559,-0.6361 -11.1022,-1.4593 -9.799,-0.0749 -13.8362,-1.2162 -21.7646,-0.58 2.8648,-1.6839 8.0201,-0.0936 18.168,0 -0.4997,-0.8607 -9.5982,-0.9729 -11.1242,-1.74 23.1721,0.7484 27.8287,-0.5052 50.0813,0.8606 -5.4386,-1.029 12.1876,-0.1684 10.6495,-0.8606 -19.164,0.1684 -11.6239,-2.3013 -14.8233,-2.6194 -12.5209,0.131 -6.6325,1.7587 -13.8531,2.32 -3.6596,-0.9168 -1.9995,-1.3658 -0.4876,-2.6006 11.2116,0.318 9.433,0.1309 18.0592,-0.2994 7.4673,0.7484 14.0763,2.3761 4.0681,2.9187 2.0599,-0.1684 16.609,-0.6735 17.7974,0 -13.9701,-0.0561 1.4869,0.4303 -6.8016,0.8607 10.9511,0.5987 29.9092,-0.5239 43.0145,0.2993 -1.1774,-0.5613 3.688,-0.6548 3.2208,-1.16 -13.0663,0.8607 -15.9517,-1.1039 -28.8674,-1.16 5.5633,-0.0748 2.3022,-0.6361 -0.1908,-0.8793 12.6528,0.4677 19.4504,-0.2994 28.7168,0.58 -0.0656,-0.2807 -0.1356,-0.58 -0.2056,-0.8794 15.5062,0.711 13.3421,0.4116 25.0215,-0.2806 4.6565,0.5051 -1.2372,2.0393 -2.7646,2.9187 5.4863,-0.3929 26.1235,-0.2058 14.0145,-1.16 12.1979,-0.0374 9.3755,1.1787 21.5867,1.16 0.1036,-0.9168 -11.3887,-0.842 -7.5179,-2.0394 11.4537,-0.1871 5.1597,1.0478 14.3695,0.2807 0.5523,0.7484 1.1049,1.4967 10.8658,1.4593 -7.1639,-0.6735 0.9531,-0.3368 3.5922,-0.8793 -4.5706,-0.131 -8.4585,-0.3181 -10.9713,-0.58 17.846,0.2245 21.3278,0.2058 35.5644,0 -4.9462,0.9729 3.1666,1.2722 -6.4675,1.74 8.8863,-0.6362 20.4078,0.5425 25.13,0 -5.6863,-0.3368 -14.7647,-0.3555 -18.4032,-0.8607 28.5183,-0.2806 43.1745,-1.3471 68.0259,0 -4.1738,0.0374 -10.1351,-0.0561 -10.7222,0.2807 2.8098,0.0561 7.3271,0 7.4205,0.2806 -8.7364,-0.0374 -17.1114,-0.0374 -21.5401,0.2994 -7.8144,-0.4304 4.3079,-0.711 -3.7699,-0.8794 -1.2174,0.5613 -16.3843,0.0374 -10.4527,1.16 13.3511,-0.8232 26.5672,0.1123 32.9415,1.4407 12.0335,-1.6091 0.1968,-1.5155 13.2457,-3.1807 -0.1775,0.5052 3.0385,0.7297 7.27,0.8607 -4.6205,-1.2723 12.3441,-0.6175 14.1011,-0.58 -6.0828,0.5612 -29.5893,1.2161 -16.9963,2.32 -6.347,-2.2452 27.799,0.58 20.8946,-1.16 15.2891,-0.1871 10.1561,1.0664 18.1492,0 0.4787,0.3554 -0.3983,0.8232 3.8126,0.8793 4.1697,-0.0561 5.4696,-0.3181 7.1182,-0.58 -21.4752,-0.5052 -15.6135,-1.6652 -29.5964,-1.7587 2.4345,-0.0187 4.5201,-0.0374 3.7361,-0.2806 -0.0666,-0.1871 0.222,-0.3555 3.3862,-0.2807 1.4552,1.1413 11.0736,-0.2245 14.5055,0.58 -4.1711,0.0374 -8.3424,0.0748 -6.7643,0.58 17.7005,-0.2432 14.9848,0.8981 39.6261,1.4407 -7.5459,-0.5613 2.1472,-0.7671 10.4862,-0.8607 11.9097,0.1123 7.936,1.5342 22.2187,1.4407 -2.311,-2.2639 15.1034,0.2058 31.641,-1.16 -1.2394,1.1974 21.2769,1.5716 25.3838,0.58 0.8871,0.4303 8.853,0.2806 14.4486,0.2993 1.6228,0.5052 -4.9144,0.7297 0.3844,0.8607 4.8156,-0.1684 -0.1439,-1.1039 6.4648,-1.16 7.8004,0.2619 6.8457,1.2348 18.3412,1.16 -0.0131,-0.7859 -6.2049,-0.58 -0.5349,-1.16 10.2912,0.3554 19.3531,0.318 10.5522,-0.58 14.9367,-0.1497 8.394,1.5154 22.3314,1.4406 -4.3885,-0.4116 -4.1824,-0.711 3.0781,-0.8606 5.5823,0.7109 6.0951,1.0477 8.0331,1.4406 3.818,-0.7671 2.357,-0.8981 14.0398,-0.58 -0.1945,-0.3929 -0.389,-0.7858 -0.5743,-1.16 5.2642,0.0561 12.8596,-0.1123 14.4537,0.2806 -9.869,-0.1871 -6.6838,0.5988 -10.3862,0.8794 9.8563,0.1497 29.1828,1.0477 14.3221,0 13.4025,-0.4303 7.3965,0.8045 18.1146,0.58 -7.1375,-0.9729 -0.417,-0.131 10.686,-0.2806 -1.6631,-1.1788 7.258,-0.1497 14.176,-0.2807 -1.405,-0.6735 0.112,-1.1039 6.366,-1.16 -0.079,0.5052 4.201,0.6736 11.135,0.58 -0.233,-0.4303 -15.504,-0.9168 -0.476,-0.8793 7.205,0.4116 7.736,1.3845 18.955,1.4593 2.932,0.8794 -9.834,0.5426 -6.547,1.4407 8.614,-0.8607 11.783,-0.1871 25.173,0 -6.165,-1.6465 25.327,-2.1517 9.188,-2.9 4.559,0.0374 10.132,-1.1975 14.138,-0.2994 -4.768,0.2058 4.402,0.9729 4.161,1.16 6.188,-0.1684 21.163,0.3555 21.135,-0.2806 -13.485,0.2245 -13.977,-0.6175 -18.48,-1.16 19.588,-0.5052 37.254,-0.131 36.467,0.8793 -0.181,-0.2993 2.578,-0.3555 3.129,-0.5987 -6.89,0.1497 -12.31,-1.3284 -4.358,-1.4406 -1.192,0.9167 4.897,1.1787 11.337,1.4406 -0.175,-0.8606 26.778,0.4116 21.101,-0.8606 -10.015,0.7296 -19.223,-0.6362 -11.526,-1.16 7.109,0.7858 21.711,1.2722 19.04,2.0206 3.662,-0.2806 6.975,-0.5613 10.274,-0.8606 2.617,-0.8233 -5.354,-0.7484 -4.407,-1.4594 5.263,0.0561 13.171,-0.1123 14.479,0.2994 -14.232,0.0935 7.644,0.5051 -6.584,1.16 9.032,-0.0562 11.448,0.449 18.51,0.58 -0.193,-0.2994 2.562,-0.3555 3.114,-0.58 -5.941,0.5238 -12.532,0.0374 -11.375,-0.8794 12.789,-0.1684 11.388,0.8981 22.188,0.8794 2.722,-0.6362 16.571,-1.8336 24.338,-1.16 -14.328,-0.0562 1.333,0.4303 -6.749,0.8606 -13.283,-0.58 -16.157,0.3555 -20.517,1.16 5.902,0.4865 16.958,0.8419 17.612,-0.2806 -7.04,-0.0936 -6.72,0.3929 -10.436,0.58 -0.01,-0.5426 1.804,-0.9729 6.564,-1.16 6.351,0.6361 19.146,-0.0562 11.236,1.16 8.71,-0.5426 19.449,0.3741 28.428,-0.2807 -10.545,-0.1122 -18.448,-0.449 -22.064,-1.16 8.466,-0.3742 17.869,0.6361 17.785,0 -1.58,-0.7858 -15.347,-0.5239 -18.562,-1.16 10.545,-0.8981 29.32,1.5903 14.085,-0.2993 6.387,0.1683 15.086,0.1496 18.17,0.58 -7.604,0.0935 1.573,1.2722 4.842,1.4593 6.602,-0.0374 11.717,-0.2058 13.897,-0.58 -9.867,0.3555 -18.365,-0.8419 -11.42,-0.8793 2.093,0.5051 3.743,-0.131 6.762,-0.2994 1.076,0.5426 12.329,0.1871 14.711,0.5987 -1.001,-0.4303 -6.281,-0.5052 -7.589,-0.8793 6.422,-0.2807 15.272,-1.5529 21.04,-0.2994 -4.14,0.0561 -10.129,-0.0374 -10.239,0.2994 19.381,1.2722 26.079,2.3387 48.473,2.9 -2.751,0.0561 -4.01,0.2432 -3.065,0.58 14.035,0.0935 23.448,0.5425 22.162,1.16 8.623,-0.1497 12.769,-0.6736 16.942,-1.16 -9.443,-0.4865 -11.968,0.3367 -18.016,-0.2807 3.351,-0.1871 -8.272,-1.74 -12.536,-2.32 -14.697,0.8794 -16.835,-0.6174 -32.072,0 3.855,-0.9355 -11.665,-0.2245 -7.803,-1.16 15.608,1.3471 28.799,0.3181 50.472,0.8794 -2.245,0.7296 -4.242,1.3284 4.787,1.74 13.932,0.4303 6.373,-0.8046 17.703,-0.58 5.09,0.7296 -1.413,0.898 4.37,1.16 3.554,-0.3742 14.094,-0.2807 18.248,0.58 -14.764,-0.131 3.356,0.7296 -6.094,1.16 4.877,-0.0187 7.787,0.1309 11.048,0.2806 -15.128,-1.0477 13.347,-1.2535 1.928,-2.0206 19.527,-0.4678 3.109,2.2077 19.388,2.0206 -8.519,-0.6174 1.636,-1.029 13.644,-0.8606 3.873,0.9167 16.224,1.0664 26.312,1.4406 -5.786,-0.6735 -9.615,-0.6548 -0.938,-1.16 -5.192,-0.3742 -13.574,-0.3742 -17.816,0 -0.313,-0.3929 -2.254,-0.6361 -4.542,-0.8793 11.735,-0.1684 6.503,-0.5988 10.132,-0.8607 3.806,0.3929 12.517,0.3742 15.006,0.8607 -0.228,-0.2807 2.869,-0.3368 3.02,-0.58 -15.083,-0.0936 1.453,-1.2162 -8.146,-1.4407 -6.596,0.0374 -1.671,0.9542 -10.12,0.8607 -8.92,-1.1226 5.709,-1.1413 9.182,-2.0207 -7.542,-0.711 -14.945,0.4865 -18.236,-0.58 8.23,-1.029 23.416,-0.3368 35.534,0 -1.693,-1.2161 20.09,0.2807 20.618,-1.1787 2.037,0.3555 4.391,0.6735 7.698,0.8794 2.683,-0.9542 7.582,0.318 11.05,0.2993 -0.093,-0.5239 -1.469,-0.9168 -4.475,-1.1787 15.035,0.4865 18.501,0.4677 35.509,0 3.27,0.5613 6.841,1.0665 8.834,1.7587 -4.069,0.131 -7.758,0.2994 -10.305,0.58 23.787,0.0936 6.345,-2.3387 24.331,-0.8793 -1.106,-0.4678 -13.493,-1.4968 -5.002,-1.74 15.94,1.1038 36.267,0.0748 37.826,2.6006 13.972,0.8045 21.548,-0.8419 28.858,0.2994 4.133,-0.0562 5.271,-0.3368 6.775,-0.5988 -4.66,-0.5238 -10.295,-0.9729 -15.595,-1.4406 -7.622,0.4303 -11.846,-0.3929 -3.037,0.8794 -11.746,0.1122 -15.434,-0.5052 -22.037,-0.8794 15.778,-0.6548 31.495,0.1684 30.983,-1.16 6.047,0.5239 10.789,1.1413 15.866,1.74 1.157,-0.6361 19.335,-0.9355 21.599,0 -12.8,-0.2806 -24.677,0.8232 -12.937,1.4594 30.049,-0.6736 48.693,0.9729 74.964,0 1.113,0.4303 -0.365,1.0664 4.592,1.1412 -0.489,-0.5051 0.194,-0.8793 2.73,-1.1412 8.459,0.0935 13.689,0.449 25.032,0.2806 0.132,0.8419 2.504,1.4781 9.045,1.74 2.086,-0.7004 8.704,-1.9587 14.815,-2.2811 -0.083,-1.6049 -0.104,-3.0617 -0.039,-4.2478 0.037,6.6916 1.141,-0.8568 1.16,-5.4069 -1.235,2.7516 0.973,-29.3775 -0.281,-20.4365 -0.018,-13.6829 0.449,-19.272 0.88,-19.3523 -0.169,-5.0082 -0.431,-8.7415 -0.599,-13.72 1.291,-2.3742 0.318,-26.6795 0.879,-29.8341 -0.449,8.0928 0.973,10.1429 0.88,3.4939 -0.674,-4.7681 -1.404,-26.5103 -1.16,-30.4413 0.336,1.3098 1.178,2.9609 1.44,13.5826 0.169,-17.9293 -1.197,-17.8581 -2.039,-23.6872 1.235,0.5341 0.206,-7.5381 0,-10.1145 0.599,-5.6861 0.374,0.2576 1.16,-0.2161 0.131,-6.2908 0.636,-8.7296 0.599,-16.9972 -0.973,2.6162 -0.468,-6.7736 -0.3,-10.1409 -0.636,-1.0526 -1.029,-5.4712 -1.16,-12.9341 1.534,9.4674 1.647,-43.9701 0.58,-30.5423 -0.804,-9.8235 1.029,-11.4059 0.88,-24.5204 -0.168,-0.6559 -0.252,-1.8685 -0.308,-3.0036 -0.123,-2.6916 -0.107,-4.9755 -0.572,0.5721 0,0 0,0 0,0 -11.319,0.2058 -3.511,-1.0104 -17.477,-0.5988 4.821,1.1039 -13.305,-0.2619 -11.568,1.1788 -4.322,-1.6465 -17.47,0.4864 -27.645,-0.8794 -0.262,0.2806 -3.44,0.3368 -4.361,0.58 -2.117,0.4116 13.219,0.711 3.017,0.8606 -11.54,-0.6548 -4.684,-0.9354 -5.954,-1.4406 -33.046,0.4303 -72.279,0 -106.805,-0.2806 3.841,0.4116 3.253,0.7109 -4.159,0.8606 -8.711,-1.74 -50.055,-0.8794 -56.747,-0.2806 -2.998,-1.1413 -24.651,-0.0188 -28.084,-0.58 4.107,0.0935 12.762,-0.842 4.089,-0.8794 -6.355,1.1413 -13.13,0.3742 -22.005,1.16 -3.41,-1.1413 -29.585,0.0748 -16.939,-1.74 -4.875,0 -7.577,-0.131 -10.256,-0.2994 -1.04,1.0852 -6.163,0.9355 2.547,1.4594 -22.838,-0.7484 -28.964,0.1684 -46.256,-0.58 -3.438,0.5239 10.204,0.9729 -0.67,1.1413 0.11,-0.1871 0.22,-0.3742 0.34,-0.58 -3.814,-0.0187 -5.466,0.4303 -6.955,0 0.967,-0.4677 6.816,-0.3555 7.801,-1.4407 -8.924,0.3742 -14.14,-0.8606 -17.765,0 12.115,0.131 2.828,1.7588 -3.978,0.8794 6.9,-0.5052 -28.206,0.0374 -39.62,0.58 -5.031,-1.0477 12.27,-0.1871 11.244,-0.8794 -20.989,0.2059 -19.041,-0.2058 -22.024,0.8794 -10.99,-0.2806 -14.874,-0.8794 -28.374,-0.2994 -7.463,-0.4116 4.86,-0.7109 -3.078,-0.8606 -5.004,0.2806 -7.323,0.7858 -14.663,0.8606 -18.312,-1.927 -64.431,1.1413 -84.969,-1.74 8.46,0.711 -3.22,1.2536 -14.675,1.16 -0.585,-0.3367 0.969,-0.8232 -3.194,-0.8793 0.489,0.6361 -3.438,0.9355 -11.078,0.8793 -0.591,-0.3367 0.955,-0.8232 -3.209,-0.8793 -3.468,1.0852 -12.555,0.0374 -18.292,0.5987 -2.155,-0.9916 13.38,-0.4864 14.63,-1.16 -18.3,-0.6361 -21.728,0.3929 -35.566,0 7.348,-0.0935 -5,-0.8981 -7.028,-1.16 2.872,1.0477 -8.374,1.4032 -0.514,2.0206 -5.215,-0.0374 -13.263,0.1123 -14.215,-0.2806 2.801,-0.0561 7.322,-0.0187 7.391,-0.2994 -6.667,0.1871 -14.796,-0.8419 -18.125,0 4.501,0.131 7.232,0.3742 7.114,0.8794 -1.823,0.3555 -3.98,0.6548 -7.51,0.8794 10.619,-2.2452 -19.234,-1.2162 -21.099,-0.5988 -2.509,-1.4032 -4.253,-1.4032 -3.086,-2.0206 -12.541,-0.1123 -10.977,0.8794 -18.346,1.16 2.272,-1.029 4.855,-1.8148 -6.584,-2.32 2.247,1.1787 -11.682,0.9916 -7.703,2.32 -29.662,0.3555 -35.778,-0.9729 -53.579,-0.8794 -0.38,0.3368 5.188,0.4491 -0.054,0.58 -8.342,-0.2806 -15.638,-0.6361 -21.184,-1.1412 -4.583,0.7109 1.681,0.898 -3.565,1.1412 -13.203,-0.8606 -10.009,-1.8709 -21.509,-2.6006 -14.3514,0.711 -9.0961,0.1871 -17.8532,1.16 3.8395,0.0561 8.7157,0.4677 3.4786,0.58 -8.7131,-0.8232 -12.1975,-1.8335 -14.2944,-2.0394 6.2961,-0.0187 11.1911,0.0749 14.3337,0.2994 2.1128,-0.5987 10.8594,-0.58 3.5273,-1.16 9.094,0.2432 19.238,0.3742 32.543,0.2806 -4.494,-0.9354 11.568,-0.2245 7.085,-1.16 -14.733,0.2246 -18.203,-0.4303 -32.2345,-0.2806 3.116,1.0103 -11.5802,0.4865 -14.3796,0.2806 -0.0107,0.58 -9.816,0.3742 -7.3715,1.16 -10.8495,0.2059 -10.5013,-0.5051 -21.3545,-0.2806 -0.7059,-0.3555 0.6884,-0.8232 -3.5181,-0.8794 -3.8321,0.973 -7.369,-0.318 -10.8739,-0.2806 2.4825,0.9729 -13.3003,0.4677 -14.3177,1.16 4.2031,0.0374 10.1514,-0.0561 10.8638,0.2806 -17.5055,-0.0935 -3.4676,0.8046 0.0528,1.4594 -0.7134,-0.3929 5.5428,-1.609 6.9635,-0.8794 -14.6572,0.7297 20.6417,1.4968 7.3675,1.16 -11.184,-0.2058 -10.4627,0.5052 -21.6434,0.2807 -13.3646,-1.5903 2.3415,-2.451 -11.0406,-3.7607 -8.0164,0.7484 -13.634,0.5988 -14.2724,1.4407 -1.7778,-0.3555 -3.9045,-0.6736 -7.0751,-0.8794 -3.4579,0.5426 10.583,0.9729 0.0958,1.16 -5.6186,-0.2058 0.5838,-1.4219 -10.9609,-1.16 -4.8331,0.7297 14.0918,0.9168 3.6106,1.16 -11.3428,-1.3658 2.4881,0.4304 -10.4403,0.58 -1.0728,-0.2245 -3.184,-0.3367 -7.3767,-0.2806 -0.7484,-0.4303 0.9314,-1.0665 -3.6337,-1.16 -2.272,1.5155 -4.9804,-0.6174 -14.4048,-0.2994 -5.1036,1.1039 9.8819,0.5613 7.192,1.4594 -10.9933,-1.0665 -17.1201,0.1684 -21.3432,0 8.6401,-0.7671 -13.7481,-0.6174 -14.5888,-1.4594 2.6251,1.0478 -2.3582,0.5613 -14.4519,1.4594 -1.0075,-1.6652 -14.797,-0.5052 -18.2009,-1.74 -1.6678,0.4116 -5.105,0.7297 -6.7648,1.16 4.2093,0.0374 8.4182,0.0748 7.1214,0.58 -3.4989,0 -6.9978,0 -10.8466,0 -6.1078,-0.711 8.9214,-2.5445 -14.8894,-2.32 3.0792,1.1787 -7.0493,1.3097 -13.5971,1.74 0.953,1.0103 9.449,-0.0187 10.6422,0.58 -7.8803,0.6735 -16.4785,-0.131 -21.4961,-0.58 -13.8845,0.4303 -30.4946,-0.1123 -50.3276,0.2806 -4.7835,-0.7109 16.5907,-0.6922 3.1304,-1.16 -5.5956,0.0375 -2.5629,0.7484 -10.3164,0.5987 5.7667,-3.8354 -54.2323,-0.7483 -58.7151,-2.32 -2.1502,0.7671 -19.5327,0.3181 -17.3062,1.4407 11.2279,-0.8419 19.7673,0.3368 25.5865,0.8793 10.6668,-0.5051 -10.1675,-0.898 -0.4526,-1.16 1.2777,0.58 15.8032,0.0562 14.7007,0.8607 -15.3867,0.0748 8.3716,0.8606 -2.8399,1.7587 -14.4164,-0.2058 -42.3124,0.8045 -36.1388,-0.2994 0.1257,0.2994 6.4424,0.3555 6.9953,0 -16.2744,-0.4303 -25.4089,0.2807 -31.7833,0.8794 -7.6545,-0.6923 -35.7127,0.5613 -28.6511,0 -2.8276,-0.7858 17.216,0.2058 14.0552,-0.58 -29.8884,-0.3368 -30.2311,0.3742 -50.156,-0.2994 6.8379,1.0478 -19.7835,1.553 -17.5542,1.16 -0.4803,-0.8793 -6.797,-1.5529 -18.1427,-0.58 1.2296,-0.9167 -5.2294,-1.1974 -11.6707,-1.4406 -2.3318,0.8045 5.6811,0.7484 4.6802,1.4406 -5.942,0 -12.2335,0 -18.1754,0 -0.5618,-0.3554 0.2084,-0.8232 -4.0237,-0.8793 -6.3176,0.5426 -29.9202,1.3658 -28.1328,0.8793 9.414,-1.16 -17.0639,-0.9729 -1.1041,-1.74 -4.5651,-0.0187 -5.143,-0.3741 -11.0512,-0.2993 0.2543,0.3929 0.5086,0.7858 0.7508,1.16 -13.2214,0.1123 -7.5548,-1.3845 -18.807,-1.4407 -0.7759,0.4117 -5.6297,0.4865 -6.7649,0.8794 4.539,-0.0187 4.6506,-0.3742 10.6549,-0.2994 -5.6866,1.4407 12.4191,0.7859 11.9908,1.74 -12.4832,0.1497 -13.069,-0.7296 -18.6057,-1.16 -15.3237,0.6175 -8.2086,0.2807 -25.2003,0 0.2627,0.3742 4.8368,0.4117 4.1136,0.8794 -20.4952,-0.2994 -19.6882,-2.0955 -33.2267,-1.4406 3.0836,-0.0936 15.1971,-0.7858 6.3651,-0.8794 -9.1621,0.4116 -11.2856,1.3284 -23.8024,1.4406 -0.9551,-0.3367 -0.2583,-0.8045 -4.505,-0.8606 -4.997,0.3368 -4.7728,1.0852 -9.3967,1.4406 -1.397,-0.449 -8.191,-0.187 -10.8427,0 -5.1244,-0.7296 1.0448,-0.898 -4.7645,-1.16 -10.4772,0.0375 -14.4603,2.0394 -23.4408,1.74 -0.6009,-1.16 -10.0745,-0.767 -18.6632,-0.58 -2.3451,-1.1225 -20.713,-0.898 -33.1979,-1.16 3.5882,0.8981 -9.307,0.5613 -5.7103,1.4594 5.9274,-0.0187 9.2711,0.2058 10.9966,0.58 -13.8928,0.0936 -19.745,-1.7587 -28.9231,-0.2994 -5.8247,-0.6361 -12.9539,-1.16 -22.6659,-1.4406 -0.5782,0.5052 17.6263,0.8981 8.0756,1.16 -1.0284,-0.3555 -4.02,-0.1871 -6.9928,0 0.492,-0.9729 -7.4554,-1.2348 -12.4853,-1.74 -7.7289,0.711 -26.4563,-0.5426 -17.3073,0.58 -13.1206,0.1871 -5.898,-1.3845 -16.1232,-1.4406 6.487,1.2535 -10.9481,1.3283 -1.5096,2.0206 -5.1327,0.1004 -8.3702,-0.066 -10.122,-0.3347 -1.8798,-0.2878 -2.0501,-0.693 -1.0133,-1.0133 0.519,-0.1604 1.3412,-0.2996 2.4034,-0.392 -1.0091,-0.0191 -1.9515,-0.0318 -2.8348,-0.0394 -0.0887,10.1988 0.5394,13.6329 0.0394,18.9713 0.8981,-5.1046 1.4032,14.5421 0.8794,4.3063 -0.9542,-4.0251 -0.4117,11.1671 -0.8794,13.5649 0.6736,-3.9668 0.6548,2.6577 1.16,-5.9835 0.2432,9.6243 0.3555,23.6529 -0.58,31.6527 0.5613,12.2862 0.5987,23.4745 -0.2993,17.6249 0.2058,11.3335 0.2058,7.1365 0,18.2016 0.2993,0.1845 0.3554,-2.9268 0.5987,-3.4723 0.0187,15.376 -0.58,11.884 -0.5987,32.1749 -1.1226,-3.0269 -1.0665,10.0072 -1.74,13.5719 0.0935,-8.413 0.3554,-14.9737 0.58,-21.5407 -0.4865,-1.6683 -0.7297,4.9005 -0.8607,-0.4586 0.3181,-0.5352 0.449,-3.6347 0.58,-6.731 -0.8606,12.5856 -1.5342,-17.8567 -0.58,-7.7338 -0.1871,-0.1102 -0.3555,0.4972 -0.2993,3.3558 0.898,-1.9472 0.5612,-2.1442 1.4593,0.8396 -0.2806,-6.8418 0.8607,-11.4059 0,-14.3996 -0.3929,0.1036 -0.2806,6.5031 -0.58,7.0258 -0.5426,-16.9062 1.1413,-4.2183 0.8607,-17.3734 -0.9917,-3.4844 -1.2162,3.0595 -1.74,5.8939 -0.0936,-12.0738 -0.0375,-22.2795 0.58,-24.9996 -0.3368,-11.1897 -0.7297,0.1641 -1.16,-7.9429 0.3929,-3.5851 1.0851,-2.6883 1.16,-10.0303 -0.4117,-8.4534 -0.711,4.0156 -0.8607,-4.2362 0.5613,-8.3562 1.2348,7.004 1.4407,-6.1921 -1.3659,2.0121 0.187,-11.7862 -0.58,-11.4214 0.1496,7.8831 -1.1413,6.762 -0.2994,3.6121 0.777,-10.5502 -0.2789,-20.6496 -0.6061,-30.6057 5.2336,-0.185 10.861,-0.1371 17.8112,0.6061 -0.275,-0.2807 2.4817,-0.3368 2.9472,-0.58 -6.5599,-0.2975 -14.4651,-0.4647 -21.4432,-0.7108 -0.2647,7.0407 -0.6207,12.831 -1.3285,14.0068 0.2994,10.9618 1.1413,10.3001 1.4594,12.3601 -1.0852,11.4814 -1.291,10.2378 -2.6194,1.5843 -0.1335,-13.8323 0.1269,-22.1655 0.4233,-30.0165 4.5037,0.1604 8.8923,0.3313 13.842,0.4561 6.7454,-0.6736 -1.0369,-0.3368 -4.3944,-0.8794 43.6282,0.9917 8.5888,-1.6838 24.0251,-1.4406 0.1133,0.4864 3.525,0.7297 7.8875,0.8606 -0.3735,-0.3929 6.1088,-0.2619 6.8688,-0.58 -2.8798,-0.0561 -4.4705,-0.2432 -4.0822,-0.58 10.3279,-0.2993 6.9617,0.6362 8.1597,1.16 -8.2101,-0.0935 -13.3645,0.0562 -13.9236,0.58 10.1805,-0.4303 19.0687,0.3929 24.87,-0.58 11.0495,1.2723 -2.944,2.5258 3.2199,3.48 -1.1164,0.6923 4.6564,-2.2077 12.0393,-2.6193 13.1188,0.0748 12.6196,-0.8794 24.6255,-0.8794 3.9968,0.9355 -11.6384,0.4116 -9.8956,1.1787 3.5097,-0.0187 4.4306,0.2246 7.653,0.2807 8.3787,-0.0936 6.9705,-0.8981 13.4485,-1.16 4.2879,0.8793 5.9695,0.3742 10.5897,0 8.4664,0.4116 -3.978,0.711 4.6298,0.8793 8.9885,0.2058 14.3385,-0.9916 17.2558,-0.8793 1.0001,0.3555 -0.0234,0.8232 4.2547,0.8793 9.7096,-0.6361 12.1495,-0.6735 -0.9715,-1.1787 11.4211,0.1497 16.0474,-0.2432 13.5411,-1.16 -17.0652,-0.1122 -21.1688,0.0562 -29.9544,-1.1413 -2.3647,0.9729 -7.9366,0.2433 -14.5165,0 5.2039,1.5342 -7.3866,0.0562 -10.2266,0.8607 4.3741,0.1497 8.7628,0.318 11.4786,0.5987 -18.1087,-0.0936 -17.9032,-0.2619 -31.4962,1.1413 -0.3519,-0.3929 -2.336,-0.6361 -4.3043,-0.8607 4.2253,-0.4116 17.5521,-0.1309 17.2478,-0.8793 -11.2075,-1.0665 -13.2588,0.5987 -25.9938,-0.58 -4.3395,0.6735 10.5303,1.0851 1.0538,1.16 -5.1422,-0.5987 -11.6033,-1.0852 -19.3658,-1.4407 -7.6314,0.1684 -11.1195,0.5987 -17.2215,0.8794 -1.0455,-0.3555 -2.0738,-0.6923 -8.0018,-0.5987 0.6947,0.3555 7.0119,0.6735 0.8433,0.8793 -14.2305,-0.7913 -25.1615,-1.4246 -36.908,-1.559 -0.05628,4.9203 -0.02515,10.1598 0.1184,16.0719 0.17537,-4.4417 0.66943,-12.4551 0.95438,-14.9991 0.11595,-1.0009 0.19727,-1.1276 0.2084,0.2084 0.0024,0.2927 0.0016,0.6538 -0.0028,1.0892 -0.58,8.0999 0.54258,21.0618 -0.28065,29.3351 -0.31806,2.6117 0.31807,-10.5405 -1.17871,-8.6595 0.09355,8.7887 -0.03742,14.1158 -0.28064,18.2648 0.58,0.4886 0.37419,10.4691 1.16,8.57 0.09354,-7.1526 -0.97291,-10.2269 -0.58,-11.705 2.4697,8.2169 -0.80452,26.5708 -0.87936,40.3298 0.3929,9.3512 0.87936,-6.2681 1.16,4.4333 0.3929,6.776 -1.68387,9.042 -2.02064,-1.3895 0.43032,-6.623 -0.71097,-10.3632 0.28064,-11.1021 -0.07484,-2.9703 0,-7.2872 -0.28064,-7.4997 -0.07484,5.0511 -0.63613,3.5398 -0.87936,6.6528 0.14968,-7.2056 -1.59032,-9.628 -0.58,-15.4599 0.05613,4.4441 0.31807,6.111 0.58,8.1409 -0.28064,-20.3608 0.48645,-25.9317 0.87936,-36.9023 -0.58,5.6929 -0.3742,-0.7015 -1.16,-1.0424 0.22451,8.9864 -0.33678,25.0061 -0.59871,14.5152 1.14129,-5.6191 -1.68387,-13.6106 -0.58,-19.2538 0.07484,5.2181 0.63613,4.9852 0.87935,8.137 0.09355,-7.616 0.78581,-6.6179 0.87936,-14.2088 -0.29479,-5.7182 -0.40714,-10.9808 -0.42458,-16.1525 17.47978,-0.0611 36.07688,1.0447 64.23478,-0.4548 13.1702,0.0187 -11.7176,0.3929 -9.9321,1.16 3.9052,0 4.8246,0.2246 7.7161,0.2807 -0.601,-1.029 6.7776,0.0374 10.213,-0.8607 0.1306,0.9168 17.1192,0.0749 26.3415,0.8607 0.0563,-0.3368 -1.4407,-0.8232 2.7891,-0.8607 27.6643,1.1975 74.6303,-0.4116 95.3007,0.58 -1.2749,-0.7296 7.6222,-0.7109 9.7676,-1.16 12.9373,0.1871 7.7577,0.8607 25.5953,0 9.1079,-0.1871 -1.3109,0.6362 -2.9219,0.8607 27.4111,-0.4116 52.1533,0.449 68.8714,-0.58 8.6792,-0.3181 0.4292,0.6548 18.6821,0.8793 -0.4755,-1.3096 29.1273,0.6175 32.1365,-0.8793 10.9073,-0.1871 31.7782,1.5342 22.2042,0.2993 14.8687,-0.0935 5.6083,1.1226 11.6502,1.1413 10.2274,-0.1122 -4.4237,-2.189 5.8293,-2.3013 -0.5306,0.9729 8.1399,0.58 15.3534,1.4407 -8.2088,-0.0749 -13.4644,0.0561 -14.2415,0.58 6.8039,-0.5426 6.8345,0.1684 18.0998,0 8.2357,-0.5426 32.3715,-1.291 40.1035,0 0.1563,-0.4116 -2.083,-0.6361 -3.9773,-0.8794 7.0425,-0.1309 16.0526,0.8981 14.4337,-0.2806 16.3303,-0.0374 23.8858,0.9729 32.6945,0 6.9566,-0.3555 -2.0886,0.9168 18.8409,0.8793 0.009,-0.8419 37.001,-0.7483 47.2168,0 -0.078,-1.2161 2.4652,-0.0561 7.1003,0 0.5865,-0.3554 -0.6421,-0.8232 3.6028,-0.8793 0.8327,0.3555 3.9726,0.1871 7.1075,0 -2.0001,1.4406 13.3786,-0.3929 14.7552,0.58 -3.166,0.0935 -2.9429,0.7858 0.2803,0.8793 0.7376,-1.029 16.4767,0.5239 14.461,-0.2806 -3.2912,-0.3181 -13.5155,-0.0936 -10.923,-0.8794 14.0987,-0.3742 8.7823,0.842 18.3757,0.8794 -0.8143,-0.3555 -6.5905,-0.6736 -0.2578,-0.8794 9.9997,0.1871 0.7542,0.1497 7.3556,0.8794 5.266,-0.2058 14.675,-0.8607 18.2225,-0.8794 -1.0658,0 2.2732,0.5426 3.703,0.58 18.9047,0.3742 61.2939,-0.6548 79.975,0.58 1.3541,-0.3929 5.2343,-0.5425 3.7169,-1.1413 11.0911,0.5239 10.3359,0.2246 21.7497,0.58 -0.0541,-0.3929 -0.1081,-0.7858 -0.1596,-1.16 14.5183,-0.4677 1.5923,1.2536 11.1647,1.16 0.8153,-2.0206 5.7532,0.6175 14.6179,0.58 1.0224,-0.3929 5.2644,-0.5612 3.7824,-1.16 13.8562,0.0188 13.2663,1.3846 25.2863,0.8607 -2.8478,-0.1123 -5.1992,-2.8813 -3.8439,-3.7607 2.1699,0.4117 5.754,0.711 11.106,0.8607 -6.3438,0.8981 -2.5556,4.2471 14.7557,3.1993 -9.5686,0.1684 -13.1336,-0.1122 -11.0519,-0.8793 13.1363,-0.0748 17.7787,0.5426 29.1367,0.58 1.7507,-0.9168 -6.4237,-1.0103 -3.6136,-2.0207 2.8441,-0.0561 4.262,-0.2432 3.541,-0.58 12.1049,0.1684 12.4699,0.842 25.6285,0.2807 -9e-4,0.5426 -2.8457,0.6174 -7.4707,0.2806 0.7159,0.7297 0.7202,1.422 -7.0924,1.4594 -1.074,-0.5239 3.5351,-1.4594 -7.4853,-1.16 0.0116,0.4864 0.0231,0.9729 0.0343,1.4406 8.1661,0.0562 27.3305,0.711 29.1083,0.2807 -3.9021,-0.3368 -10.2931,-0.5239 -7.0956,-1.4407 13.8598,0.2433 17.7459,1.291 29.0887,1.74 19.88312,-0.2619 54.99612,-0.0561 50.86812,-1.4406 12.042,0.3742 7.776,0.4116 18.412,0.58 -3.091,-0.9355 12.126,-0.3929 11.158,-1.16 -13.187,0.2619 -9.25,0.0374 -22.078,0.2993 0.411,-0.5425 2.591,-0.9729 7.594,-1.16 0.655,0.5052 5.974,0.6549 14.52,0.58 -1.399,-0.187 -9.117,-1.1225 0.149,-1.16 0.683,0.2246 2.805,0.3368 7.085,0.2807 -0.066,0.4864 -0.132,0.9729 -0.199,1.4593 -5.013,0.2807 -11.077,0.4678 -14.677,0.8607 3.551,0 4.231,0.2432 7.421,0.2806 2.196,-0.5051 17.036,0.0375 18.193,-0.58 -6.053,0.0936 -9.893,-0.3929 -3.469,-0.58 1.045,0.1497 10.949,0.4491 14.575,0 -12.731,-0.449 -7.743,-0.5051 -14.366,-1.4406 14.636,-0.2245 12.314,0.9355 29.095,0.58 0.229,0.711 0.105,1.4032 -4.217,1.74 10.333,1.7213 35.493,0.0935 43.613,0.2993 -5.651,-0.1309 -12.295,1.0665 -3.806,1.16 0.087,-0.3929 6.446,-0.2806 7.583,-0.5987 3.225,-1.6651 -4.047,-2.5258 -10.245,-3.48 6.751,0.0749 8.264,-0.318 14.67,-0.2806 1.997,0.5987 -5.067,1.9084 3.079,2.0393 2.113,-1.4032 15.324,-0.1496 18.429,-1.16 -5.714,0.0749 -9.514,-0.3929 -3.412,-0.58 -1.234,0.6549 10.601,0.3181 10.812,0.8607 -9.713,0.4116 -12.401,1.1974 -18.433,1.16 7.439,0.0935 -5.874,0.7858 6.884,0.8793 5.836,-0.5987 8.905,-1.4593 22.413,-1.4406 4.93,0.1684 0.041,1.1226 6.778,1.16 -1.519,-0.8981 13.113,-1.0852 3.994,-0.2994 4.973,0 7.776,0.131 10.566,0.2994 -6.858,-0.8232 28.018,-2.0019 22.882,-2.6194 -0.407,1.2349 1.017,2.3013 2.687,2.6194 7.099,-1.029 14.638,-0.2245 33.137,-0.2994 -0.293,-1.1225 2.878,-0.0935 10.766,-0.2806 1.616,-0.5052 -5.047,-0.7484 0.338,-0.8794 8.723,0.4304 9.071,0.4491 10.678,0.8794 6.404,-0.0187 11.348,0.0561 14.453,0.2806 0.518,-0.3929 -1.514,-0.6361 -3.199,-0.8606 24.093,1.0103 37.414,-0.1684 58.318,0 -8.68,-0.449 -11.121,0.9729 -3.964,0.8606 4.326,-0.1309 8.316,-0.2993 10.939,-0.58 -4.572,-0.8419 -2.681,-0.3367 7.604,-0.2806 9.435,-0.3742 -2.858,-1.4219 4.284,-1.4594 7.58,0.5052 2.755,0.8981 6.892,1.16 3.557,0 7.47,0 11.027,0 -6.5,-0.5051 1.169,-0.8793 7.727,-1.16 -5.168,1.0291 -2.431,1.2349 10.567,0.8794 1.149,0.5052 -5.738,0.7484 -0.476,0.8794 2.783,0.1122 13.431,-1.1413 21.853,-0.2994 -2.887,0.0748 -4.403,0.2432 -3.882,0.58 9.97,-0.6548 16.71,0.5987 25.066,0.8794 -8.095,-0.7297 -3.07,-1.422 -6.277,-2.0207 8.063,0.8045 18.983,-0.2058 25.093,0.8607 -12.297,-0.2433 -1.432,1.7587 6.384,1.74 2.333,-0.8981 -10.954,-0.6549 -6.384,-1.74 4.704,-0.711 13.487,0.5987 18.306,-0.2807 -0.368,-0.5426 -5.795,0.1684 -6.924,-0.2993 6.794,-0.0562 -1.843,-0.4678 3.922,-0.58 2.943,0.9729 7.678,-0.3181 11.214,-0.2807 4.472,0.2432 13.233,1.5342 17.589,0.8607 0.248,-0.3742 -6.231,-0.262 -6.734,-0.58 20.313,-0.5613 25.459,0.7671 43.98,-0.2807 1.845,0.4116 5.191,0.711 10.42,0.8607 0.01,-0.5052 3.372,-0.7297 7.739,-0.8607 7.517,0.4303 14.999,0.8981 24.76,1.16 -2.328,0.7297 -7.24,1.1226 6.226,1.16 0.968,-0.3368 -4.631,-0.449 0.443,-0.58 -0.114,0.1497 2.954,0.3181 3.909,0 0.158,-0.2058 0.302,-0.3929 0.445,-0.58 -3.911,0 -7.467,0 -11.023,0 0.752,-0.5239 -0.019,-0.9168 -2.67,-1.1787 16.297,-0.3555 13.876,1.4032 24.814,0.5987 0.71,1.3658 3.983,1.7213 -5.578,2.6007 9.386,-0.2058 16.16,-0.6923 19.242,-1.4407 -11.104,0.1123 -6.71,-0.9542 -9.53,-1.4406 7.06,0.0748 7.431,-0.3929 11.141,-0.58 7.679,0.6361 -9.801,1.5903 6.077,1.74 -11.211,-1.1039 10.703,-0.9168 18.609,-0.58 -1.083,-0.4116 -3.869,-0.4865 0.727,-0.8794 22.183,-0.5426 17.824,2.4884 31.998,0.8794 -1.568,0.58 4.475,0.58 6.701,0.8793 -10.886,0.262 -13.872,0.4303 -18.617,0.58 0.439,0.3181 3.522,0.4491 6.603,0.58 0.467,-0.5426 3.373,-0.6174 7.696,-0.2806 3.669,-0.5426 3.745,-1.8523 12.959,-2.6194 0.399,0.3555 -1.081,0.8232 3.138,0.8794 4.579,-0.7484 -4.522,1.4968 13.536,1.16 -2.894,-0.3368 -4.268,-0.7858 -2.257,-1.4407 8.879,-0.3742 6.726,0.0375 18.421,-0.2993 2.887,1.4968 -9.398,1.7213 -13.41,2.6193 8.03,-0.2432 15.301,-1.1974 22.542,-0.58 -5.621,-0.449 1.152,-1.2348 8.475,-1.4593 6.226,0.1871 -1.657,1.3845 6.084,1.4593 6.288,-0.2619 10.221,-1.029 4.943,-1.4593 13.208,0.318 11.002,-0.711 22.265,-0.58 -0.175,0.5426 -3.449,0.6174 -7.409,0.2993 0.385,0.3368 -1.492,0.8045 2.719,0.8607 5.502,-0.5137 14.683,-0.7085 23.005,-0.9666 0.128,4.1862 0.271,8.1213 0.475,11.1225 -1.684,18.7327 0.355,37.6513 -0.281,55.8104 -0.936,-6.7917 -0.169,23.2074 -1.16,31.9807 0.281,5.2834 2.17,21.4992 1.441,15.4184 -1.291,1.7726 -0.824,12.0666 -1.16,20.1516 0.299,-0.0132 0.58,-0.0255 0.879,-0.0386 0.15,17.7583 -0.73,21.5239 -1.459,27.1708 0.636,21.5734 -0.693,44.3427 0.299,70.8271 -1.029,5.7798 -0.805,11.6439 -1.441,26.3162 0.819,0.3526 0.86,10.4904 0.861,20.9398 -0.938,2e-4 -1.879,-10e-5 -2.814,-10e-5 3.275,0.8046 -6.836,0.58 -6.259,1.16 9.068,0.0355 7.316,0.9773 11.612,1.3788 0.022,-0.2161 0.043,-0.4565 0.062,-0.7248 -0.018,0.2478 -0.034,0.4939 -0.049,0.7385 -13.028,-0.7828 -17.639,0.9292 -28.22,0.0482 11.926,-0.4491 14.68,-1.5903 15.144,-2.9 -14.581,0.2432 -22.694,-0.1123 -26.25,-0.8607 -0.417,0.6549 1.787,1.1039 5.294,1.4407 -4.942,0 -9.884,0 -14.474,0 -1.903,-0.5052 4.565,-0.7484 -0.855,-0.8794 -3.238,0.2994 -6.83,0.5987 -10.088,0.8794 -5.102,-0.8981 4.959,-0.711 5.934,-1.16 -19.779,-0.3929 -9.564,1.4219 -19.851,1.74 -3.434,-0.6361 -3.623,-1.5716 -12.603,-1.74 -2.959,0.5987 -3.272,1.3845 -13.104,1.4406 -6.514,-0.1684 -0.936,-1.3658 -8.415,-1.4406 -0.725,0.3555 -4.058,0.1871 -7.408,0 0.825,0.5051 -2.124,0.7484 -6.237,0.8793 -1.476,-0.449 -8.308,-0.2058 -10.941,0 -1.138,-0.4677 -13.408,-1.5342 -15.276,-0.8793 0.342,0.3742 6.59,0.2619 7.589,0.58 -8.202,-0.0936 -13.712,0.0561 -17.725,0.2993 -4.306,-2.0206 -16.27,-0.4303 -33.771,-1.4593 -9.631,0.6735 3.451,1.4968 -9.128,2.0393 -8.311,-0.6174 1.036,-0.8232 -1.54,-1.74 -2.199,-0.0935 -14.747,-0.7296 -14.461,0 0.328,0.3742 6.579,0.262 7.565,0.58 -8.839,0.7858 -9.386,-0.2432 -14.972,-0.58 1.326,0.711 -4.863,0.8981 -5.804,1.4407 -25.659,0.5426 -26.646,-1.0291 -37.832,-1.74 0.317,0.3742 -6.127,0.2619 -6.564,0.58 7.122,-0.3368 17.668,0.449 7.546,0.58 1.368,-0.4678 -13.378,0.0374 -14.233,0.2806 2.157,0.4678 11.515,0.262 8.389,1.16 -13.524,0.2994 -9.314,-1.4219 -18.848,-0.58 -1.526,-0.5613 4.459,-0.58 6.695,-0.8606 -4.282,-0.0561 -10.203,0.0374 -11.188,-0.2994 5.09,-0.2432 4.513,-0.9355 6.208,-1.4406 -6.43,0.7484 -19.727,0.0187 -9.969,1.16 -14.678,-0.262 -27.963,0.318 -17.396,1.16 -11.497,0.1871 -5.795,-1.0478 -14.7,-0.2807 0.594,-1.0103 2.976,-1.5529 -5.4,-2.32 -0.973,0.5426 -7.17,0.7297 -5.894,1.4407 -17.27,0.0187 -22.977,-0.9542 -30.646,-1.74 7.421,1.3658 -1.909,0.2619 -9.668,1.16 -5.58,-0.3742 -1.548,-1.5342 -15.353,-1.16 16.116,1.2348 -17.393,0.2993 -9.594,1.74 -18.499,-0.6736 -18.133,-0.6549 -36.989,-0.8794 1.289,-0.6361 5.578,-1.029 13.584,-1.16 -5.021,0.8233 16.468,0.8045 14.674,0.2994 -0.157,-0.2058 -0.299,-0.3929 -0.441,-0.58 -13.641,0.1309 -22.969,-0.0936 -29.333,-0.5987 -2.345,0.6361 -8.424,0.9916 -5.536,2.0393 -13.894,-1.16 -26.485,0.4303 -33.208,-0.58 4.555,-0.0374 8.744,-0.0935 6.982,-0.58 -5.096,0.262 -11.319,0.4303 -10.09,1.16 10.767,0.262 12.965,0.3742 17.777,-0.2806 -4.066,0.7109 11.456,1.1974 1.05,1.4406 -0.643,-1.3658 -21.04,0.6736 -14.681,-0.2993 11.246,-0.5426 -13.572,-0.7297 -15.083,-1.3658 0,0 0,0 0,0 z M 95.2667,436.4831 c 0.43032,11.7125 1.29096,-1.3491 1.16,-9.8426 -0.26194,2.2964 -0.65484,3.0142 -1.16,2.5319 0.16838,3.4485 0.35548,6.9103 0,7.3107 0,0 0,0 0,0 z m 108.9699,-6.6232 c 2.5738,-1.0477 -14.7006,-0.3929 -22.2224,-0.58 2.3392,0.2619 5.0269,0.5239 0.5293,0.58 8.4075,0.7858 9.8061,-0.7671 21.6931,0 0,0 0,0 0,0 z m 396.8379,-3.1807 c -2.7304,0.1871 -9.6398,0.4491 -10.5358,0 -4.198,0.0375 -2.9325,0.5239 -3.4875,0.8607 -8.3617,0.131 1.5366,-1.3097 -11.2627,-0.8607 -4.1505,1.6839 23.3391,2.0394 25.286,0 0,0 0,0 0,0 z m 854.2375,253.0439 c -5.69,-0.5613 6.013,-1.2348 1.878,-2.0393 -19.417,0.6361 -3.18,1.7213 -31.027,1.4406 1.938,0.2432 4.225,0.4865 4.181,0.8794 12.622,-0.4116 13.186,-1.0291 11.3,0.58 5.935,-0.0187 5.861,-1.8897 13.668,-0.8607 0,0 0,0 0,0 z m -260.925,-3.7793 c 2.238,0.2245 4.14,0.4677 4.392,0.8606 8.114,-0.4116 6.248,-0.5987 17.626,-0.2806 -2.25,-1.3097 -12.981,-1.1787 -22.018,-0.58 0,0 0,0 0,0 z m -680.3917,-2.0207 c -2.4403,0 -4.8806,0 -7.3209,0 1.8717,0.5426 -4.475,1.74 7.667,1.4407 0.6393,-0.2433 -1.4628,-0.2807 -3.5559,-0.2807 2.0214,-0.2993 7.9508,-0.2993 6.7639,-0.8793 -3.1245,0.0561 -3.5136,-0.1123 -3.5541,-0.2807 0,0 0,0 0,0 z m -285.6292,8.12 c 13.935,-0.9542 -20.4951,-2.9935 0,0 0,0 0,0 0,0 z m 29.9728,10.1407 c 0.3823,0.3367 3.5389,0.1684 3.5236,0 12.0078,0.2806 0.4136,0.6735 7.1573,1.16 9.4507,-0.6923 -5.0775,-1.5342 7.2042,-2.0207 -2.5183,-0.5426 -10.8396,0.842 -17.8851,0.8607 0,0 0,0 0,0 z M 1694.082,416.2205 c -10.189,0.2807 -13.734,1.1226 -16.271,2.0394 6.707,0.0374 12.255,0.1871 14.049,0.58 13.195,-0.5052 -7.973,-0.6361 -9.897,-0.8794 2.045,-0.7483 11.373,-0.8606 12.119,-1.74 0,0 0,0 0,0 z m -32.948,0.2994 c -4.611,0.4303 -11.228,0.711 -12.165,1.4406 6.476,-0.1122 6.914,0.2246 6.982,0.58 6.068,-0.4864 -0.575,-1.0477 5.183,-2.0206 0,0 0,0 0,0 z m 61.058,0.8793 c -4.68,0.0749 -3.464,0.711 -4.568,1.16 6.786,-0.0561 7.501,0.3368 14.285,0.2807 0.251,-0.2807 0.519,-0.58 0.786,-0.8794 -5.609,-0.0748 -6.28,0.2807 -11.245,0.2807 0.247,-0.2807 0.495,-0.5613 0.742,-0.842 0,0 0,0 0,0 z m -94.648,0.2807 c -19.08,-0.1123 -28.72,1.4032 -42.004,2.6193 13.923,-0.1683 27.682,-1.9832 37.195,-1.4406 12.284,-0.2994 -3.441,-0.5987 -2.858,-0.8981 0.569,-0.2806 4.785,-0.2245 7.667,-0.2806 0,0 0,0 0,0 z m -167.508,0 c -3.528,-0.6548 -11.468,0.8232 -22.324,0.58 1.993,0.2432 3.64,0.4677 3.411,0.8793 15.427,0.2807 7.191,-1.4406 18.913,-1.4593 0,0 0,0 0,0 z m -91.127,0.58 c -9.61,0.0748 4.723,0.5052 -0.549,1.16 10.625,0 21.94,0.0374 22.043,-0.8794 -11.636,0.5987 -14.116,0.5987 -21.494,-0.2806 0,0 0,0 0,0 z m -65.61,0 c -10.806,0.4303 4.158,1.1226 -0.811,2.0393 4.261,-0.0374 3.402,-0.5425 3.891,-0.8793 3.12,0.1684 5.899,0.2993 10.856,0.2993 -3.303,-0.58 -15.748,-0.4677 -13.936,-1.4593 0,0 0,0 0,0 z m 519.694,142.9454 c -0.262,-6.7585 -1.178,-4.8864 -0.879,-19.0681 -0.094,21.6417 -2.732,9.7862 -2.301,37.6592 0.336,-4.3541 0.729,-1.3457 0.28,0.05 0.618,10.822 0.506,-9.8751 1.441,0.2565 -0.075,-7.8134 -1.066,-3.5083 -1.16,-11.2603 0.898,-8.0741 1.347,-12.8961 2.619,-7.6373 0,0 0,0 0,0 z m -4.06,18.4346 c -0.262,7.593 1.478,8.0029 0.58,11.4523 0,3.6611 0.356,3.0301 0.58,3.8295 -0.037,-2.9516 0.113,-3.2794 0.3,-3.5982 -0.281,-6.6931 -0.543,-13.3555 -1.46,-11.6836 0,0 0,0 0,0 z m 0,-71.0798 c 0.431,12.6459 -0.205,16.451 0.58,22.4917 -1.309,4.5941 0.543,8.3534 -0.58,15.053 0.262,12.3984 0.655,3.2483 1.16,-0.0858 0.356,12.1395 -0.935,2.9902 -0.58,15.053 1.029,2.253 0.711,-13.2225 1.74,-11.4302 0.038,-9.276 -0.654,-9.1963 -0.879,-15.0658 0.056,-4.4323 0.543,-3.0458 0.879,-3.8485 -0.243,-10.6905 0.412,-10.1205 0.281,-19.0057 -0.748,-1.9735 -1.048,1.8167 -0.861,11.7282 -0.393,-10.2149 -1.029,-14.4102 -0.598,-26.3255 0.916,8.1115 1.197,-30.1985 -0.281,-26.2916 -0.187,10.3769 0.599,6.9896 0.879,10.8887 -0.823,13.6662 -0.636,21.6674 -1.74,26.8385 0,0 0,0 0,0 z m -95.406,-88.2609 c -3.035,-0.1683 -5.735,-0.318 -10.706,-0.2993 0.332,-0.7858 6.527,-0.58 0.996,-1.1413 -7.683,-0.131 -9.73,0.1871 -14.771,0.2806 2.449,0.4491 17.948,1.3471 9.117,1.74 2.133,0.393 7.302,0.5426 13.983,0.58 -6.691,-1.2348 11.021,-0.0748 18.374,0 0.514,-1.347 12.461,0.2807 18.558,-0.58 -3.517,-0.7858 -19.093,0 -25.457,0 3.317,-0.1496 -16.309,-1.9645 -10.094,-0.58 0,0 0,0 0,0 z m 95.986,189.4642 c 0.262,2.3064 0.431,10.8244 0.58,4.2781 0.337,3.4633 -0.187,10.2 1.16,7.9194 0,4.0796 0,7.7883 0,11.4969 -0.449,-1.7356 -0.243,-11.9857 -1.16,-8.3856 0.487,8 -0.037,4.7594 0,15.0753 -0.842,-6.0089 -0.898,-0.1982 -2.039,-4.9004 0.468,3.1877 0.449,12.2594 1.16,12.0196 -0.168,14.1126 -1.197,-4.8021 -1.16,14.0518 -0.73,-0.9418 -0.674,-14.2268 -0.281,-18.6518 -0.86,-3.0787 -0.318,22.8605 -0.58,36.3126 0.711,-11.6314 1.535,-1.1102 2.32,5.8347 -0.234,3.4339 -0.533,0.6941 -0.919,3.8493 -0.754,-0.0766 -1.738,-0.1566 -3.044,-0.2402 -6.033,-0.0561 -8.658,0.4865 -10.899,0 -4.83,0.0936 -2.09,0.7297 -2.368,1.16 -8.536,-0.0935 -3.48,-1.3845 -15.563,-1.16 10.378,1.2536 0.08,1.5155 -16.805,1.16 1.419,0.3742 6.771,0.4491 7.876,0.8607 -1.845,0.6361 -12.494,-0.5426 -15.264,-0.8607 -5.801,0.1871 -1.479,0.6549 4.08,0.58 -3.23,0.2994 -6.48,0.58 -10.082,0.8607 15.23,0.0789 37.774,-0.0553 65.093,0.6652 0.135,-5.0705 0.297,-10.2676 0.496,-15.5639 -0.73,6.0384 -0.898,-1.9045 -0.58,-12.0324 0.505,-1.0894 0.561,3.4329 0.58,8.3001 1.085,-11.487 -1.235,-12.5206 -0.58,-30.9699 0.262,-10.2609 0.655,11.9889 1.16,0.7309 -0.262,-7.2729 -0.973,-12.5218 0,-15.3674 -0.412,-12.5448 -1.515,-16.3525 -1.441,-35.2366 -0.467,10.595 -2.507,14.6287 -2.039,25.7639 0.281,0.1292 0.243,-4.6454 0.299,-7.5503 0,0 0,0 0,0 z M 1655.469,419.1392 c -6.318,-0.0748 -9.953,0.4865 -10.983,0 -11.203,0.2807 0.643,0.973 2.617,1.16 5.119,-0.2058 7.235,-0.6361 8.366,-1.16 0,0 0,0 0,0 z m -1104.6799,0 c -13.9366,-0.2432 -10.5729,0.842 -21.5359,0.8607 8.9858,0.2806 11.4915,1.0664 25.897,0.8793 0.3646,-0.7296 0.0485,-1.4032 -4.3611,-1.74 0,0 0,0 0,0 z m 1140.3249,0.58 c 9.687,-0.9729 -11.544,1.1039 -10.856,0.2807 -10.757,0.5987 9.129,0.5052 -1.204,1.4406 9.293,-0.5425 13.927,0.2433 25.331,-0.2806 0.196,-0.6361 -8.647,-0.6361 -17.537,-0.58 -0.667,-0.4677 3.965,-0.5052 4.266,-0.8607 0,0 0,0 0,0 z m -997.8891,1.74 c 9.3331,-0.6922 -9.3489,-1.609 -15.1536,-2.0393 0.0378,1.1974 2.8188,1.0477 15.1536,2.0393 0,0 0,0 0,0 z m -236.1902,-0.8793 c -4.654,1.1039 16.3019,0.0561 11.6274,1.16 6.4213,0.1123 6.938,-0.2245 7.0913,-0.58 3.3485,0.2993 13.4827,0.0935 11.0775,0.8606 2.1553,0.711 -16.3282,-0.1496 -10.0985,0.8794 -5.9434,0.0935 -6.4988,-0.2619 -11.0966,-0.2807 10.6174,0.0562 5.135,-0.898 -8.0876,-1.16 0.459,0.7859 6.3415,0.58 0.6775,1.16 -0.9355,-0.3929 -8.0421,-1.0664 -8.4312,-2.32 -11.2881,0.0562 -3.6605,1.5717 -17.1497,1.4594 1.4145,0.58 9.8747,0.5613 14.995,0.8606 -0.8297,0.973 -14.5845,-0.767 -10.5855,0.58 -3.2677,-0.7296 -11.2646,-1.1038 -12.1877,-2.0206 10.0334,-0.3555 16.38,-0.9729 24.5844,-1.4594 -8.1266,-0.5612 -18.1992,1.4968 -32.1956,0.5988 1.8502,0.6922 -6.3286,0.6174 -2.9778,1.4406 -10.7296,-0.2058 -6.5031,-1.3284 -4.4522,-1.4406 -3.2027,-0.58 -23.4633,-0.1684 -21.5509,0.58 -1.9124,-0.7484 -26.5409,-0.5426 -24.7013,0.58 -7.932,-0.7297 -18.2449,0.6735 -22.3233,-0.58 -3.9991,0.3367 -12.4952,0.318 -21.7124,0.2806 -1.7474,0.9729 13.7856,0.4865 15.3353,1.16 3.3927,0.7858 -17.0967,-0.2058 -14.0405,0.58 0.1392,0.1871 0.2924,0.3929 0.4316,0.58 7.1961,-0.2806 14.397,-0.5613 21.2365,-0.8606 5.3728,0.1122 -1.1553,0.3554 0.6186,0.8606 4.5615,-0.5239 27.058,-1.6652 28.905,0 15.2106,-0.449 26.3274,-0.1684 32.2259,-0.8606 9.2099,0.0561 -4.9752,0.4864 0.7503,1.16 26.385,-1.2162 60.3861,0.2245 82.1704,-1.16 4.9808,0.0748 3.5644,0.7109 4.5146,1.16 30.7041,-0.5988 3.5899,-1.8336 28.1476,-1.4594 0.3928,0.7671 -11.3139,0.6361 -10.1764,1.4594 8.4571,0 10.3125,-0.5052 21.698,-0.2994 -0.1962,-0.3929 -0.3831,-0.7671 -0.5793,-1.16 9.1957,0.0374 6.1824,1.0852 11.3001,1.4594 11.4867,-0.2994 8.408,-0.842 14.5795,0.2806 10.7147,-0.449 21.1631,-0.7297 32.6391,-0.2806 7.1306,-0.6362 -7.5675,-1.9833 -19.2483,-2.0394 0.5964,-0.2432 3.7594,-0.2806 3.6251,-0.58 13.7555,0.7484 16.5998,2.4323 37.1107,2.6006 -15.9185,-0.9729 7.9338,-0.4303 11.0419,0.2994 8.4256,-0.0748 1.6078,-1.291 -3.9847,-1.16 0.8948,-0.4116 6.3347,-0.0374 7.1716,0.2994 0.5339,-1.3471 -19.5133,-2.002 -40.1295,-1.4594 8.8926,-1.5155 -14.7842,0.1123 -4.6521,-1.74 -16.8509,0.2994 -1.8718,1.3658 -21.0495,1.16 1.9668,0.4303 5.6371,0.7297 7.5997,1.16 -14.3833,0.1871 -10.7545,-1.1039 -25.8426,-0.8794 -2.0884,0.7859 7.6976,0.58 7.9751,1.16 -16.9943,-0.8232 -22.4526,-1.1412 -33.8601,-2.0206 -1.8405,0.5426 1.4408,1.4219 -17.5756,0.8606 -0.1006,-0.187 -0.2112,-0.3929 -0.3118,-0.58 8.938,0.1871 10.1753,-1.4967 -11.7537,-1.4406 -1.0862,0.5987 5.6078,0.5426 11.291,0.58 -2.1742,0.5613 -9.1352,0.7671 -17.5697,0.8606 -4.3062,-0.1122 -9.4806,-0.5051 -3.8621,-0.58 -3.9941,-0.8045 -6.2849,0.7671 -18.2345,0.2807 0,0 0,0 0,0 z m 1019.8773,-0.8607 c -2.921,0.1497 -5.842,0.2994 -11.14,0.2807 -2.936,0.7858 7.087,0.58 6.742,1.16 7.742,0.0561 2.382,-1.029 4.398,-1.4407 0,0 0,0 0,0 z m 101.198,0.58 c -0.172,-0.7483 -6.294,0.393 -14.507,0 -3.025,0.7859 7.019,0.58 6.607,1.16 9.746,0.2059 -1.495,-1.3845 7.9,-1.16 0,0 0,0 0,0 z m -43.52,0 c -3.334,-0.8419 -4.177,0.4304 3.704,0.2807 -1.071,0.5426 -3.127,0.9729 -8.197,1.16 4.66,0.9542 9.234,-0.5987 18.207,-0.2807 -2.824,-0.5238 -7.522,-0.898 -13.714,-1.16 0,0 0,0 0,0 z m -14.506,0 c -5.705,0.6175 -8.714,-0.2058 -18.221,0.2807 1.732,0.6174 22.099,0.2806 25.466,0 3.63,-0.6736 -17.963,-0.6736 -7.245,-0.2807 0,0 0,0 0,0 z m -681.8261,2.32 c -3.5286,0 -2.7713,0.3555 -3.444,0.58 -11.4951,-1.3283 -26.9849,-1.0477 -14.8349,-2.32 -11.5263,0.8046 -22.6925,-0.3367 -32.6453,-0.58 -8.5112,-0.0935 -4.0729,0.842 -10.7808,0.8794 -10.6416,-0.1684 5.5625,-0.449 3.3507,-0.8794 -2.2693,-0.6922 -5.122,0.8607 -17.98,0.2807 3.892,1.5716 -10.9919,-0.1123 -6.7308,1.4406 -7.1959,-0.5425 -9.1855,-0.0187 -18.3616,0 1.214,0.5987 10.0309,0.58 11.2372,1.1787 4.801,0.8981 4.7338,-0.8419 -3.6717,-0.58 4.7153,-0.9167 17.7336,0.393 21.4569,-0.2993 4.7951,0.9355 -11.5947,0.2245 -6.7881,1.16 3.1424,-0.131 6.2858,-0.2619 6.9191,-0.58 5.3282,0.1684 8.9155,0.449 11.1226,0.8793 -3.1633,0.0375 -3.5523,-0.1309 -3.5889,-0.2993 -6.6976,0 7.0034,1.4593 -7.073,1.4593 2.5259,0.2807 8.5105,0.2994 7.5771,0.8607 4.3418,0.58 -0.5285,-2.4323 14.125,-1.4407 9.338,-0.898 -22.741,-0.898 -15.0071,-2.6193 20.1845,0.2619 9.152,1.5529 25.4061,1.74 -0.0774,-0.4116 -0.5077,-0.8232 3.7196,-0.8607 -0.7713,-0.3554 -6.7545,-0.2619 -10.9975,-0.2993 0.6402,-0.3368 6.6609,-0.2432 10.8876,-0.2994 -0.7476,-0.2245 -3.9334,-0.2619 -3.9898,-0.5613 13.8414,0.3555 12.7407,2.1517 0.4892,2.6007 0.5033,0.8045 17.3775,0.6923 21.8864,0.2806 -4.6911,-0.6735 0.2642,-0.5425 -3.7617,-1.4406 -3.5243,0.0187 -2.7616,0.3555 -3.7809,0.58 -6.3819,-0.2058 -0.4425,-0.5239 -0.1474,-0.8607 7.4344,0.1497 7.2006,0.8794 14.5107,0.2807 -1.7286,0.2245 -3.4534,0.4677 -3.3881,0.8793 3.5238,0 7.4001,0 10.9239,0 -0.4289,-0.5238 4.1417,-0.6174 3.3595,-1.16 0,0 0,0 0,0 z m -188.9119,-2.32 c -12.1068,-0.2058 -5.4481,0.58 0.2091,0.58 -2.3798,0.262 -6.5594,0.4304 -10.7443,0.58 3.6508,0.3181 6.7476,0.0936 18.1257,0.2994 -9.4679,1.16 1.3212,2.7503 19.2281,2.6006 4.7352,-1.6838 -10.5202,-1.927 -4.8467,-2.9 -12.8701,0.58 -20.1604,-0.0561 -21.9719,-1.16 0,0 0,0 0,0 z m 997.534,0.2807 c -7.074,0 -14.502,0 -21.576,0 0.056,0.8419 22.222,1.4032 21.576,0 0,0 0,0 0,0 z m 94.471,269.3026 c -3.132,0.0374 -3.644,-0.131 -4.156,-0.2994 -10.307,0.262 5.622,0.7297 1.371,1.4407 3.874,0 7.395,0 10.916,0 0.346,-0.3742 -15.606,-0.8607 -4.612,-1.1413 -1.026,-0.3368 -3.68,-0.1684 -3.519,0 0,0 0,0 0,0 z M 1483.642,420.8792 c -6.92,0.3368 -3.392,1.5155 -19.056,1.1413 5.25,0.6736 8.913,0.4491 18.18,0.2994 0.296,-0.4865 0.592,-0.9729 0.876,-1.4407 0,0 0,0 0,0 z m -591.1578,0.2807 c -9.27,-0.8981 -11.5575,1.16 -28.9188,0.58 8.9506,1.1787 18.6988,-0.2432 28.9188,-0.58 0,0 0,0 0,0 z m -600.8093,1.4593 c 5.5095,0.2807 -1.0469,0.4678 8.0721,0.8607 4.7208,-0.2807 6.4522,-0.7858 13.8053,-0.8607 -10.948,-0.9354 -28.5671,0.0188 -37.151,-1.4593 -8.7011,0.1684 -7.2424,1.1039 -9.5381,1.7587 4.1879,-0.0561 6.3942,0.0561 7.279,0.2806 4.2958,-1.2535 12.283,0.8233 17.5327,-0.58 0,0 0,0 0,0 z m 405.1692,-0.8793 c 6.8619,0.5052 -4.3298,0.8419 -6.6059,1.4593 -4.9727,-0.1122 -3.4115,-0.7483 -4.2545,-1.1787 -6.3316,0.0749 -7.9558,0.5052 -6.6769,1.1787 12.0654,0.2433 26.8824,0.2807 18.4246,1.4407 11.6937,0.2619 4.9944,-0.9542 10.5729,-1.16 6.5216,0.6174 0.599,0.8419 0.5102,1.74 2.7601,-0.1871 11.2691,-1.2161 10.9056,0 16.931,-1.1787 8.7877,-2.6381 -4.6734,-4.06 -11.3798,0.9542 2.132,1.291 -18.2026,0.58 0,0 0,0 0,0 z m 460.0479,0.8793 c -0.986,-0.318 -7.364,-0.2058 -7.282,-0.58 -7.938,0.8046 -14.828,1.7213 -22.047,2.6007 1.249,0.8045 11.261,0.0187 7.158,-0.58 3.047,0.5987 10.014,0.9355 14.126,1.4406 7.351,0.1497 10.242,-1.7025 10.967,-0.2806 7.163,-0.5239 2.938,-0.5239 14.494,-0.2807 -18.09,-0.9167 6.464,-0.5051 7.768,-1.4593 -10.562,-0.0561 -19.732,-0.0374 -18.54,0.8793 -7.666,-0.3554 -16.059,-0.6361 -17.647,-1.4406 0.782,-0.3555 6.76,-0.2619 11.003,-0.2994 0,0 0,0 0,0 z m -43.866,2.6007 c 2.841,-0.1497 5.684,-0.2994 10.607,-0.2807 -2.766,-0.2619 -3.749,-0.6548 -3.302,-1.16 -9.169,0.0375 -11.374,0.5613 -14.4,-0.2806 -8.439,-0.131 1.889,1.3097 -11.063,0.8606 1.006,0.3181 7.361,0.2059 7.295,0.5988 1.163,-0.6362 6.471,-0.7858 10.863,0.2619 0,0 0,0 0,0 z m -111.787,-1.74 c -9.5207,0.0748 4.908,0.5052 -0.056,1.16 2.471,-0.131 20.408,0.131 17.893,0.8793 5.187,1.1788 23.679,-1.2161 21.777,0.2807 4.222,-0.0374 2.864,-0.5239 3.6,-0.8607 -12.689,0.2433 -12.629,-0.4677 -3.462,-0.5987 -1.372,-0.3929 -9.137,-0.2245 -14.417,-0.2806 -0.744,0.5239 4.177,0.6174 3.428,1.16 -10.873,-0.4677 -18.926,-1.1787 -28.763,-1.74 0,0 0,0 0,0 z m 345.424,264.6439 c 8.505,0.0935 13.683,-0.0375 17.722,-0.2807 -2.831,-0.5051 -6.705,-0.0374 -10.896,0 -1.422,-0.5051 2.416,-0.5426 6.956,-0.58 -4.79,-0.7858 -19.338,-0.0187 -13.782,0.8607 0,0 0,0 0,0 z m 72.064,0 c 8.157,0.0935 13.314,-0.0562 13.963,-0.58 -3.582,-0.5426 -1.862,0.318 -7.163,0.2806 -3.322,-0.2058 -5.675,-0.5239 -7.69,-0.8606 -3.513,0 -2.538,0.3554 -3.42,0.58 -2.783,0.0374 -3.249,-0.1123 -3.729,-0.2807 -9.214,0.8232 11.509,-0.1122 8.039,0.8607 0,0 0,0 0,0 z M 1062.506,424.0599 c 3.117,0.4303 5.521,0.9168 14.323,0.8793 -1.677,-0.6174 5.359,-0.5612 10.996,-0.58 -8.353,-0.7109 -12.63,-0.3554 -25.319,-0.2993 0,0 0,0 0,0 z m 754.968,210.8392 c 0.786,-10.7712 -0.692,-10.4566 0,-25.9569 -0.281,-0.1131 -0.58,-0.2336 -0.861,-0.3466 0.711,10.0091 0.187,14.0634 0.861,26.3035 0,0 0,0 0,0 z M 380.2179,687.5438 c 0.9489,-0.6549 -10.24,-0.3181 -11.0261,-0.8607 -1.8933,1.4032 -7.878,-1.0103 -28.8806,-0.58 -0.3971,-0.3368 0.9813,-0.5239 3.7789,-0.5987 -17.2299,-0.2432 5.0548,0.9916 7.2719,1.7587 13.3203,-0.2058 15.5336,0.4865 28.8559,0.2807 0,0 0,0 0,0 z m 21.8323,-262.3239 c 0.5454,-0.2432 -1.5782,-0.2619 -3.7018,-0.2807 -2.4634,0 -4.9268,0 -7.0382,0 1.4851,1.1788 13.7613,1.6839 5.4318,2.9 3.1933,0.0562 3.4336,-0.1122 3.3232,-0.2806 15.9024,-2.5819 32.2663,1.6839 54.0284,0 3.4973,-0.0187 2.5973,-0.3555 3.1672,-0.58 -2.7865,0.0374 -3.2372,-0.131 -3.688,-0.2994 -2.0854,1.2162 -23.6228,-0.1496 -14.7522,-0.58 -0.9083,-0.3367 -3.6061,-0.1496 -3.5144,0 -2.46,0 -4.92,0 -7.38,0 1.6377,0.3742 6.6131,0.4678 7.9192,0.8794 -11.8081,-0.3555 -26.0493,-0.6548 -19.3597,-1.74 -6.9877,0.0748 -9.1238,0.58 -13.8627,0.8606 -4.6178,-0.0748 -5.1461,-0.8793 -0.5728,-0.8793 0,0 0,0 0,0 z m -93.3494,0.2993 c -11.4272,-0.2245 -6.4293,0.7859 -17.8334,0.58 7.5932,0.7297 15.5431,-0.3554 25.5143,0.2807 -1.6874,-0.3742 -6.6649,-0.449 -7.6809,-0.8607 0,0 0,0 0,0 z m 209.4918,1.16 c -1.5633,1.0478 8.3056,1.1413 18.8366,1.16 1.5788,-1.0664 -7.9402,-1.1412 -18.8366,-1.16 0,0 0,0 0,0 z m -46.7089,0 c -10.3393,0.3368 13.4806,0.2433 8.0278,1.16 4.8892,-0.0374 10.1399,-0.0561 10.6759,0.2807 3.7546,-0.1871 3.4993,-0.6548 10.5569,-0.58 -0.6427,-0.5426 -12.0318,-0.1871 -11.3497,-0.8607 -7.7632,0.5613 -9.1671,0.5613 -17.9109,0 0,0 0,0 0,0 z m -7.0239,0 c -6.8589,0.2807 2.7715,1.7588 11.5227,1.74 -3.5068,-0.6174 -5.9973,-1.2909 -11.5227,-1.74 0,0 0,0 0,0 z m 842.4022,0.2807 c -4.945,0.0748 -1.409,0.8793 -7.372,0.8793 -0.171,0.4304 21.22,0.4117 3.275,0.58 6.23,1.0478 10.373,-0.5051 18.343,-0.2806 -2.344,-0.2619 -4.339,-0.5239 0.254,-0.5987 2.79,-0.7858 -17.274,0.2058 -14.5,-0.58 0,0 0,0 0,0 z m -21.416,0 c -4.234,0.0561 -2.22,0.2993 -0.114,0.2993 -0.83,0.3368 -6.759,0.2433 -10.983,0.2807 -0.2,-0.4116 7.225,1.3097 6.607,2.0206 18.461,-0.6548 4.828,-1.6464 4.49,-2.6006 0,0 0,0 0,0 z m -18.114,0.58 c -11.657,-0.7858 -28.229,-0.58 -36.232,0.2993 8.014,1.2349 30.216,0.842 36.232,-0.2993 0,0 0,0 0,0 z m 118.435,0.2993 c -20.871,-1.1038 -63.989,0.3742 -25.796,1.16 -1.103,-0.6361 24.337,-1.0477 36.372,-0.58 0.561,-0.4116 14.621,-1.1412 14.676,-0.58 9.863,-0.7296 -29.775,-0.7858 -25.252,0 0,0 0,0 0,0 z m -169.569,1.74 c 6.082,-0.4303 -1.158,-1.9832 7.796,-1.4406 5.3,-0.131 -1.288,-0.3742 0.271,-0.8794 -11.241,0.0375 -34.309,0.9917 -36.148,0 -5.703,0.3368 -7.617,0.9542 -18.115,0.8794 -0.456,0.4303 38.454,-0.8232 46.37,0.8606 -0.818,0.393 -14.864,0.5426 -0.174,0.58 0,0 0,0 0,0 z m 596.056,202.1882 c 0.748,1.4938 0.225,-13.7384 1.16,-10.1351 -1.048,-8.5096 -0.412,-15.8839 -1.16,-25.1786 0.262,-2.6915 1.553,-1.2546 1.74,-13.8325 -0.786,-0.5124 -0.58,5.8189 -1.16,-0.2414 -0.131,-11.4929 0.898,-8.2194 0.58,-21.5415 -1.441,2.0174 -0.262,-27.9039 -1.74,-24.8796 0.112,6.8808 0.823,6.4599 0.58,17.9109 -0.075,3.8073 -0.58,2.0773 -0.58,6.902 -0.823,-3.4552 0.43,-9.3202 -0.299,-14.1074 -0.58,1.0696 -0.562,9.625 -1.142,10.6454 0.113,5.116 0.356,-1.3627 0.861,0.009 0.187,13.744 -2.002,-1.0345 -1.74,13.85 0.842,-2.9614 0.898,-2.9559 1.74,0.2145 -0.393,5.7648 0.168,24.0654 -0.861,13.8616 -0.617,0.8716 0.3,12.023 0.861,10.8369 0.112,5.8728 -0.225,6.434 -0.58,6.643 0.374,15.2091 1.123,17.6473 2.039,14.9937 0.842,3.5546 -0.673,4.8494 -0.299,14.0487 0,0 0,0 0,0 z M 1500.625,428.1199 c 8.836,-0.6548 -9.618,0.2432 -17.881,0 10.074,0.1497 6.165,1.3658 16.969,1.4406 -3.639,-0.3367 -2.785,-0.58 4.22,-0.58 2.014,-0.4116 -13.58,-0.6922 -3.308,-0.8606 0,0 0,0 0,0 z m -352.356,0 c -3.715,-0.6548 -22.417,-0.1123 -32.204,-0.2807 1.505,1.3471 25.73,-0.5987 28.573,0.8607 5.626,-0.0936 -3.046,-0.5052 3.631,-0.58 0,0 0,0 0,0 z m 665.145,68.0811 c -0.056,-3.8153 -0.281,-1.6116 -0.281,0.1315 -0.393,-0.8585 -0.243,-8.5849 -0.299,-14.1196 -0.599,8.3095 -0.823,-1.2496 -1.74,1.0107 0.037,-4.1394 -0.056,-6.1393 -0.281,-6.6824 1.628,-1.3813 -0.935,-21.486 -1.16,0.7374 0.898,-4.6694 0.824,-2.9127 1.16,6.108 -0.692,10.2728 0.113,17.7486 -0.879,21.5818 0.112,6.417 0.617,8.6265 0.58,17.1754 -0.711,2.2298 -1.085,10.1101 -2.32,3.9802 0,15.0791 2.095,4.6015 2.32,17.1894 -0.543,11.9536 -1.01,-5.9937 -1.74,-3.1903 0,3.0301 -0.355,2.3957 -0.58,3.4256 0.075,4.3512 0.861,4.2995 0.879,-0.0892 0.3,1.3229 1.011,13.5082 0,10.125 0.431,7.104 2.713,-11.0899 1.74,-20.9117 -0.131,-5.788 1.591,-6.1889 1.441,-0.2684 0.767,-2.2328 -1.197,-13.4942 0.58,-10.8899 0,-4.8692 0,-9.3907 0,-14.2599 -0.225,0.7805 -0.281,3.578 -0.58,3.6846 0,-4.5007 0,-9.3477 0,-14.1947 0.43,3.9671 0.73,3.8367 1.16,-0.5435 0,0 0,0 0,0 z m -618.247,-67.7818 c -9.102,-0.0374 -11.333,0.4491 -18.372,0.58 2.633,0.6549 22.337,0.2807 18.372,-0.58 0,0 0,0 0,0 z m 604.351,251.3039 c 1.348,0.2994 7.533,0.1871 7.925,0.58 -10.882,0.3181 2.148,0.7484 -5.042,2.32 4.19,-0.2362 7.358,-0.595 9.155,-0.9975 2.581,-0.5775 2.337,-1.245 -1.77,-1.7701 -2.319,-0.2971 -5.871,-0.5486 -10.844,-0.7124 -13.84,0.1497 14.779,0.4303 0.576,0.58 0,0 0,0 0,0 z m 10.715,-31.7934 c -0.449,-8.8183 -0.842,12.2353 -1.178,16.6754 -0.281,-0.2476 -0.58,-0.5116 -0.861,-0.7592 1.328,13.0273 1.759,-2.5275 3.48,9.9623 0.43,-13.429 0.73,-19.0739 0.281,-31.5132 -0.337,0.4583 -0.15,3.3473 0,3.4539 -0.113,8.8923 -1.329,1.7879 -0.861,-7.4737 -0.43,2.4519 -0.43,10.9983 -0.58,17.0324 0.225,-1.5313 0.468,-3.3971 0.861,-2.7519 0.168,7.7034 -0.562,4.3596 -0.58,9.8199 -0.393,-0.3347 -1.123,-14.5219 -0.562,-14.4459 0,0 0,0 0,0 z m -673.071,33.8141 c 7.264,-0.1497 -8.479,-1.291 -8.566,-2.6007 -7.771,-0.1309 -9.33,0.1871 -14.171,0.2807 2.793,0.58 11.234,0.6548 15.036,1.16 -0.715,1.1413 -11.321,-0.2058 -14.006,0.58 -3.779,1.3096 17.901,-0.5052 21.707,0.58 0,0 0,0 0,0 z m 574.044,-251.8839 c -3.898,0.0561 -2.013,0.2993 -0.264,0.2993 -1.013,0.3555 -7.257,0.2994 -6.996,0 -5.677,0.0936 2.705,0.5052 -4.002,0.58 -1.901,0.58 10.186,-0.0561 10.734,-0.2806 8.091,-0.0561 0.838,1.029 2.569,1.4406 6.981,0 5.238,-0.7858 14.835,-0.58 -5.485,-0.5051 -10.262,-1.029 -16.876,-1.4593 0,0 0,0 0,0 z m 65.181,251.6032 c -1.035,0.3742 7.041,-1.3845 17.284,-0.58 12.564,-0.0374 -8.66,-0.9729 2.628,-0.8793 -9.613,-0.1684 -20.497,0.5051 -35.123,0.58 -2.974,0.5425 20.483,0.1871 7.565,0.58 1.029,0.3367 4.016,0.1684 3.851,0 2.746,-0.0562 3.261,0.1122 3.795,0.2993 0,0 0,0 0,0 z m 12.342,-2.0393 c -1.032,-0.3368 -4.014,-0.1684 -3.848,0 -4.601,-0.0562 -5.392,-0.8607 -0.848,-0.8607 -6.953,-1.029 -4.784,0.8232 -17.554,0.2807 5.958,0.7296 8.901,1.2348 -2.932,0.58 -8.278,0.8419 21.556,0.58 25.182,0 0,0 0,0 0,0 z m -537.085,1.74 c -1.314,-0.3929 -8.914,-0.2433 -14.54,-0.2807 6.501,-0.7484 35.849,-0.2993 39.747,0.2807 3.022,-0.1871 6.057,-0.3555 7.352,0 -0.531,-0.262 7.221,-0.6923 2.905,-0.8607 0.479,-0.318 6.855,-0.2058 6.581,-0.5987 10.989,0.2058 -2.719,0.6174 0.809,1.16 12.371,-0.8232 10.059,-0.131 25.203,0 -3.049,-0.8419 -19.646,-0.5613 -19.073,-1.74 -11.213,0.9729 -24.596,0.3368 -32.566,-0.58 12.114,1.3471 -29.444,1.9832 -49.201,1.74 0.333,-0.5613 -6.566,-0.4116 -14.914,-0.8793 -6.147,-0.8607 -3.162,1.0664 7.384,0.5987 0.062,0.6361 -14.973,0.1122 -21.164,0.2806 7.672,0.5052 3.723,0.8981 7.73,1.1413 14.042,0.0561 1.256,-0.2245 3.298,-0.8606 3.5,0 7,0 10.85,0 -18.004,1.4032 27.422,0.1871 10.695,0.2993 14.639,-0.0935 15.623,0.8607 28.904,0.2994 0,0 0,0 0,0 z m 337.757,0.2993 c 2.369,-0.0935 13.365,-0.7297 14.356,0 14.093,-0.6922 0.468,-1.4593 16.911,-1.4593 -1.332,-0.3181 -7.512,-0.1871 -7.86,-0.58 -6.048,0.2806 -12.115,0.5425 -9.56,1.4593 -7.465,-0.1309 -9.288,0.1871 -14.108,0.2807 1.441,-0.3555 4.029,-0.5987 10.345,-0.58 0.394,-0.7484 -2.497,-1.2536 -11.858,-1.16 -3.548,0.7484 -0.164,1.4219 1.774,2.0393 0,0 0,0 0,0 z m 35.033,-1.16 c 1.95,0.2245 4.267,0.4678 4.267,0.8607 6.09,0.9354 1.08,-1.1413 6.312,-1.16 4.249,0.0561 3.27,0.5238 4.289,0.8793 6.115,-0.2058 10.896,-0.3368 14.352,0 9.374,-0.4677 -11.927,-0.8045 -15.395,-1.16 -6.996,0 -3.843,0.7858 -13.825,0.58 0,0 0,0 0,0 z m 108.597,0.8607 c 2.555,0.8419 5.172,-0.4491 10.234,-0.2807 -4.29,-0.8232 -14.341,-0.3555 -8.397,-1.4593 -10.741,-0.262 -11.44,-0.262 -21.684,0 -7.383,-0.7858 0.374,0.7671 11.127,0.2993 -1.044,0.3742 -5.872,0.4491 -6.182,0.8607 -8.639,-1.74 -24.258,1.0103 -14.613,-0.2807 3.343,0.2058 5.742,0.5239 7.827,0.8794 1.727,-0.7671 26.599,-0.3742 21.688,-0.0187 0,0 0,0 0,0 z m 52.062,-249.5639 c 13.214,-0.1705 14.387,-0.1856 25.186,-0.0454 -0.014,1.0526 -0.029,2.1969 -0.046,3.4522 -0.355,0.6854 -0.524,-0.169 -0.598,-2.8081 -0.318,3.3616 -0.187,7.6346 0,13.5615 0.336,-0.6399 0.168,-3.5449 0,-3.3904 0.636,-11.8592 0.654,-2.3052 1.459,-1.3394 0.181,-3.7634 0.209,-7.2459 0.171,-10.4617 -9.442,0.1068 -17.748,0.7325 -21.568,-0.11 -5.48,0.2432 0.629,0.4303 -4.604,1.1413 0,0 0,0 0,0 z M 393.405,680.3031 c -2.0526,0.2807 -8.0022,0.2807 -6.8569,0.8607 5.2264,-0.1497 9.0295,-0.4304 14.2538,-0.58 -10.1932,-0.262 -8.9912,-1.4407 -21.9295,-1.4407 4.2662,0.4303 3.3563,1.291 14.5326,1.16 0,0 0,0 0,0 z m 1303.304,0.58 c -0.734,-0.4116 -1.468,-0.8232 2.678,-0.8793 0.769,-0.6736 -10.441,-0.3181 -11.313,-0.8794 -3.777,0.0748 -1.909,0.58 -6.789,0.5987 2.164,0.4491 11.42,0.2432 8.423,1.16 -3.115,0.0374 -3.622,-0.1309 -4.128,-0.2993 -6.952,0.4303 4.424,0.6174 11.129,0.2993 0,0 0,0 0,0 z m -595.771,0 c 4.834,-0.1122 -0.306,-0.5239 -4.188,-0.58 9.959,-0.9168 -7.109,-1.4032 -8.338,-2.32 4.977,0.7484 19.047,0.2994 21.659,0.58 4.073,-0.2058 -1.273,-0.9729 10.145,-1.16 -1.832,-0.7297 -13.995,-0.0374 -10.487,0.58 -3.772,-1.0664 -15.267,0.1871 -14.839,-0.8793 -16.194,-0.2246 -19.62,0.5051 -20.486,1.4406 15.504,-0.3929 8.345,1.1413 21.835,0.8794 0.163,0.2806 -4.067,0.2245 -6.822,0.2993 1.384,0.58 7.442,0.7671 11.521,1.16 0,0 0,0 0,0 z m 373.144,0 c 8.021,-0.0374 7.097,-0.7484 6.174,-1.4593 -2.967,0.2245 -7.789,0.318 -14.101,0.2993 1.758,0.4491 11.39,0.2432 7.927,1.16 0,0 0,0 0,0 z m -316.454,-1.16 c 0.897,0.3181 3.591,0.1497 3.499,0 9.059,-0.0561 11.463,0.4303 14.882,0.8607 4.84,-0.0936 2.69,-0.7297 2.769,-1.16 -7.95,0.7109 -6.914,-0.4304 -18.011,-0.2807 0.908,0.3368 -0.386,0.5052 -3.139,0.58 0,0 0,0 0,0 z m 240.756,0.58 c 4.156,-0.0561 1.872,-0.2993 -0.227,-0.2993 4.143,-0.9916 19.491,-0.131 24.741,-0.58 0.15,-0.711 -17.929,-0.58 2.816,-0.8794 -4.351,-0.6548 -22.807,-0.1122 -32.372,-0.2806 1.502,-0.7858 14.47,-0.7297 12.999,-1.74 -10.761,0.5425 -22.634,1.0103 -23.399,2.32 16.154,0.0935 11.154,0.8793 15.442,1.4593 0,0 0,0 0,0 z m -18.28,-0.58 c 1.721,0.4303 4.449,-0.1309 10.494,0 -9.544,-1.0664 -14.481,-0.6548 -32.829,-0.8793 0.138,0.1871 0.289,0.3929 0.427,0.58 -3.498,0 -7.345,0 -10.842,0 16.456,0.9729 19.807,0.2993 36.023,0 0.882,0.2432 -1.189,0.2806 -3.273,0.2993 0,0 0,0 0,0 z m 429.549,-49.5159 c -0.486,4.4367 -1.01,8.1382 -1.16,16.4355 0.805,-0.0812 1.235,-4.8546 1.16,-16.4355 0,0 0,0 0,0 z m -666.72,48.9359 c -9.475,0.5239 9.453,0.0187 2.96,-0.8793 -7.905,-0.3555 -16.46,-0.6362 -18.69,-1.4407 -13.63,1.16 16.783,1.1787 15.73,2.32 0,0 0,0 0,0 z m 63.024,-2.0393 c 4.264,0.1122 5.102,1.4032 0.375,0.58 -10.132,0 9.247,0.7858 -6.615,0.58 6.882,0.3742 22.208,0.8232 28.844,0.2806 -0.83,-0.7297 -14.25,-0.4116 -15.087,-1.16 -0.857,-0.2432 1.227,-0.2619 3.31,-0.2806 -1.678,-0.4304 -4.468,0.1122 -10.827,0 0,0 0,0 0,0 z m 54.776,1.4593 c -6.27,-0.4864 -13.536,-0.898 -25.752,-0.8793 8.424,0.58 13.532,1.4219 25.752,0.8793 0,0 0,0 0,0 z m -677.7828,-1.16 c 8.7225,-0.0374 0.7694,-0.9916 -0.3251,-1.16 -8.7633,-0.1309 -7.8847,0.5239 -18.077,0.2807 3.4217,1.029 12.5382,-0.1123 18.4021,0.8793 0,0 0,0 0,0 z m -32.2946,-0.5987 c -1.2038,-0.5987 -13.6854,-0.2619 -14.5351,-0.8606 -6.8969,1.74 -18.7476,-1.0291 -18.0815,0.2806 -2.8287,-0.1497 -5.6569,-0.2993 -10.8878,-0.2806 10.4884,1.5154 32.7077,0.9729 43.5044,0.8606 0,0 0,0 0,0 z m 769.9954,0 c 9.577,0.2058 -3.766,-1.3658 6.151,-1.16 0.416,-0.3929 -18.556,-0.58 -7.594,-0.8606 -15.098,-0.6362 2.29,1.74 1.443,2.0206 0,0 0,0 0,0 z m 174.598,-0.8606 c -0.179,0.6361 12.673,0.1309 18.032,0.2806 -0.232,-0.2806 -4.374,-0.2245 -7.212,-0.2806 1.18,-0.262 2.708,-0.5239 6.5,-0.58 -3.348,-0.6736 -12.146,0.5051 -17.32,0.58 0,0 0,0 0,0 z m -182.134,15.9593 c -6.566,-0.8232 -14.807,-1.5342 -18.162,-0.2806 -6.857,-0.7484 3.524,-1.0103 -4.531,-1.4594 -9.912,0.4303 -5.614,-0.4864 -21.821,0 2.404,-1.1226 -9.491,-1.029 -12.079,-1.74 6.566,-0.1684 15.704,0.8607 18.282,0 -5.612,0.0187 -3.034,-0.8419 -0.191,-0.2806 11.245,0.5051 -12.601,1.1226 1.187,1.74 3.026,-1.2349 23.85,0.898 36.512,0.8793 -4.484,0.6362 10.262,1.0665 0.803,1.1413 0,0 0,0 0,0 z m -65.983,-1.74 c -8.786,0.0187 -14.568,-1.8148 -12.057,-1.74 0.246,0.3742 10.093,0.3742 10.899,0 -2.474,-0.0187 -4.608,-0.0561 -4.066,-0.2993 16.246,0.1122 11.134,0.8793 15.393,1.4593 -8.546,0.3742 -11.358,-0.1497 -14.239,0.2807 2.124,0.0187 4.26,0.0561 4.07,0.2993 0,0 0,0 0,0 z m -199.503,-14.5187 c 2.036,0.5239 3.776,-0.1122 7.172,-0.2806 1.419,1.2909 18.596,-0.4304 21.444,0.2806 -3.943,0.4303 -13.357,0.449 -17.305,0.8794 4.951,0.1122 6.136,0.3554 10.824,0 -0.592,0.8045 -11.061,0.8232 -13.511,1.4406 -1.351,-0.5426 -5.847,0.1684 -7.494,-0.2806 13.691,-0.5052 -9.146,-2.0207 -1.13,-2.0394 0,0 0,0 0,0 z m 354.201,0 c 0.71,-0.8981 -16.202,-2.9748 -3.095,-4.06 3.69,0.7297 6.062,1.5529 5.832,2.6194 8.285,-0.5613 12.769,0.2806 17.333,-0.58 18.437,2.6193 -12.749,-0.262 -20.07,2.0206 0,0 0,0 0,0 z m 56.894,-0.8606 c -2.485,0.8232 5.481,0.7484 4.638,1.4406 -7.457,-0.5987 -29.118,0.2619 -21.864,-0.2806 7.108,-0.2807 6.428,-1.1413 17.226,-1.16 0,0 0,0 0,0 z M 936.1867,429.2799 c 11.5448,-0.6548 17.5135,0.9729 10.8758,1.4406 2.7847,-0.9729 -14.692,-0.3554 -10.8758,-1.4406 0,0 0,0 0,0 z m 423.0643,-13.92 c -10.44,-0.5239 -16.7,-0.0561 -17.761,-0.8794 10.44,-0.2432 9.076,0.4117 18.037,0.2807 0.851,-0.2994 6.377,-0.6923 7.254,-0.2807 -5.022,0.0749 -4.214,0.6362 -7.53,0.8794 0,0 0,0 0,0 z m 336.514,280.0232 c 1.422,0.3929 5.816,0.5613 4.605,1.16 -11.296,-0.3742 -23.042,0.2994 -31.702,0.8794 -0.356,-0.3929 -0.713,-0.7858 -1.053,-1.16 17.599,0.318 21.554,-0.3742 28.15,-0.8794 0,0 0,0 0,0 z m 23.518,1.74 c 1.363,-0.4303 -5.64,-1.4968 2.18,-1.4406 0.227,0.6174 14.906,1.5716 8.704,1.74 -2.703,-0.6174 -6.236,-0.6174 -10.884,-0.2994 0,0 0,0 0,0 z m -611.576,-4.64 c -8.767,0.0749 4.326,0.7671 4.204,1.16 -6.446,-0.1684 -15.251,-0.1497 -18.32,-0.58 6.389,0.0749 10.135,-1.3658 14.116,-0.58 0,0 0,0 0,0 z m 132.22,-2.0393 c 18.581,-0.1123 11.522,1.4406 30.044,1.74 -7.008,0.58 -23.687,0.4116 -28.126,1.16 0.346,-0.5426 -4.298,-0.6362 -4.291,-1.16 6.658,-0.0562 7.976,0.3367 14.647,0.2993 -3.065,-0.898 -2.841,-0.5613 -0.975,-1.4593 -4.929,0 -7.999,0.1496 -10.717,0.2993 1.074,-0.5051 -5.776,-0.7484 -0.582,-0.8793 0,0 0,0 0,0 z m -130.054,-0.2807 c -7.239,0.262 -14.277,-0.9542 -7.902,-0.8793 1.371,0.5425 5.892,-0.1497 7.562,0.2993 -10.414,0.2432 8.698,0.4303 4.2,1.16 -6.359,-0.0374 -8.286,0.2807 -6.539,0.8607 -4.249,-0.0375 -10.535,0.0561 -11.082,-0.2807 2.785,-0.0561 7.044,0 6.87,-0.2993 -2.113,0 -4.247,-0.0375 -3.684,-0.2807 6.348,0.0187 9.023,-0.2245 10.575,-0.58 0,0 0,0 0,0 z m 50.328,0 c -9.9,-0.0748 -11.434,-0.8606 -15.315,-1.4593 13.547,0.2993 16.383,1.478 26.586,2.0393 -11.075,-0.2619 -21.282,0.8981 -25.179,0.2807 4.759,-0.2807 13.572,-0.262 13.908,-0.8607 0,0 0,0 0,0 z M 101.6467,530.1719 c 0.4677,-8.2716 1.0664,-15.0052 1.4594,-24.3291 -0.9355,-3.848 -2.6381,12.8808 -2.0394,5.7495 -0.131,-10.1041 1.0852,-2.4885 1.16,-10.2702 -1.2536,6.9889 -1.2536,-35.5798 0,-36.3123 -0.0374,6.3774 0.2806,8.7712 0.8794,7.8367 -0.1123,16.9462 0.6174,24.2181 0.8606,37.1243 -1.1413,8.4656 -1.4219,35.3095 -0.2806,50.4334 -1.6839,8.8154 0.187,26.9742 -1.16,39.6274 0.5238,3.7181 0.9729,-10.6675 1.16,0.375 -0.973,6.7922 -1.2723,1.0117 -1.74,10.4855 0.4303,0.8325 1.0664,-1.1202 1.16,3.8737 -0.58,-0.8661 -0.5988,5.1744 -0.8794,7.2412 0.1123,-19.9008 -1.2348,0.7788 -1.4406,-15.0204 0.4303,-6.3062 1.4967,7.2034 1.4406,-10.6118 -0.2619,-6.5028 -0.5426,-12.6689 -1.4406,-11.5827 0,-5.0117 -0.1497,-7.9368 -0.2994,-11.2236 1.1039,7.2464 -0.2994,-25.242 0.8794,-10.3444 0,1.0715 -0.0562,11.049 0.2806,18.3266 0.9542,-6.0237 0.4116,-14.0875 0,-25.6894 0.7297,-4.2666 0.9168,2.5841 1.16,-2.9817 -0.5987,-9.2033 -1.291,2.5603 -1.74,-4.4554 -0.0561,2.8322 -0.0187,7.1426 -0.2806,7.0138 0.8793,-14.9087 -0.0936,-21.5322 0,-29.354 0.5425,5.6862 0.7483,-8.4717 0.8606,4.0879 0,0 0,0 0,0 z m 1.16,132.1119 c 0,3.5521 0,7.1042 0,11.0115 -0.8606,0.6774 -0.9916,-13.5903 -1.74,-4.0051 0.1497,-16.074 1.1039,0.7742 1.74,-7.0064 0,0 0,0 0,0 z m 3.1994,-71.652 c 0.9354,-4.9023 -1.1413,-2.8825 -1.16,-7.8233 0.1683,8.8708 0.449,17.0629 -0.58,17.7856 0.2993,-10.1344 0.2993,-14.7208 0,-25.4311 1.2722,10.7293 1.0103,-10.8321 2.0206,-13.5155 0.2245,8.1604 0.6174,14.6286 0.58,25.4518 -0.4116,-1.9072 -0.711,13.7551 -0.8606,3.5325 0,0 0,0 0,0 z m 1.16,29.0601 c -0.5988,1.9495 -0.0936,17.7941 -1.16,14.0915 0.1683,-9.4331 -0.1123,-13.0082 -0.8794,-11.0852 -0.0561,-7.0555 0.3368,-8.0058 0.2994,-14.3451 1.0664,-3.5376 0.9354,7.6327 1.4406,11.2634 0,-2.0979 0.2432,-4.1305 0.2994,0.0754 0,0 0,0 0,0 z m 203.3087,57.7112 c 3.2672,1.0103 -11.4705,0.5052 -14.291,0.2807 4.2887,0.8419 2.2188,1.0851 -6.8327,1.4406 3.3655,-1.1974 -9.8692,-0.7671 -18.03,-2.0206 -2.0095,0.898 8.5027,1.1787 -3.7053,1.4406 -9.4665,-0.3181 -17.8166,0.131 -32.1369,0.2994 -3.216,-0.9355 3.0607,-1.1039 6.8756,-1.4594 -9.7658,0.2058 -7.0305,-0.58 -14.3638,-0.58 1.4307,0.4678 -4.4855,0.7858 -6.9652,0.2807 12.5496,-0.3181 -16.8272,-1.0852 -3.587,-1.4407 0.7214,0.3555 3.8514,0.1871 6.9794,0 -3.4063,1.2348 14.0212,0.8045 17.9126,1.4407 6.8167,-2.002 25.3716,-1.3097 46.7387,-0.58 1.4514,0.5051 -5.1589,0.7483 0.0947,0.8793 0.6541,-0.4116 7.6473,-0.3368 10.7629,-0.58 -0.2939,0.4865 2.5286,0.7297 7.0857,0.8607 0.3295,-0.1684 0.6611,-0.3181 3.4623,-0.262 0,0 0,0 0,0 z M 593.2951,433.0592 c -0.0331,1.5342 22.5896,0.6923 28.6949,0.2807 -0.4024,1.609 -40.9479,1.16 -28.6949,-0.2807 0,0 0,0 0,0 z m -138.7381,1.16 c 5.9177,0 1.2624,-0.8045 6.4449,-0.8793 0.8762,0.8981 13.4249,-0.8981 14.2868,0 -6.1332,0.8419 -10.3652,0.7484 -20.7317,0.8793 0,0 0,0 0,0 z m -129.0202,-0.2993 c 10.3365,-0.1497 -5.9105,-0.449 -4.1297,-0.8607 9.0906,0.0375 18.5154,0.0562 18.4067,0.8607 -8.3001,-0.3929 -12.6593,0.7671 -14.277,0 0,0 0,0 0,0 z m 193.5282,1.1787 c 8.8558,0.3181 -4.7745,1.4968 -6.4995,0.8606 9.2437,-0.2619 -6.6844,-0.8045 -14.5593,-0.58 -0.2442,-1.0851 3.3783,-0.8232 -0.9497,-1.74 12.3017,-0.449 2.6187,0.973 11.2572,0.8607 5.6106,-0.58 -0.5376,-0.3555 -0.6183,-1.16 3.4846,0 6.9692,0 10.4538,0 0.2533,0.4864 0.5066,0.9729 0.7599,1.4593 -4.1546,0.0375 -8.3089,0.0749 -6.6504,0.58 3.4762,0 4.0538,-0.2245 6.8063,-0.2806 0,0 0,0 0,0 z M 124.2646,675.6444 c -5.583,0.0748 -0.693,0.4865 3.4972,0.5987 1.0416,-0.4303 4.5059,-2.0955 10.7997,-1.16 -13.9464,0.711 4.2136,1.2723 -3.4589,1.74 -3.156,-0.8606 -11.5221,0.1684 -18.1588,0 -2.7969,-0.6735 4.1731,-1.9645 7.3208,-1.1787 0,0 0,0 0,0 z m 25.1403,0.58 c -0.7038,-0.2245 -3.1497,-0.3368 -7.3367,-0.2806 4.5199,-0.7297 -1.7632,-0.8981 3.8121,-1.16 -0.6885,0.3929 18.1568,0.58 6.9995,0.8606 -9.7821,-0.5052 2.807,0.5239 7.3473,0.5987 -4.8888,-0.0561 -13.5913,0.9729 -14.6552,0.2807 2.4436,-0.0187 4.5379,-0.0375 3.833,-0.2994 0,0 0,0 0,0 z m 232.3027,-1.16 c 1.3008,-0.58 -4.9763,-0.58 -7.116,-0.8793 18.1528,0.1309 33.8473,0.1496 42.9409,0.2993 -8.3561,0.0748 -8.2326,0.7671 -3.277,1.16 -9.139,-0.3742 -11.1407,0.1497 -14.3594,-0.2993 7.5498,-0.711 -7.0223,-0.262 -18.1885,-0.2807 0,0 0,0 0,0 z" /></g></g></g></svg>
